/* XPM */
static char *collectible1[] = {
/* columns rows colors chars-per-pixel */
"64 64 229 2 ",
"   c #1FA6BD",
".  c #25ABBE",
"X  c #36ACBF",
"o  c #4CA6BB",
"O  c #6BA1BB",
"+  c #1EB2C8",
"@  c #21ADC5",
"#  c #39AFC5",
"$  c #27B2C8",
"%  c #24B4CB",
"&  c #2CBBCE",
"*  c #36B6C9",
"=  c #25BCD2",
"-  c #2ABCD3",
";  c #33BFD4",
":  c #3ABED2",
">  c #49B3C5",
",  c #5ABACA",
"<  c #44BED5",
"1  c #6BAFC5",
"2  c #78B4C9",
"3  c #2AC1D7",
"4  c #26C3D9",
"5  c #2BC4DA",
"6  c #39C4D7",
"7  c #35CADC",
"8  c #3BCBDC",
"9  c #27CCE1",
"0  c #2CCDE1",
"q  c #3ACDE1",
"w  c #2CD3E5",
"e  c #2FDBE9",
"r  c #36D6E7",
"t  c #3BD4E4",
"y  c #3CDCEA",
"u  c #2BE1EB",
"i  c #33E1EC",
"p  c #3BE2EC",
"a  c #2BEEFB",
"s  c #3EECF7",
"d  c #34EEFB",
"f  c #3BEEFA",
"g  c #54C3CE",
"h  c #42C2D5",
"j  c #46CADB",
"k  c #59C7D6",
"l  c #5CD3DD",
"z  c #7DC5CD",
"x  c #66C9D6",
"c  c #77C9D8",
"v  c #66D6DD",
"b  c #7DD9DC",
"n  c #45CCE1",
"m  c #4BCCE3",
"M  c #5CCCE4",
"N  c #46D7E6",
"B  c #4CD6E3",
"V  c #43DBEA",
"C  c #4EDEEA",
"Z  c #54D6E3",
"A  c #5BD2E3",
"S  c #54D8E9",
"D  c #4EDBF0",
"F  c #58DAF2",
"G  c #63CEEC",
"H  c #71CFEE",
"J  c #65D7E6",
"K  c #63DCE3",
"L  c #74D6E4",
"P  c #66D6F3",
"I  c #74D2F3",
"U  c #78D6F6",
"Y  c #44E3EB",
"T  c #4CE2EB",
"R  c #5FE2E6",
"E  c #53E4EF",
"W  c #5DE4EC",
"Q  c #47E3F0",
"!  c #43ECF6",
"~  c #4CEAF6",
"^  c #43EEFB",
"/  c #4CEDFB",
"(  c #52E4F1",
")  c #5DE4F3",
"_  c #54EBF3",
"`  c #52EDFB",
"'  c #59EEFC",
"]  c #44F0FB",
"[  c #69E2E5",
"{  c #65E6EC",
"}  c #6CE5EB",
"|  c #6DE9EC",
" . c #7EE2E3",
".. c #73E7E9",
"X. c #78E3E8",
"o. c #75E8EA",
"O. c #64E4F3",
"+. c #69E4F6",
"@. c #64EEFC",
"#. c #77E8F7",
"$. c #D19CBD",
"%. c #ED8BAE",
"&. c #EF82B0",
"*. c #ED8DB4",
"=. c #ED8FB9",
"-. c #EE94B6",
";. c #ED99B6",
":. c #E496B9",
">. c #ED95BB",
",. c #ED9BBD",
"<. c #F098BE",
"1. c #DBA2BD",
"2. c #EDA2BE",
"3. c #99ACC6",
"4. c #8BB2C9",
"5. c #99BCD4",
"6. c #ACACC5",
"7. c #B4AECA",
"8. c #A7B8CE",
"9. c #B9B6CD",
"0. c #A7BBD3",
"q. c #B7BDD4",
"w. c #EE96C1",
"e. c #EE9DC2",
"r. c #EB9EC4",
"t. c #F099C3",
"y. c #C6A9C7",
"u. c #CDAAC5",
"i. c #D5A9C6",
"p. c #DBA8C5",
"a. c #DDACCA",
"s. c #C8B2CD",
"d. c #D3B3CE",
"f. c #DCB1CC",
"g. c #C8BDD6",
"h. c #DDBBDA",
"j. c #E3A3C4",
"k. c #EDA3C4",
"l. c #EDAAC5",
"z. c #E6A7C8",
"x. c #EEA5C9",
"c. c #E4ADCA",
"v. c #EEACCB",
"b. c #F0A4C5",
"n. c #F0ABC7",
"m. c #F0A5CB",
"M. c #F0ABCD",
"N. c #E8B2C8",
"B. c #EEB2CD",
"V. c #EDB9CE",
"C. c #F0B2CD",
"Z. c #E6AED0",
"A. c #EEAED1",
"S. c #F0AED1",
"D. c #EEB4D2",
"F. c #E7B8D5",
"G. c #EEBAD4",
"H. c #EEBCD9",
"J. c #F0B4D3",
"K. c #F0B9D6",
"L. c #F1B7D8",
"P. c #F1BDDA",
"I. c #87C3D7",
"U. c #81CCD2",
"Y. c #99C5DB",
"T. c #84D1D6",
"R. c #86D4DA",
"E. c #88D7DC",
"W. c #8DDDDE",
"Q. c #93D6D9",
"!. c #94DCDD",
"~. c #99DBDB",
"^. c #B7C1D6",
"/. c #8BE2DF",
"(. c #96E1DE",
"). c #A1E4DF",
"_. c #87CBE4",
"`. c #9FCEE0",
"'. c #87DAE5",
"]. c #91DCE3",
"[. c #94DDEE",
"{. c #85D5F7",
"}. c #84D5FB",
"|. c #8CD5FD",
" X c #93DCF3",
".X c #99DBF4",
"XX c #93D6FF",
"oX c #98D7FA",
"OX c #BFCBE5",
"+X c #BDD2EC",
"@X c #B5DCF4",
"#X c #85E1E1",
"$X c #8DE3E1",
"%X c #86E5ED",
"&X c #93E3E1",
"*X c #9BE4E0",
"=X c #92E1EC",
"-X c #9AE3EB",
";X c #9CE9E8",
":X c #8CE3FB",
">X c #88E9F8",
",X c #9CE3F4",
"<X c #98E8F2",
"1X c #94E4FE",
"2X c #9BE5FE",
"3X c #94E9FE",
"4X c #9CE9FF",
"5X c #9DF1F6",
"6X c #A2E4E1",
"7X c #A7E8EA",
"8X c #A7E5F9",
"9X c #A3E4FD",
"0X c #A5E9FF",
"qX c #AAEAFF",
"wX c #B4ECFF",
"eX c #BAEDFF",
"rX c #ACF1F9",
"tX c #B7F2F9",
"yX c #C6C4D4",
"uX c #D6C3DE",
"iX c #EFC2DA",
"pX c #F1C4DD",
"aX c #C8CAE5",
"sX c #D2C8E3",
"dX c #D2D5EC",
"fX c #CDDFF3",
"gX c #F1C9E2",
"hX c #CAE7FB",
"jX c #C4EDFF",
/* pixels */
"v.A.M.x.M.J.r.M.S.r.m.J.x.x.b.r.x.A.r.r.m.M.x.n.L.w.r.m.x.x.r.x.r.S.w.r.L.S.S.S.m.D.x.A.D.x.x.H.x.v.pXL.x.x.M.m.D.J.S.J.S.t.m.J.",
"J.M.m.M.x.A.t.M.M.S.M.t.&.t.m.b.x.x.e.x.v.e.A.G.r.r.r.M.e.r.J.t.x.D.m.A.x.r.r.A.D.x.A.x.A.D.x.x.x.m.H.x.m.D.x.M.P.r.M.L.m.J.m.M.",
"L.r.A.x.m.M.D.A.m.r.m.e.r.D.k.e.x.A.x.D.k.r.L.x.r.M.m.r.w.b.t.>.w.r.t.x.x.L.J.m.S.L.A.L.x.e.x.x.A.A.x.x.m.b.pXS.m.t.x.P.K.S.b.M.",
"A.x.x.L.pXx.D.B.x.r.S.e.D.D.x.D.D.A.x.x.w.r.x.b.x.t.t.r.x.k.r.>.r.t.k.x.x.J.x.x.x.e.x.J.L.x.D.D.D.L.m.D.M.r.m.M.,.S.k.L.n.e.G.J.",
"L.x.b.x.P.A.x.A.x.H.m.r.e.v.D.v.G.D.x.k.x.x.x.v.r.t.<.m.v.x.A.e.x.v.A.A.x.A.k.x.x.e.v.v.v.M.e.e.e.r.e.e.<.M.v.K.e.e.M.J.S.x.m.K.",
"P.r.k.J.B.r.H.D.S.G.x.m.=.x.x.k.D.x.k.e.r.M.r.A.A.e.r.m.v.>.v.r.v.e.k.v.x.r.x.D.D.t.v.x.x.v.b.e.k.e.v.x.m.e.x.G.J.M.x.gXD.J.m.>.",
"S.m.D.e.J.D.x.K.x.x.k.x.r.>.D.e.v.x.r.w.r.x.x.r.e.k.x.r.m.k.B.r.k.,.k.x.x.v.v.x.b.e.k.>.b.e.r.b.v.v.e.x.t.H.e.J.K.K.H.M.D.S.v.b.",
"e.M.D.r.S.M.v.v.H.x.e.b.x.w.>.v.x.>.<.k.k.S.k.>.>.,.e.r.k.v.x.x.x.v.v.x.k.x.e.>.x.v.x.x.x.x.b.x.m.x.x.D.x.D.J.<.b.e.>.v.M.e.b.<.",
">.x.m.,.t.k.e.J.v.>.v.e.,.k.v.e.k.k.,.-.r.r.v.A.Z.f.sXaXaXaXOXOXaXsXaXaXaXaXuXF.c.J.r.m.>.A.D.r.x.>.x.iXe.x.B.x.K.v.J.M.D.,.r.M.",
"J.M.v.G.x.v.m.pXv.*.m.B.x.D.v.e.r.v.k.x.x.z.F.dXhXjXeXwXqXqX4XqXwXwXqXqXqXqX0X@X+Xg.f.G.r.v.r.r.x.x.,.x.J.e.>.M.gXn.e.v.D.J.k.J.",
"v.x.k.D.v.>.w.r.k.x.x.x.v.D.D.x.k.k.x.uXdXfXhXjXjXwXwX0X4X3X0XwXwXqX0X0X0XqX0X0X2XqX@X+XsXh.k.M.D.x.w.x.B.D.x.w.v.l.M.x.J.b.e.n.",
"x.B.v.v.P.v.k.k.e.x.D.k.x.k.k.p.sXdXhXjXjXjXjXeXwXwXqX0X3X0XwXwXqX0X0X0XqX0X0X4X0X0XqX0X0X8X+Xg.p.e.v.e.r.k.k.x.r.J.x.v.>.v.m.r.",
"v.e.x.x.M.v.k.x.x.D.e.>.x.k.y.I.qXhXjXjXjXjXjXwXwXqX0X3X0XwXwXqX0X0X0XqX0X0X3X0X0X0X0X0X0X0X0X1X_.d.x.x.D.e.k.m.D.A.r.x.x.A.r.r.",
"e.k.G.x.v.k.k.x.k.,.k.x.v.y.M ( eXjXjXjXjXjXeXwXqX0X3X4XwXwXqX0X0X0XqX0X0X4X0X0XqX0X0X0X0X0X0X2X( A y.k.D.v.r.r.A.A.m.e.v.v.m.m.",
"k.x.k.x.D.x.r.n.k.>.k.k.7.A u ) eXjXjXjXeXeXwXqX0X3X0XwXwXqX0X0X0X0XqX0X4X0X0XqX0X0X0X0X0X0X9X4X) u A 7.r.v.b.r.D.v.x.x.k.M.x.r.",
"A.A.k.D.x.v.e.e.x.,.j.0.B u u #.jXjXjXjXeXwXqX0X4X4XwXeXqX0X0X0XqXqX4X4X4X0X0X0X0X0X0X0X0X0X0X2X+.i i N 8.k.v.e.e.A.v.A.m.,.t.e.",
"x.x.x.D.e.x.k.B.2.:.5.N p Z l R @.3XrXwXwXrX0X4X4XwXwXqXqX0XqXqXqX0X0X3X0X0X0X0X0X8X0X0X4X4X>X#.| ..R Y V 5.p.v.B.x.v.k.=.A.v.D.",
"x.r.m.l.D.G.k.e.f.Y.K v b b z R d d ] @.#.3X3X4XwXwXqXqX0XqXqXqX0X4X4XqX0XqX0X0X0X2X:X#.O.O.@._ | &X(./.[ R 5.Z.k.x.x.x.*.=.k.G.",
"x.e.v.e.v.B.x.k.yXQ./.E.U.U.z T d d d d f ^ ` #.0X0X4X3X3X4X4X4X3X3X4X4X4X4X4X=XL A N t E E ~ ~ ..&X*X6X$X/./.yXr.r.D.m.G.r.>.x.",
"x.x.v.x.e.2.k.-.9.~.Q.T.U.U.z l d a d d d d ] _ o.o.` ] / ' ' / f ^ ] ` ' @.%X/.k j j Z C Q ! ` o.&X&X(.*X/.(.g.e.x.D.r.x.x.x.x.",
"k.B.v.v.v.v.B.k.^.Q.Q.T.U.U.z l d d d f _ | X.#X&X*X..f d f f ] d a a d ] | (.).(.E.X.K T T ( / o.&X(.(.*X&X&XyXr.x.x.r.k.>.r.t.",
"l.x.,.x.x.l.2.x.g.Q.Q.U.z U.z l ! _ .. .#X$X$X*X6X*X&X| s d d s ] f a d | $X(.*X&X&X(./. ...O._ o.&X(./.*X(.~.yXx.x.x.x.k.x.k.>.",
",.x.D.B.e.2.-.k.d.T.T.z x x k A %X&X&X/./.$X*X6X*X(.&X$X| s d d f ] ^ { #X*X).&X$X&X(.$X$X/.&XL } [ .. .$X;X(.yXb.e.G.D.n.k.e.r.",
"D.k.k.B.x.b.V.>.1.2 g g h 7 w P .X&X$X/.&X6X6X(.&X$X(.&X&Xo.! d d ~ o././.6X*X&X(.&X(.$X$X(.].{.P i Y T W | (.f.>.x.r.m.x.x.b.b.",
"l.B.,.,.k.B.F.k.2.3.> g v E.[ %XoX X=X&X6X6X(.&X$X&X&X(.&X&X| ! ! o././.*X6X&X(.&X&X(.$X/.$X_.|.>X>X>X#...{ 0.r.e.w.k.k.x.x.l.x.",
"k.x.l.k.D.x.k.k.k.p.O . # x R./.=X XoX6X(.(.&X(.(.&X&X&X/./. .{ %X&X/.(.6X(.&X$X(.&X$X$X'._. X8XrXrXo.W ( '.c.e.k.M.,.v.r.x.k.k.",
",.k.v.k.k.,.l.v.2.l.u.o . $ : L =X=X[. X=X/.&X&X(.(./. .v B t V qX0X<X7X;X&X&X(.(.&X/.E.I.[.tXrX>X_ Y Y J d.r.r.v.D.D.x.k.v.x.v.",
"k.k.,.k.-.l.l.l.,.;.k.6.# @ @ < {.oX X X X].&X!.b x k 8 7 r y E rXqX4XqX8X5X=X;X&X/.E._.1X0XqX2X{ Y Y S 7.x.k.k.m.e.x.e.r.e.>.v.",
"v.k.,.>.V.B.,.k.k.v.l.j.4.# $ & G XXXXXXoX.X'.x x l v J =X<X<X5XrXtXrXrXrXrX0X;X;X=X X2X3X4X2X#.Y Y T Y.,.v.k.k.k.e.D.k.t.e.x.<.",
"l.x.l.k.l.l.,.B.2.k.v.l.i.1 $ * < {.XXXXoXoXH < 6 6 < 6 g k x x 7X7X;X;X&X&X&X&X&X=X2X2X2X0X:XE Y Y b 1.e.,.>.r.v.v.r.x.*.x.v.x.",
"-.x.b.2.e.l.v.k.,.x.k.2.r.9.> $ & M XXXXXXXX{.h & = % % @ @   X (.).&X&X&X&X&X$X&X2X2X2X2X3X+.p Y K s.B.x.k.v.m.A.r.k.x.w.e.v.>.",
"l.k.x.>.e.,.2.v.v.l.l.k.k.k.3.$ % 3 I XXXXXX|.M 6 & & % $ @ @ X (.).$X*X*X&X$X&X=X2X2X0X2X#.p p C 8.r.>.>.k.e.r.x.k.x.>.x.v.>.e.",
"D.B.x.,.2.>.,.k.k.,.2.,.k.2.1.2 = = m |.XXXXXXH q - = - % % @ # ~.).&X*X(.&X/.&X8X2X1X4X1X( u p I.j.k.x.>.e.,.r.>.r.,.,.x.v.>.r.",
"e.k.,.k.,.N.k.l.v.l.k.x.x.k.2.i., - ; H XXXXXX{.m 0 4 - = % + * (.(./.*X&X&X$X&X9X2X2X2X#.i e J $.,.2.k.k.>.,.>.n.M.D.x.r.>.k.r.",
"l.G.l.,.,.v.2.2.x.l.l.l.l.V.B.l.7.< 3 m |.XXXXXXG 5 = - = = + : ~.(.(.*X(.&X$X<X2X0X2X1XT i V 7.,.-.,.x.2.<.r.r.r.e.x.v.B.>.e.r.",
"G.B.l.k.2.>.l.2.,.,.2.l.k.v.l.l.z.3.: 6 G XXXXoXI q 9 9 - = = : (.(.(.*X$X(.$X>X2X2X1X+.i p 5.:.,.k.k.-.2.e.k.,.b.v.,.k.x.>.e.b.",
"B.,.B.2.,.l.l.l.-.2.N.l.,.l.B.>.2.f.2 7 m U XXXX|.m 0 9 5 = = : (.&X&X*X&X&X$X:X2X9X:Xp u c p.,.k.,.k.,.l.,.>.e.x.e.e.e.,.v.x.r.",
"G.2.2.-.,.l.l.k.,.2.k.B.2.l.V.b.k.l.y.k 8 G |.XXXXG 0 9 0 = = 7 (.(.&X*X&X$X=X1X1X2XF u B y.k.2.-.k.,.-.>.,.,.,.,.B.>.e.v.w.=.k.",
"B.k.2.,.l.,.l.2.>.B.l.l.2.k.,.k.k.;.;.6.j n I |.|.U q 9 0 - = : W.(.*X(.&X&X2X1X2X>Xi y 8.*.,.l.l.-.:.2.-.-.,.r.2.k.x.e.e.>.k.A.",
"v.k.k.k.l.l.2.2.k.v.,.l.l.2.2.l.2.;.,.r.4.n M |.|.}.m 0 0 9 9 7 /.$X&X&X(.-X2X1X:XE e I.N.-.,.k.l.,.>.>.k.r.=.>.k.k.e.e.x.e.r.r.",
"x.l.B.v.k.,.,.l.k.,.b.l.G.l.2.k.;.%.,.l.i.x n U XX|.P 9 0 0 9 7 /.&X(.&X*X8X,X1XP i M i.k.k.2.2.x.v.n.r.v.k.>.-.>.-.-.x.x.z.r.r.",
"N.l.l.2.k.,.2.V.,.e.l.,.G.B.k.k.l.2.l.;.l.y.k Z |.XXU r 9 0 9 q $X/.*X&X].8X0X:XQ N 9.k.k.,.2.k.k.l.,.,.v.,.-.>.,.k.k.>.-.x.m.r.",
"v.B.2.,.N.B.;.B.,.l.2.l.C.k.x.2.l.l.2.2.l.v.8.m P XX|.S w 0 9 q #X&X(.*X-XqX9XO.y 5.,.l.2.l.,.v.2.,.2.-.:.>.,.*.x.r.>.r.>.=.r.r.",
"l.B.B.l.l.G.,.l.v.l.l.l.2.,.l.l.2.N.n.n.l.l.f.I.S }.oXP w e 9 t #X&X*X&X.X9X:XQ c a.2.l.-.v.v.l.2.k.-.>.k.>.r.-.,.k.k.x.>.t.w.t.",
"<.2.B.B.,.k.v.B.B.B.l.l.l.N.2.l.n.n.2.V.V.B.B.u.x P XX}.y w w t /.$X*X=X9X9X) l y.v.l.>.l.x.l.,.e.k.k.l.k.,.,.r.k.D.k.k.x.e.k.B.",
"2.N.2.2.n.>.n.l.k.2.l.l.2.2.l.2.l.2.n.2.l.l.n.k.q.M U |.F e w t #X&X*X-X0X}.C 8.V.>.>.v.k.l.k.G.v.>.B.B.w.,.-.-.v.r.l.k.x.B.k.e.",
"n.n.2.C.n.2.2.-.2.B.V.V.n.B.2.2.2.iX2.2.N.2.C.,.j.Y.P |.I e w t #X&X*X,X1XF I.v.x.-.l.V.l.2.,.x.x.-.>.l.2.-.,.l.l.k.,.,.,.x.k.*.",
"k.B.N.k.2.b.2.N.n.C.n.B.2.l.B.2.2.l.V.N.V.B.l.,.k.1.c U }.y e r  .(.-X,X#.c i.l.2.l.k.,.,.k.-.-.-.,.l.2.l.-.-.k.k.,.r.,.v.k.-.,.",
"k.N.n.l.l.k.V.2.k.,.k.k.2.B.N.l.l.N.b.,.2.N.l.B.2.2.g.b U F i y  .*X-X:XJ 9.k.n.2.,.,.v.k.v.>.-.x.,.r.k.,.k.v.k.,.,.l.k.,.e.>.e.",
"B.G.n.l.B.l.2.n.B.B.B.l.v.k.2.N.B.2.n.l.n.2.n.V.l.;.l.8.I U y y  .*X,XP 8.,.-.-.2.k.l.l.,.2.k.,.k.,.r.-.,.k.l.k.n.e.l.v.k.*.e.x.",
"v.v.,.k.2.2.2.,.l.n.2.C.2.K.b.2.l.v.;.l.n.;.2.2.2.l.N.c.`.U D y  .-X:X_.N.l.2.;.l.V.B.k.>.k.v.-.e.v.k.,.S.,.-.k.v.v.x.x.,.k.v.e.",
"v.B.2.,.G.B.B.k.N.n.2.b.2.2.2.,.;.l.2.l.N.n.2.C.l.N.2.V.f._.F V  .[._.d.l.l.>.;.2.n.,.,.N.,.,.2.,.x.,.x.e.>.>.,.,.l.,.v.v.x.e.l.",
"v.B.S.B.,.B.B.B.v.k.V.l.l.l.2.n.2.2.2.;.C.C.2.n.2.2.2.2.2.g.I C  .[.q.2.2.l.N.%.,.2.>.2.v.k.v.l.v.l.l.v.%.*.r.>.>.b.e.D.,.=.,.x.",
"b.2.B.G.K.2.v.V.2.k.n.k.b.2.2.C.n.2.l.l.2.V.2.;.;.2.2.2.2.V.^.K L ^.,.;.k.l.,.,.l.2.>.,.l.2.,.,.k.e.,.v.x.,.l.k.k.l.v.>.k.>.r.B.",
"B.b.l.l.B.l.B.n.2.k.l.B.n.2.2.B.V.l.l.n.2.iX2.2.n.2.2.2.,.2.f.Y.`.F.v.k.k.l.2.k.l.B.k.,.l.l.>.2.,.k.x.v.r.x.k.v.,.e.k.=.e.x.r.n.",
"G.B.K.V.B.v.N.n.,.l.2.v.2.2.,.;.k.B.2.;.C.N.,.;.B.n.l.V.l.2.,.i.d.N.B.l.2.k.,.k.v.B.l.V.B.>.l.G.B.e.B.k.k.v.x.v.v.>.e.n.l.x.D.x.",
"G.B.v.l.B.D.B.k.B.k.>.b.l.2.l.l.N.2.n.V.2.2.2.2.2.l.B.l.2.2.C.N.>.B.l.2.B.2.%.k.k.2.2.k.v.k.l.v.>.x.x.v.l.x.v.G.G.v.G.x.l.>.,.k.",
"iXv.,.l.v.G.B.l.k.v.2.2.l.l.v.B.l.k.b.2.2.2.N.2.l.l.l.;.V.C.n.l.2.N.l.B.B.,.;.;.,.B.l.l.k.l.2.2.>.k.-.k.x.v.S.,.v.x.,.k.,.k.v.v.",
"B.v.v.l.v.l.B.l.k.b.n.l.k.2.n.G.>.k.l.2.2.v.B.,.B.V.2.V.V.C.S.B.l.l.C.l.k.B.v.B.B.l.,.e.l.l.b.k.r.D.x.B.B.l.x.k.B.v.x.x.>.k.D.>.",
"v.G.v.B.k.x.x.x.N.2.n.iXv.n.k.x.v.k.k.l.l.B.V.>.n.N.l.B.B.l.n.n.B.l.l.B.B.l.2.l.k.v.v.v.V.b.v.B.k.l.l.v.x.B.V.>.>.k.D.x.,.e.v.x.",
"D.pXB.M.D.D.B.k.,.B.v.n.G.B.2.2.l.2.x.l.x.B.G.l.;.l.l.l.2.l.B.V.2.;.V.B.n.2.l.k.B.v.e.,.B.x.l.v.l.G.,.r.x.v.e.>.e.k.v.D.B.e.k.e.",
"v.G.v.x.v.l.D.l.k.v.l.k.2.2.N.l.l.v.G.v.l.l.k.B.n.b.2.l.B.,.k.N.2.V.N.2.l.n.,.2.l.l.l.B.l.v.v.2.x.l.e.k.e.k.k.e.v.k.D.B.x.G.G.D.",
"l.K.G.pXx.l.n.x.B.v.G.B.k.V.b.B.D.B.n.l.b.B.C.C.B.n.2.l.2.k.l.n.b.n.2.2.k.x.B.-.l.l.k.x.k.k.v.B.v.,.e.n.B.v.v.k.B.e.v.v.v.B.x.J.",
"S.pXV.v.k.C.K.P.l.v.iXB.n.B.k.n.B.l.k.2.v.l.n.K.N.2.n.N.l.2.B.2.2.;.2.l.,.l.v.l.l.l.x.,.B.B.B.v.x.G.x.v.b.,.2.J.t.e.x.D.,.x.v.x."
};
