/* XPM */
static char *exit3[] = {
/* columns rows colors chars-per-pixel */
"64 64 248 2 ",
"   c #BB6D0E",
".  c #C3770D",
"X  c #C27C12",
"o  c #D08B13",
"O  c #D38B14",
"+  c #DD9B14",
"@  c #D99519",
"#  c #E29A17",
"$  c #E19D14",
"%  c #DFA41A",
"&  c #E4A414",
"*  c #E5AB15",
"=  c #E4A41B",
"-  c #E4AB1C",
";  c #E9AA18",
":  c #E9B517",
">  c #ECB51B",
",  c #ECBC1D",
"<  c #F2BD19",
"1  c #D89A26",
"2  c #CF9A3D",
"3  c #D59C35",
"4  c #DCA529",
"5  c #DEA937",
"6  c #E3A522",
"7  c #E5AE23",
"8  c #E5AC28",
"9  c #E6B127",
"0  c #EAB423",
"q  c #EDBA22",
"w  c #E9B32C",
"e  c #ECBB2C",
"r  c #F1BB26",
"t  c #E2A933",
"y  c #EAB632",
"u  c #E8B937",
"i  c #EEC21D",
"p  c #F1C219",
"a  c #F4CA1B",
"s  c #F7D51E",
"d  c #EEC628",
"f  c #F1C426",
"g  c #F4CC24",
"h  c #F3CB2C",
"j  c #F5D223",
"k  c #FBDC27",
"l  c #F4D32C",
"z  c #F6DB2C",
"x  c #F9DD2D",
"c  c #ECC436",
"v  c #F2CA33",
"b  c #F2C538",
"n  c #F3CC3D",
"m  c #F5D434",
"M  c #F7D937",
"N  c #F9DD3C",
"B  c #F9E22C",
"V  c #FAE536",
"C  c #FCEC3C",
"Z  c #FDF535",
"A  c #FDF23A",
"S  c #D49858",
"D  c #D9A846",
"F  c #D3A658",
"G  c #DBB758",
"H  c #E3AE44",
"J  c #E7BB49",
"K  c #EEAF5B",
"L  c #E4B858",
"P  c #CB9972",
"I  c #D69C7B",
"U  c #D5A767",
"Y  c #DBB566",
"T  c #CBA37F",
"R  c #D9A679",
"E  c #E3B868",
"W  c #E5B876",
"Q  c #EDC847",
"!  c #F3CA48",
"~  c #F3D343",
"^  c #F5D948",
"/  c #F6DB4C",
"(  c #F9DC4D",
")  c #EAC759",
"_  c #F0CE59",
"`  c #F3D254",
"'  c #F7DC54",
"]  c #F4D45B",
"[  c #F4DB5B",
"{  c #FBEA46",
"}  c #F9E44D",
"|  c #FCF545",
" . c #FCF34A",
".. c #F8E457",
"X. c #FBED53",
"o. c #FCED5B",
"O. c #FCF354",
"+. c #FDFA54",
"@. c #FDF65C",
"#. c #DCC373",
"$. c #E8C667",
"%. c #F3CD65",
"&. c #EED367",
"*. c #F4DA66",
"=. c #F3D46A",
"-. c #E8C877",
";. c #F1C975",
":. c #ECD57A",
">. c #F3D474",
",. c #F4DA74",
"<. c #F5D978",
"1. c #F4DC7A",
"2. c #F6E263",
"3. c #F9E768",
"4. c #FBEC6C",
"5. c #FCF362",
"6. c #FDFB65",
"7. c #FCF36D",
"8. c #EFE075",
"9. c #F9E977",
"0. c #FAE47C",
"q. c #FCF374",
"w. c #FDFA72",
"e. c #FDF47B",
"r. c #FEFB7C",
"t. c #BD8E84",
"y. c #CD9883",
"u. c #D3998C",
"i. c #CD8B95",
"p. c #C99694",
"a. c #D99997",
"s. c #E49A9B",
"d. c #DAA784",
"f. c #DCB586",
"g. c #DBA997",
"h. c #DCB698",
"j. c #E4AA89",
"k. c #E6B787",
"l. c #E6A997",
"z. c #F2AF90",
"x. c #E8B797",
"c. c #DD99A7",
"v. c #D797AA",
"b. c #EB8CAC",
"n. c #E39AAC",
"m. c #E899A9",
"M. c #ED8DB4",
"N. c #EE8DB7",
"B. c #ED94B5",
"V. c #E49CB2",
"C. c #EC9BB5",
"Z. c #ED95BB",
"A. c #E69BBA",
"S. c #ED9BBD",
"D. c #F092B7",
"F. c #DDA5A5",
"G. c #DCA7B7",
"H. c #E2A4A3",
"J. c #E6A8A7",
"K. c #ECA5AC",
"L. c #EAACAC",
"P. c #EAB4AB",
"I. c #E9B8A8",
"U. c #F1B6AC",
"Y. c #E4A3B4",
"T. c #EBA3B4",
"R. c #E5ABB4",
"E. c #ECACB4",
"W. c #E5A4BB",
"Q. c #ECA2BE",
"!. c #E5ADBD",
"~. c #ECABBB",
"^. c #F0AABC",
"/. c #EBB5B4",
"(. c #ECB3BB",
"). c #EEBCBC",
"_. c #F1B8B8",
"`. c #DDC48B",
"'. c #E8C887",
"]. c #F3CD8A",
"[. c #EAD486",
"{. c #F4D889",
"}. c #E9C697",
"|. c #F1C79B",
" X c #EBD599",
".X c #F5DC93",
"XX c #F3D899",
"oX c #FBEB82",
"OX c #F6E588",
"+X c #FCEC8B",
"@X c #FEF885",
"#X c #FDF38A",
"$X c #FAE593",
"%X c #F9E79A",
"&X c #FDF897",
"*X c #E9C9A6",
"=X c #F2C9A8",
"-X c #ECD6A8",
";X c #F4DBA8",
":X c #EDC5BB",
">X c #F2C8B8",
",X c #EDDBB6",
"<X c #F3DBB3",
"1X c #F6D8BB",
"2X c #F6E2A2",
"3X c #F9E2A3",
"4X c #F8EAA9",
"5X c #FEFBA6",
"6X c #FDF6AA",
"7X c #EDE2B7",
"8X c #F8E7B7",
"9X c #F4E3BC",
"0X c #FDF8B8",
"qX c #EE98C2",
"wX c #ED9DC2",
"eX c #F099C3",
"rX c #E5A7C2",
"tX c #EDA4C4",
"yX c #EDAAC5",
"uX c #EEA5C9",
"iX c #EEACCB",
"pX c #F0A3C5",
"aX c #F0A7C8",
"sX c #F0ACCD",
"dX c #ECB2C4",
"fX c #ECB8C6",
"gX c #EEB2CD",
"hX c #F1B5C9",
"jX c #EEAED1",
"kX c #F0AED2",
"lX c #EEB4D2",
"zX c #EEBAD4",
"xX c #EFBCD9",
"cX c #F0B4D3",
"vX c #F0BAD6",
"bX c #F1B7D8",
"nX c #F0BDD9",
"mX c #EFCFC8",
"MX c #F2C2C4",
"NX c #F3CAC9",
"BX c #F5D8C8",
"VX c #EFC2DA",
"CX c #F1C3DD",
"ZX c #EFE1C2",
"AX c #F4E3C1",
"SX c #F6E8C8",
"DX c #FDF4C5",
"FX c #F1C9E2",
/* pixels */
"iXjXsXuXuXbXeXuXcXpXuXcXpXeXuXeXuXsXqXwXuXjXuXuXnXqXwXsXjXuXwXuXwXjXqXwXxXjXjXjXuXcXsXjXbXiXtXxXuXsXCXnXjXuXuXuXcXbXkXbXkXeXpXbX",
"cXsXuXuXuXbXeXjXuXsXiXqXM.qXuXuXiXuXqXuXiXqXjXlXuXwXwXuXwXwXjXqXuXlXrXrXiXqXqXjXhXyXuXjXiXlXuXuXaXuXbXuXwXxXuXsXnXeXsXbXpXcXkXsX",
"xXwXkXjXsXsXlXjXjXwXuXuXwXbXtXeXiXjXuXlXuXrXbXuXqXjXjXqXqXwXwXN.A.v.c.qXuXbXjXiX~.fXhXMXtXS.uXuXiXjXuXiXsXeXnXcXuXZ.uXnXvXkXpXsX",
"jXuXsXbXCXuXlXiXuXwXjXqXjXlXiXcXlXjXuXuXqXuXiXuXjXqXeXwXiXwXwXn.v.d.A.iXuXjXiXyX1X8X9XBX:XuXzXlXlXbXuXlXiXpXuXsXeXlXpXnXsXpXzXcX",
"bXuXsXkXnXjXiXjXuXxXsXwXqXiXlXiXzXlXuXtXuXiXiXjXwXqXqXyXjXuXdXg.g.Y.jXiXyXiXuX(.>XU.hXyXJ.sXwXwXwXwXeXqXqXsXuXcXeXwXjXcXvXiXuXcX",
"CXwXtXlXlXwXxXlXjXlXuXtXN.iXjXtXlXuXtXwXwXuXuXiXjXqXqXiXiXZ.I.W H.A.uXlXW.j.P./.hXwXiXyXR.uXtXwXuXwXyXuXtXpXiXvXnXuXuXFXcXlXaXZ.",
"kXsXlXwXlXlXuXvXiXiXuXuXwXZ.iXqXuXiXuXqXqXiXrXwXwXwXuXwXuXW.}.:.}.n.T.L.x.}.`.F.Q.S.wXm.k.E.qXW.~.iXS.uXeXvXwXcXvXvXnXsXlXcXsXpX",
"uXuXjXwXjXiXuXiXbXuXqXuXuXqXA.iXuXqXA.rXwXiXwXS.A.A.qXwXuXR.].*.,.|.:X*X X'.k.a.W.E.x.x.|.L.E.L.x.R.uXgXuXlXcXS.uXtXS.iXsXeXpXZ.",
"Z.uXpXS.eXtXqXvXuXqXuXwXS.tXuXwXtXtXA.N.wXV.W.rXA.c.n.S.C.x.o.} / =. X;X;X$.J |. X:.&.,.1.{.:.-.) I G.xXtXpXjXiXvXuXzXiXlXS.tXsX",
"gXuXcXzXuXiXuXCXiXM.uXlXuXlXgXtXtXiXuXW.H.H.}.*XJ.*X}.z.;.( C { N M n J %.E $.].$.Q n ~ ~ _ _ Q L F.A.wXcXwXA.iXCXsXeXiXcXcXwXlX",
"sXuXuXzXuXS.S.wXwXiXuXuXuXlXlXiXtXtXC.g.'.1.%X4X%XXX' x N X.w.@X4.5.o.*.OX<.%.Q Q w w y w 8 u J g.uXA.wXlXjXuXqXcXyXiXuXkXuXwXaX",
"uXgXuXiXnXiXwXtXS.uXlXtXyXtXtXwXuXqXT.x.&.[ OX&X7.X.O.7.r.w.w.X.x k x x v 0 y Q *.t 1 # 5 5 3 U v.qXiXV.wXtXuXiXqXcXiXuXZ.iXuXT.",
"iXeXuXuXuXuXuXuXiXlXwXZ.tXuXqXtXsXtXP.>.^ *.3.7.w.@X&X@X@.Z | A C V V l p h f $ = 4 4 1 6 t @ P n.tXrXA.!.rXuXiXgXgXK.uXiXjXqXn.",
"wXtXlXiXlXwXuXyXwXwXtXuXiXZ.tXwXD.m..X' ^ 8.6X0X0X&Xw.6.A C O.{.{.<.>.' ~ m v 0 % : - o @ # # S y.y.y.P T F.A.wXlXiXuXqXiXjXuXQ.",
"tXuXuXuXlXjXwXuXwXS.tXtXqXyXwXqXS.).4Xq.O.q.6X0X4.| |  .X.#X|.P._.L.m.P.z.k.;.=.Q ! 7 O @ # $ # 6 4 G U U T Y.wXlXiXiXuXuXdXtXtX",
"jXjXtXgXwXiXtXwXiXZ.wXrXZ.tXS.B.x.1.r.X.{ 9.OX^ h M ..4.;X=XU.~.yXQ.K.yXT.S.U.U.=X.X_ q : + 7 ; 8 u G $.$.-.R.qXwXjXiXiXyXC.wXqX",
"iXuXiXlXwXtXtXiXyXB.Z.uXuXZ.Z.Q.>.A Z Z 2.=.y q j ~ 2.XX~.uXtXdXB./.P.Q.E.tXC.Q.tX).:.$.u 7 = u Q L F.I.}.[.*X(.gXiXiXtXN._.(.cX",
"iXwXuXuXlXxXtXuXiXyXiXtXtXZ.b.~.=.V Z 5.] 6 % a z } 0.*XdXyXtXqXA.B.T.R.Q.uXiXuXwXtX=XXX;.3.y # 0 e k.~.W. X8.'.uXwXuXuXM.z.P.vX",
"uXwXiXwXiXiXuXyXuXuXA.Q.tXtXwXx.! a  .[ + + a j N 8..Xx.(.yXQ.T.wXV.Q.Q.wXuXiXzXS.C.yX9X4X0X~ & * , c ;./.4X0.|.qXtX).(.lXwXm.yX",
"wXuXiXuXtXtXyXZ.tXuXtXZ.tXS.H.) f v 3.- o i a ^ *.OX}.j.Y.dXrXZ.tXiXyXyXyXiXiXuXtXyXiXMX0X6X3.f * d Q 1.+X%X2X^.qXyXI.Q.uXuXsXaX",
"tXiXuXgXiXuXlXtXyXyXiXB.S.C.W q : [ c % : i g [ *.'.h.W.C.R l.Q.wXB.wXuXS.tXyXS.uXyXuXiXSX6XoX^ i c / 8.3.+X=XuXwXP.P.wXtXS.wXwX",
"yXuXQ.uXiXtXQ.uXtXtXQ.S.uXT.$., ` [ + - s m -.'.k.k.W.zXsXm.dXyXtXA.Z.tXS.wXwXQ.tXB.tXyXyX8X&X4.z i z M ~ ].~.gX~.L.tXuXtXuXtXZ.",
"C.yXzXlXtXS.C.pXtXA.V.R.W.:X[ v 9.v % l 4.OXk.H.s.s.Q.yXyXcXQ.T.wXtXS.C.Q.S.Z.tXuXwXyXZ.qXMX4Xe...p g M [ x.Q._.x.C.lXlXsXaXwXwX",
"lXuXyXzXtXA.G.m.c.a.h.k.W _ M ..` c m o.4X<XU.yXvXC.j.fXyXsXtXiXtXS.tXtXS.Z.S.Q.gXS.yXuXqXeX>X$X4.x a V 8.P.Q.E.l.tXwXsXlXyXuXaX",
"yXgXQ.wXtXG.g.g.f.`.`.`.Q h m ..7 d O.oX2X>XtXQ.tXtXK.yXyXpXgXgXtXS.uXQ.pXS.yXS.iXrXyXuXS.cXiX>XoX} g x 4.=XL.C.S.Z.tXtXyXuXiXuX",
"yXuXyXuXlXY.h.`.G #.-X[._ l m *.- N w.0XAX(.tXuXS.S.dXiXgXtXS.gXQ.S.yXyXS.gXuXgXiXuXqXC.S.tXwXMX6Xo.m k X.oX{.L.pXhXwXyXwXtXtXtX",
"S.tXpXuXtXn.h.`.#. X7X[...../ 9 - 4.&X7X>XB.yXQ.tXB.hXS.S.S.pXyXB.tXtXtXyXQ.dXuXyXhXwXgXyXB.qXhX8Xe.{ j M 2.{.x.~.xXlXuXuXyXuXiX",
"tXtXS.Q.B.R.`.#.#.7XZX[.m } / y Q &X6X7X(.C.S.Q.tXQ.pXpX^.yXsXB.Z.S.S.qXyXtXgXS.yXS.S.tXS.S.iXtXBX5Xo.B l m ,.-.L.Z.uXwXwXwXN.gX",
"uXtXS.C.lXrXf.$.[.7X7X&.j z ' e / oX%X<XC.uXB.B.S.tXyXyXC.Q.Q.yXS.B.S.Q.M.B.qXtXpXuXwXS.S.S.Z.D.fX6X@XC g v ] -.Y.S.gX~.qXwXuXS.",
"yXyXyXpXuXR.f.[.7X-X X[ j M u 9 { 9.;X-XC.tXS.tXS.yXQ.yXhXyXQ.yXtXgXtXB.^.Z.uXiXS.S.yXgXS.pXwXqX^.;X3.C g v _ k.R.yXtXtXN.uXiXiX",
"B.uXpXS.tXyXx.-.*X*X[.^ z ^ 4 9 B *.[.'.T.C.yXgXC.B.B.yXS.B.wXS.tXyXyXuXS.yXS.S.S.Q.tXtXwXpXS.Z.pX;X,.} m f ) R.P.K.tXuXqXqXiXZ.",
"aXuXuXS.S.S.T.-.`./.`.c d e @ d B c $.|.fXyXyXQ.Q.Q.Q.yXuXS.S.pXpXb.B.Q.gXtXB.S.pXyXyXtXC.D.S.yXyX;X,.l j r J j.l.wXtXZ.uXiXZ.wX",
"lXiXtXS.S.Z.A.x. X*X'.u , @ @ d B b >.<XhXQ.S.M.wXQ.C.Q.S.S.yXQ.tXb.C.C.S.iXgXS.S.^.tXuXZ.Q.tXZ.yX8X,.g g f < J s.eXqXA.uXlXZ.qX",
"tXtXV.tXS.gXtXg.`. X$.7 > @ o d B ( .X1XyXyXQ.tXS.^.S.D.C.wXS.C.yXC.tXyXS.pXQ.yXQ.Q.tXZ.B.uXyXQ.C.3X0.h p g r L L.sXlXE.T.Z.tXwX",
"yXlXyXQ.Q.iXyXl.}. X[.u = @ O s | 3.3XBXQ.yXyXfXS.Q.yXQ.B.S.Z.S.Q.yXtXaXgXS.pXyXyXuXpXS.S.tXtXB.^.;X$X~ b v r W k.K.T.(.gXZ.wXwX",
"zXgXiXS.Q.B.!.T.}. X$.H $ 1 t z +.9.3XAXdXQ.pXdXyXB.yXS.M.B.S.^.yXyXQ.tXyXyXiXT.tXQ.S.Q.tXtXtXS._.%X1.( = > < J k.~.C.tXuXS.qXuX",
"gXS.gXtXQ.tXrXI.[.-.D 6 & o @ z O.q.3XAXNXhXQ.yXpXQ.C.fXS.D.^.Q.tXQ.Q.S.yXpXhXtXS.B.S.S.S.S.wXS.>X.X*.v = = r J x.C.A.qXS.yXiXqX",
"zXW.S.B.A.tXR.R G 3 1 $ & . X j { q.%XAXmXhXuXiXpXhXgXS.yXyXB.pXtXS.C.B.Q.wXS.B.S.S.S.S.pXS.yX^.=X.X] 6 1 6 w r L -.s.V.uXS.N.uX",
"iXuX^.S.tXC.~.P F 2 1 # * X X j C q.%XAXmXyXzXhX~.tXpXyXQ.Q.S.yX~.S.C.tXtXyXS.S.S.B.B.C.^.M.Z.dX;X{.^ @   - $ ; ~ Q Y V.wXqXtXjX",
"iXtXuXwXiXiXrXa.y.S 3 @ * o o z A 7.$X8XMXQ.yXQ.sXyXQ.tXQ.M.C.S.pXQ.gXB.S.tXQ.tXZ.dXtXQ.iXZ.eX).4XoX( O   9 e 0 u G a.A.uXwXwXuX",
"iXQ.fXiXtXS.C.rXc.P 2 @ & & + m x o.+X8X1X^.yXpXM.yXcXyXQ.Q.dXS.D.tXyXC.S.sXtXsXQ.C.Q.tXwXyX^.<X&X7.N @ . # - b Q I n.tXwXuXuXwX",
"fXyXiXtXtXC.m.fXc.R 5 @ * q & i l } oX4XAXhXgXhX~.yXQ.tXpXyXyXdXyXtXpXyXyXyXyXyXS.Q.Q.pXS.pX1X6X+X5.x y 1 # 8 %.k.Q.tXqXS.uXiXqX",
"iXhXiXyXiXgXn.dXl.W 5 @ & f & , l } 9.6X8XBXdXyXtXyXyXS.^.yX~.yX^.yXS.dXyXyXpXQ.yXsXS.yXwXBX0X&X9.O.x 6 @ w u W K.Z.qXuXS.qXqXuX",
"iXyXgXiXyXVXC.~.k.L u 4 - i + : k V 4.$X8XAXmXyXQ.sXyXfXyXpXpXQ.B.tXQ.tXyXpXS.Q.yXyXpXyXMXDX4X$X=.} l + # y E j.l.pXtXuXA.qXqXqX",
"Q.W.L.gXS.tXuXdXJ.E Y K 9 d % * x V 3.OX;X,XSXMXyXrXtXgXcXwXyXyXQ.qXtXS.B.S.yXQ.S.iXuX(.SX8X3X{.%.m e 8 J ) m.m.Q.zXyXuXuXtXtXjX",
"Q.yXT.yXyXS.iX~.H.d.H.F.D : * & g C o.,..X;X,X,XMXcXyXyXyXA.tXC.tXQ.yXyXQ.yXyXQ.gXS.~.BXSX;XXX>.` n t y ) z.s.l.yXuXtXtXuXgXuXqX",
"yXyXS.gXyXtXC.V.F.!.dX!.R 4 q t f } ( ` 1..X<XZXZXfXtXyXyXiXdXgXyXyXQ.pXyXyXS.yXtX^.BXAX,XXX[.*.} e @ ) x.B.C.E.yXuXwXS.qXyXtXM.",
"Q.rX!.yXS.tXA.W.!.rXrXdXR 3 9 6 q M v ! ,.{.;X8XZXBX(.yXuXyXuXyXyXQ.yXtXyXQ.uXyXQ.MX8X,XXX.X1.5.} 9 @ $.x.S.C.yXQ.S.wXA.iXtXB.S.",
"tXG.v.v.yXtX!.V.tXS.T.Y.g.F 5 J - f m ! ] <..X3X8X1XSXSXNXgXmXVXdXQ.yXyXQ.wXpXyXpX:X<XXX$XoX*.( b e H j.C.pXiXtXS.Q.uXtXS.S.Z.wX",
"gXdXp.t.fXyXA.rXdXdX!.x.'.Y D u 0 d ( n ! %.;..X3X<X<XDXDXSXSXBXT.yXyXtXS.C.C.B.Q.=X;X$X0.%.` ~ d w E s.S.tXyXtXuXpXyXiXuXM.wXuX",
"yXtXv.i.v.Y.tXC.dX~.H.'.8.G 5 9 l g h n ' ] %.OX.X X-X;X<X8X8XDXfXyXQ.dXfX).E.C.).XX$X0.*.! ( m v W Q.S.cXS.B.wXyXiXuXyXS.wXiXwX",
"iXlXZ.v.p.y.g.T.yXl.Y $._ Q c c h g > 0 ^ X...7.0.[..X XXXXX%XXX;X)._.1X<X;X;X=XXX+XoX4.' ( m < K tXS.iXwXZ.Z.S.S.yXS.iXiXuXtXuX",
"iXlXgXrXi.P Y -.'.W E Y G u u Q w q , * r } X.X.o.*.>.<.oX[.[.OX$X$X%X%X%X$X$X{.OXoX3.( ( ~ f H E.aXuXyXM.M.wXS.S.pXwXlXS.B.qXuX",
"tXS.lXhXfXV.F.) L W f.U F F D u 7 ; > : > l ..@.5.o.] 2.7.0.,.9.&X#X+X+X+X+XoX1.,.5.X.( ! f ! m.pXpXS.iXuXS.uXuXtXyXuXZ.tXZ.tXgX",
"zXtXyXgXgXrXgXL.j.g.W.!.F.a.R G 8 7 * , i < g X.w.6.{  .X.o.5.q.e.#X+X#X#X#Xe.3.4.5.O.} l ! K.Q.S.tXtXiXtXuXtXiXqXtXtXN.S.uXwXuX",
"zXiXzXgXgXiXiXdXC.~.Q.uXS.Y.s.R E J - * : < : a C q.6.+. . .O.6.q.@X6X5X&X&Xr.q.r.O.C C =.K.Q.vXsXtXgXtXwXiXyXiXiXB.wXsXyXuXcXiX",
"vXcXuXyXgXlXgXrXgXtXS.T.W.T.~.H.x.E - + : g d a s  .6.6.6.+.+.6.r.&X9XhXBXDX5Xr.O.C | ].yXpXgXyXZ.uXuXiXyXtXiXzXlXiXzXuXuXZ.S.tX",
"zXgXS.iXgXzXlXiXtXiXpXT.uXyXyXF.d.R J 5 u &.] m x Z A A +.+.6.r.&X5X1XNX4X5X&X6.| | <.^.pXyXQ.Q.Z.tXB.wXuXuXcXS.iXuXqXtXS.wXiXiX",
"fXaXgXyXiXuXgXyXtXtXyXtXtXtXyXP.U d.G E Y }.&.~ l V  .Z +.+.| +.@.w.r.&X5X@X#X.XXXU.E.pXhXyXpXtXwXlXyXlXgXyXuXuXgXyXiXiXS.uXzXS.",
"iXzXiXgXtXyXyXtXgXQ.dXVXyXyXuXrXJ.n.I U c.!.-.&.) ' r.+.+.5.4.4.@.4.0.3X1X>XT.yXtXiXuXuXgXyXsXgXtXyXyXiXuXlXgXS.Z.uXjXyXZ.S.jXuX",
"lXVXgXcXlXlXiXQ.S.iXiXiXzXiX~.n.c.W.Y.u.u.g.'.'.:.&.3.4.4.|._.fXU.K.fXhXyXQ.yXpXgXgXwXS.gXyXuXiXuXzXS.wXuXuXtXZ.tXtXiXlXlXS.pXwX",
"jXzXiXiXiXyXzXuXtXiXyXtXyXQ.yXY.V.yXzXF.p.g.g.h.x.J.~.=X-XC.Q.sXQ.gXhXQ.yXsXS.Q.yXcXhXiXiXyXiXS.uXyXwXtXwXpXtXqXyXtXlXlXiXVXzXcX",
"yXvXCXCXpXiXyXyXgXcXzXgXyXhXtXgXgXgXcXW.Y.!.!.R.!.yXQ.uXS.tXyXyXpXyXQ.pXyXtXhXB.yXhXuXpXyXuXiXgXiXS.wXiXgXyXyXpXcXwXuXgXgXzXuXlX",
"gXCXgXgXyXsXvXnXuXyXVXgXiXgXtXuXdXyXQ.rXyXyXgXhXyXyXyXyXyXpXhXQ.Q.Q.Q.tXS.uXgXyXyXyXuXA.gXiXgXyXuXVXuXiXpXS.tXcXwXwXuXlXS.uXuXyX"
};
