/* XPM */
static char *exit_player[] = {
/* columns rows colors chars-per-pixel */
"64 64 254 2 ",
"   c #774E21",
".  c #A13C14",
"X  c #B73B32",
"o  c #C32E36",
"O  c #9F450E",
"+  c #9B4B09",
"@  c #9D4A0B",
"#  c #9D540D",
"$  c #9B4B14",
"%  c #9D5316",
"&  c #A0470B",
"*  c #A14B0A",
"=  c #A7540C",
"-  c #A44914",
";  c #B14918",
":  c #A35917",
">  c #B16814",
",  c #BA6A14",
"<  c #BC7818",
"1  c #A35926",
"2  c #B55B27",
"3  c #8E6A31",
"4  c #A76529",
"5  c #AA6637",
"6  c #B27430",
"7  c #BB7638",
"8  c #C26F14",
"9  c #C97215",
"0  c #C47816",
"q  c #CC7C15",
"w  c #D27D18",
"e  c #D2552E",
"r  c #C77A26",
"t  c #CE6F32",
"y  c #D97839",
"u  c #E6753B",
"i  c #EC7C3D",
"p  c #F57B3D",
"a  c #BC3944",
"s  c #D81257",
"d  c #D91758",
"f  c #E51D5A",
"g  c #D82658",
"h  c #CE3352",
"j  c #E3265B",
"k  c #DD1862",
"l  c #F11F62",
"z  c #CE2361",
"x  c #D92A66",
"c  c #D83667",
"v  c #EA2564",
"b  c #F52368",
"n  c #FB236A",
"m  c #E9356F",
"M  c #F43475",
"N  c #8E7656",
"B  c #B1724B",
"V  c #B97658",
"C  c #BD7B67",
"Z  c #D85948",
"A  c #CE4E50",
"S  c #E3524F",
"D  c #D46E4F",
"F  c #E96F4D",
"G  c #E67B45",
"H  c #D25271",
"J  c #E74C70",
"K  c #E55777",
"L  c #CF7071",
"P  c #E66D72",
"I  c #BC831A",
"U  c #B78634",
"Y  c #CB8418",
"T  c #D58517",
"R  c #D58818",
"E  c #CC901E",
"W  c #D7951A",
"Q  c #E29913",
"!  c #DCA11E",
"~  c #E5A817",
"^  c #EAB71B",
"/  c #F1BD14",
"(  c #C68827",
")  c #D59925",
"_  c #CF9031",
"`  c #E88C37",
"'  c #F5843E",
"]  c #FB863E",
"[  c #F58C3F",
"{  c #FC883E",
"}  c #D6A52F",
"|  c #DAA638",
" . c #E5AC26",
".. c #E9B527",
"X. c #F2BB25",
"o. c #E1AD39",
"O. c #E7B736",
"+. c #F0C51D",
"@. c #F3C926",
"#. c #F0CD2D",
"$. c #F3C838",
"%. c #F7D938",
"&. c #FBE838",
"*. c #BA9051",
"=. c #BA846B",
"-. c #D1914C",
";. c #C7875A",
":. c #E88747",
">. c #F38744",
",. c #FA8D43",
"<. c #E79749",
"1. c #F8944A",
"2. c #E88957",
"3. c #EB9756",
"4. c #F39956",
"5. c #D5AE54",
"6. c #E5A849",
"7. c #E4B94A",
"8. c #E9A65A",
"9. c #F6A458",
"0. c #FDAD5D",
"q. c #E4B957",
"w. c #FFB25F",
"e. c #C7846A",
"r. c #C68679",
"t. c #D28E70",
"y. c #D6977A",
"u. c #E58E6C",
"i. c #E89A67",
"p. c #D5A869",
"a. c #CEB16E",
"s. c #D9A577",
"d. c #F9AB62",
"f. c #E3B767",
"g. c #F7B061",
"h. c #FFB261",
"j. c #EAB271",
"k. c #EBC94A",
"l. c #F5CA45",
"z. c #F6D949",
"x. c #EBCA56",
"c. c #F5D656",
"v. c #FAE54C",
"b. c #FCF446",
"n. c #FAE855",
"m. c #FDF657",
"M. c #D7C26E",
"N. c #EBCF6D",
"B. c #F4D968",
"V. c #E9C87A",
"C. c #F5DC77",
"Z. c #FAE769",
"A. c #FDF865",
"S. c #F8E47B",
"D. c #FDF679",
"F. c #C95F81",
"G. c #D85D85",
"H. c #F34886",
"J. c #E85A86",
"K. c #EF588A",
"L. c #DB658A",
"P. c #D16B8D",
"I. c #DA7786",
"U. c #D77595",
"Y. c #E86788",
"T. c #EA698D",
"R. c #FB6B96",
"E. c #E87699",
"W. c #FC7196",
"Q. c #FB7499",
"!. c #F6789B",
"~. c #ED78A1",
"^. c #F67CA4",
"/. c #BD8E84",
"(. c #CC8E8D",
"). c #D69889",
"_. c #D78996",
"`. c #D8959A",
"'. c #E4938E",
"]. c #D8A783",
"[. c #DAB788",
"{. c #DBAA97",
"}. c #E9AD8C",
"|. c #E5B788",
" X c #E7AA97",
".X c #E8B996",
"XX c #DA89A7",
"oX c #D998A6",
"OX c #D597AB",
"+X c #E887A9",
"@X c #F587A6",
"#X c #E598AB",
"$X c #F392AC",
"%X c #ED8DB5",
"&X c #F98BB6",
"*X c #EC94B5",
"=X c #E49BB3",
"-X c #E89BB7",
";X c #ED95BB",
":X c #ED9BBD",
">X c #F896B9",
",X c #DCABB0",
"<X c #E6A7A8",
"1X c #E9B8A9",
"2X c #F1B8AE",
"3X c #E6A6B7",
"4X c #ECA2BD",
"5X c #EBABBB",
"6X c #F0A7BC",
"7X c #EBB5B8",
"8X c #D5D48F",
"9X c #F0D191",
"0X c #D4E092",
"qX c #FAE988",
"wX c #FDF587",
"eX c #F9E797",
"rX c #FDF996",
"tX c #D8CFAF",
"yX c #EDCEAC",
"uX c #F3C8B8",
"iX c #F4D7B8",
"pX c #DBE6AD",
"aX c #DEE9B2",
"sX c #F8E5A6",
"dX c #FEF9A8",
"fX c #E2EDB1",
"gX c #FAE6B9",
"hX c #E5F0B3",
"jX c #EE98C2",
"kX c #EE9DC2",
"lX c #F799C2",
"zX c #EDA3C4",
"xX c #E5A8C2",
"cX c #EDAAC5",
"vX c #EEA5C9",
"bX c #EEABCB",
"nX c #F4A5C7",
"mX c #F0ACCD",
"MX c #EAB5C6",
"NX c #EEB2CD",
"BX c #F3B4CD",
"VX c #EEAED1",
"CX c #F0AED2",
"ZX c #EEB4D2",
"AX c #EEBAD4",
"SX c #EFBCD9",
"DX c #F0B4D3",
"FX c #F3BAD6",
"GX c #F7C5C5",
"HX c #F0CBD3",
"JX c #F3C7DA",
"KX c #F7E7C2",
"LX c #F8CAE1",
"PX c #F9D5E5",
/* pixels */
"bXCXvXmXvXSXjXvXCXkXvXDXvXvXvXkXvXVXkXkXvXbXvXvXSXjXkXvXvXvXkXvXkX,XC r.xXmXCXvXbXZXbXZXDXVXkXSXvXbXSXSXmXmXvXmXCXFXCXFXmXkXvXSX",
"DXmXvXvXmXDXkXCXVXCXbXjX@XjXCXkXvXvXjXvXvXkXVXZXvXkXvXvXkXkXZXjXvXVX`.6 ;.kXjXVXNXcXvXVXbXVXvXbXbXvXSXvXvXDXkXmXSXkXmXFXvXCXmXmX",
"SXkXCXVXvXmXZXVXvXkXvXvXjXZXkXjXVXVXvXZXvXkXSXvXjXVXvXkXjXzXkXjX;X`.(.C V cXZXvX5XMXNXGXzX:XvXbXVXVXvXmXCXkXSXCXvXjXvXSXFXCXnXmX",
"CXvXmXSXJXvXZXVXvXkXCXjXCXZXVXZXZXZXvXvXjXxXVXvXvXjXkXkXvXkXkX_.V 3 : : 6 *.(.xXiXgXgXiXuXvXZXZXZXDXvXDXbXkXmXbXjXVXzXFXbXvXDXDX",
"DXvXbXCXSXCXbXbXvXSXvXkXkXbXZXbXZXZXvXkXvXVXvXVXvXjXjXvXVXoXB % = 8 w w > 0 Y ;.1X2XBXbX<XbXkXjXkXkXkXjXjXmXbXDXkXkXVXDXDXbXvXDX",
"SXkXzXZXZXkXSXZXVXZXbXvX%XVXbXzXZXvXkXzXkXvXvXbXVXkXjXxX=.1 @ = w R T R T 9 R 0 ;.-XbXcX3XbXzXkXvXkXvXzXzXkXbXFXDXvXbXLXFXZXvX;X",
"DXvXDXkXZXZXvXFXvXVXvXvXkX;XVX:XbXVXvXjXkXxXxXkXjXzXvX(.1 O O 8 T T R R T T R T ( t.4X$X|.<X:X3X5XbXkXvXkXFXkXDXFXFXSXCXDXDXmXzX",
"vXmXCXkXVXbXbXbXAXzXkXvXkXjX:XbXxXjX-XvXkXbXjX:X*X:XjXC $ O * w T T R T T w q E W ( ].1X.X2X7X,X.X<XbXZXvXDXZX:XbXzX;XmXmXkXzX;X",
"*XbXvX:XkXkXkXZXvXjXbXkX:XzXbXkXbXvX;X%XkX=X=X3X-XOXoXB & . = T T T T T R 0 , W ) R -.Z.C.9XN.N.x.s.=XSXkXvXVXVXZXbXZXbXZX:XzXmX",
"mXmXCXAXvXVXvXJXbX%XcXAXvXZXbXkXkXbXzX3XoX<X9XyX<XyX|.4 + & = T R R T T q 0 < T W W ( k.z.x.c.k.f.OX=XxXZXkX-XbXJXbXkXbXDXDXkXZX",
"bXzXzXZXvX:XkXkXkXbXxXtXtXHXAXbXxXkX%X{.9XC.eXfXsXeXk.# & & * 9 q q w q Y _ _ 8 T R I  .O...o.q.{.vX-XkXZXVXvXjXVXbXbXvXNXzXkXmX",
"vXZXbXbXSXbXkXkXkXvXZXxXaXaXaXtX7X=X4X8XN.c.qXrXZ.k._ + * = > , 9 q w T ` w.1.8 0 Y < ! 5.5.| p.oXkXbX=XkXxXvXbXjXZXbXvX;XbXvX:X",
"bXkXvXvXbXbXzXbXbXZXkX;XxXaXfXaXpXpXtXV.z.B.B.7.5.5.6 > 8 8 8 < 8 w ` 0.g.w.0.w 8 < U M.8X| ) t.=X3XxX3XxX3XvXvXDXbX<XzXbXVXkX#X",
"kXzXZXbXVXzXzXvXkXkXzXvXvXtXaXhXhXfX0X8Xz.Z.*.a.5._ Y Y T , +   7 0.h.h.w.w.0.-.< 0 U M.} W Q -.(.).(.y.s.,X-XjXNXmXmXjXbXbXvXcX",
"zXvXzXvXZXbXkXcXzX;XkXvX-XMXfXfXhXhXaXpX0XM.U ( Y Y Y W ( r 6 N N 4.h.w.w.h.w.t r ) < I W ! Q Q !  .5.5.a.s.3XjXAXbXvXvXcX5XzXkX",
"CXVXzXZXkXbXzXkXvX:XkXxX;XzXtXfXhXhXfXpXpX8X> T Y E O.I 9 ] 0.g.s.p.h.w.w.8.B N % k.) < Y W ^ ~  .O.q.M.M.V.<XkXkXVXbXVXbX-XkXkX",
"vXvXvXNXkXzXzXbXzX*X;XvXvX-XtXfXhXhXhXhXhXa.> 0 ) l.( @ - G 0.0.h.g.w.0.0.-.B B # O.k.I 0 Y ~ O.x.q.{.1X9X8XyXxXNXvXbXzX;X2X6XFX",
"VXkXvXbXAXAXzXzXbXcXbXzXkX-XtXaXhXhXhX8X*.# = I l.| + @ & 2 3.0.4.9.9.9.8.w.9.e # o.z._ ( _  .~ ^ $.|.zX3X9XC.V.kXvXvXzX%X}.2XFX",
"vXkXbXkXbXNXbXbXcXbX:XzXvX3XtXaXhX0X*.: + O = < l.< + $ $ 6 <.3.2.A L D 3.<.7 - # o.l.a.-.-.k.~ ~ ^ #.V.2XiXqX9XkXzX7X6XZX:X#XcX",
"kXvXbXvXkXzXzX*XkXbXzX;XzX:XtX8X5.1 # # 2 t 9 , o.> & : : 3 ].2XB t t D 7 - + 5 L k.5.{.5.M.Z.@.~ @.k.C.qXeXsX6XkXcXyX:XvXvXbXmX",
"cXcXbXNXNXbXNXzXvXcXcX*X:XoX*.4 * * + 2 p ] ' w _ _ y ` :.yXLXJX{.u.9.9.:.6 V _.5.7.).oX[.dXqXz.^ #.z.S.n.qXuX4XjX1X1XkXzX:XkXkX",
"cXvXkXvXbXzX4XzXcXvX4XoXr.4 + * * + & 2 ' ] ,.1.8.` 3.9.i.GXPXPXGXh.h.0.| <.i.e.-.t.xX,XcXgXrXZ.%.+.%.%.z.9X5XMX5X<XzXbXzXzXzXjX",
"-XcXAXNXkXkX*XcX3XXXC 4 % % + + + + & - u { ,.1.h.h.9.9.g.}.GXuXh.h.g.0.8.9._ D (.kXbX;XkXGXsXqXv.+.+.%.c..XcX7X.X:XZXZXmXcXkXkX",
"DXvXcXAXvX3X3X_.C 1 % 5 5 : O O & & & & 2 ] ,.1.h.9.9.d.9.w.h.h.h.w.4.D 3.0.2._.OXXXbXxX;XjXuXeXZ.%.@.&.B.1X4X5X X4XjXbXDXmXzXvX",
"cXNXzX:XkXOX=.: $ 6 a.U % O O O & & . + - Z F F 2.4.Z J H '.u.u.i.u.I.T.Z 2.U.JXPXOXOXbX:XbXbXyXS.v.+.&.Z.yX<X:XlX;XzXzXcXvXbXzX",
"cXzXcXzXOX5 + 3 -.a.N $ O O O O & & & & . a E.^.E._.H d M E.kX:X=X;XBXBXG.h E.>XLXPXXXXX:XvX:XGXdXn.%.&.m.qX9X<X4XBXzXzXkXzXzXzX",
":XzXzXr.% $ *.a.a.6 + + O & O @ & O O O O . A ^.lXlXHXH x m E.nXnX+XDXnXL.G.U.U.&XFXLXOXOX:XjXZXgXD.%.@.%.n.qX.X7XAXZXbXzXcXvXbX",
"zXxXL % 1 C [.M.U + O O O O O @ + O . O O . . A &XlXDXxXd d m Q.!.~.;XG.G.;XbXXXP.+XNXJXOXXXmXzXKXrXm.&.#.$.C.V.3X;XvXkXkXkX%XNX",
"bX(.% % (.3X[.-.# + O O O O O @ + . & O O O . ; H &XlXLXU.s c ^.XX-XU.U.+X;XkXzX#XP.E.lXcXOXoXXXMXdXwX&.@.#.c.V.<X:XNX5XkXjXvX:X",
"=X1 O C vX3Xp.1 + + O O O O O O + & O O - & 8 w X J &XnXJXG.G.$X=X_.XX;XzX:XzXbX:X-XU.P.U.#X7X).L j.8.q.6.O.x.|.5XcXzXzX%XbXVXvX",
"r.% 5 =XkXcX*.+ @ O O O O O . @ & O O O O 8 T w o z J &XBXBXU.XXG.F.zXzX:XzX-XkX:X#X#Xr.u.3.2.:.>.>.9.d.<...x.<X7X#X:XvX;XkXbX*X",
"e.% (.jXkXoX5 O @ O O O O O O @ & . O O = T T 9 s s s G.&XFXMXP.J G.XX*X3X#X_.'.u.i.:.:.:.>.' ] ,.9.0.8.$.X.q.]..X#X`._.`.oX#XjX",
"=.B 3X:X:X(.% @ O O & O O O O O + . . & , R R t z k k d J.lXBXJX=XG.c A D u.3.>.:.u i ' ] ] ] 1.0.0.8.o.^ ..! | C 6 < 0 < r 7 r.",
"r.r.=XzXkXr.@ @ @ . O O O O O O & & + + 8 Y e h x k k k x T.>XmXPXLXoXD <.:.{ i u ] ] ] ,.,.9.0.0.:._ E I I E 5.).(.;.< Y q q > ",
"(.`.cX:X:XC @ @ + & & O O & O O + & . & 8 e h g s k s k x h J.@XlXFXPXJX'.G i u ] ] ] ,.,.0.w.d.u.t ( E } $.^ f.|.<X<Xy.r T Y 6 ",
"=.=.bXkXzXV @ + * * + . O O O O & + + & X A W.T.x s s c L.E.+XH K E.&XBXLXBXr.G p ] ] ,.0.h.4.'._.[.N.v.~ ~  .5..X3X4XzXD q q e.",
"r.5 7XxXzXr.@ + = + = O O O O O & . & 2 K W.W.T.J H G.*XnX>XW.S p F S P E.%XBXMX'.2.G 2.3.u.L U.,X9XB.$.E < ) 5.].4XxX_.U < ;.=X",
"oX1 C =X:X(.% @ = + + O O O O O + . X K.!.T.Y.Y.G.+X6X@X@X@XY.e ] { { p t F F P <X7X2Xt.H ~.XXXXOX9Xc. .E U ....5.j.t.r < e.+XzX",
"bXB $ B `.`.4 + + * * + O O O + . X K.@XQ.J.Y.+XQ.@XQ.W.Q.>XT.Z { ] ] i u ] ,.u e H NXJXE.>XP L r.a.k.R < ! E W 5._ ( e.`.jXxXVX",
"bXoXB % # 1 : # * * * * O O O O X T.@X&XQ.K Y.!.Q.Q.Q.Q.!.Q.!.Z ] { ' u ' ,.] u i Z %XPXU.P G ' :.:.:.-.y | o.} } 5.`.-XvXkXkXzX",
"bXcXcXoXr.V B B # @ O O O @ @ X Y.!.!.W.K.T.@X@XW.W.!.@XW.W.Q.J p ] u p ] ] ,.1.G Z K cX_.Z i u i i i i G :.2.3.7.y.`.cXcXkXvXvX",
"cXvXbXzX4X3X#X5XV % @ O O O $ X K.Q.!.!.!.W.!.W.W.Q.@X@XQ.Q.W.Y.u u u ] ,.,.1.G Z L.D P T.S p { ] { ] { ] ] [ ,.<.3.i.'.*XbXvXkX",
"NXAXcXcXcXbX#XcX X5.6 # @ @ @ . A E.$X@XQ.W.W.!.W.W.W.!.W.Q.Q.W.Z u ] ] ,.1.y Z A D D 3.F A u ,.] ] { { ] { ,.1.9.0.d.u.#XjXkXkX",
"cXcXNXcXcXHX4X5X|.q.O.) Y I > : 1 A T.W.Q.Q.Q.@XW.Q.Q.Q.W.!.$X!.D i ] ,.<.G i y D 2.-.:.F e u ,.] { ,.1.1.9.4.d.3.s._.-X;XkXjXjX",
"4X4X<XNX:XcXvXMX,Xf.f.q. .+.W ~ #.#.D Y.!.Q.Q.@X!.Q.W.W.W.!.$XW.F >.,.:.G u u ' u G >.' ] i ,.1.1.4.9.9.8.8.y.'.=XNXbXxXvXzXzXVX",
"6XcX3XcXcX:XbX4X<X].oX<X5.^ ^ ~ #.v.c.y.L K.J c K W.Q.^.!.W.!.F >.,.>.G i >.,.] ' ' ] >.>.4.8.8.q.7.| | q. X`. XcXcXvXzXzXbXvXkX",
"cXzX4XNXcXzX-X#XoX7XMX5Xs.! .. .r A S S h g j l j m T.!.Y.P D G ,.:.>.G ] p ' >.:.2.s.}..X9Xj.B.v.O.W x..X>X3X5XcXcX:X:X:XcXcX%X",
"4XxX5XzX4XzX:X3X3XbXxXxX].} } r c J J g j l n n v f j v S e u ,.2.G :.2.u.'.'.#X*XuXKXiX9XeXS.Z.z. . .f..X*X*XzX4X:XkX;XbXvX%X:X",
"cX3XOXOXxXxXxX=X4X:X3X=X[.-.-.D h c v b b n n n M M M j A f j F A _.3XzX4XzXzXmX:XuXyXsXeXqXB.c.$...6.}.3XnXmXzX:X:XcXzX:X;X;XkX",
"NXMX(./.MXNX3XvXcXMX7X.XL h g j l n n n n M H.H.L.I.I.c d n K T.F.=XcXkX:X*X*X*X6XyXyXeXC.c.c.%.@...j.'.:XzXcXzXcX4XnXNXbX%XkXvX",
"bXxXOX(.OX=X4X;XMX5X<Xt.h v n n M H.K.J.Y.L t.s.|.).L g b R.U.1XGXxX5XMXMXuX6X;X7XsXqXC.B.l.z.%.$.j.7X:XmX:X*XkXmXmXzXzX:XkXNXkX",
"bXZXkXXX(.]. X3XcX Xp.A f b n M R.H _ | k.n.n.N.D v l n H.&XL 9XyXuX7XuXsXiX9XyXsXqXwXZ.n.c.%./ 8.cX:XVXkX:X;X:X:XcX:XbXbXbXkXcX",
"bXZXNXxX(.y.5.V.|.V.;.g f n n n J Z ..~ X.v.n.D f n n n R.&XL C.eXeXsXeXeXeXqXqXqXS.Z.z.c.z.@.7.7XnXbXcX%X%XkX:X;XzXkXNX:X*XkXvX",
"zX4XNXAXMXoX,Xx.M.f.L g b f j b g R ^ ~ ^ #.v.Z f n n n ^.E.t.Z.rXwXqXqXeXqXqXC.B.Z.m.c.$.@.O.$XzXzX:XbXzX:XzXvXzXcXbXjXkX;XkXNX",
"NXzXcXcXZXcXNX<X}.].3XU.c g g h (  .~ ^ X./ ..g d n n M ^.L x.D.wXqXwXwXwXwXD.Z.A.m.n.v.%.l.<X4X:XzXzXbXkXbXzXbXkXkXkX%XkXzXkXbX",
"AXNXZXAXZXbXMXbX4X5X4XcX*X_.I.t.f.7. .~ ^ / t g f n n H.^.e.m.D.D.wXdXdXrXrXD.D.wXm.&.&.B.$XnXAXbXzXNXzXzXbXzXbXmX*XkXmXcXbXZXvX",
"FXNXzXcXNXZXNXcXNXzX:X4X4X6X5X X.Xf. .Q ^ ) h g v n n R._.q.m.A.D.wXiXBXKXgXdXD.m.&.b.9X6XnXMXmX:XzXvXbXbXzXNXAXAXbXZXbXzX;X:XzX",
"AXNX:XNXNXAXNXbXzXbXkX3X4XcXxX,Xs.].7.| 6.A x c n n M ^.L n.A.D.rXdXiXuXgXdXrXA.b.b.C.cXnXMXzX4X;XzX*XkXzXbXbXkXbXzX:XzX:XkXbXbX",
"NXbXbXcXbXbXbXcX4XzXcXzXzXzXnX1Xp.].5.q.f.r.c v n n M @XI.q.b.m.A.D.D.dXdXwXwXeX9X2X<XzXcXcXcX4XkXZXbXNXNXbXzXzXNXbXbXbX;XzXAX:X",
"bXAXbXNXzXcXmXxXBX4XbXHXbXbXvX3X<X=Xs.a.<XoXA j n n H.&X>XE.e.N.m.Z.D.sXiX2X6XzXkXmXmXmXBXnXbXNXzXcXbXbXzXZXNX:X:XzXVXvX:X:XCXbX",
"AXJXNXZXZXZXbX4X:XNXbXNXAXbXcX#XoX3X3X).(.{.y.g n n H.&XlXlX~.F.1X<XAXMXBX4XcX6XbXNXkX;XNXcXzXbXbXNX:XkXvXbXkX;XkXzXbXZXZXzXzX:X",
"bXAXbXbXbXcXAXzXzXbXzX4X4X3XcX3X=XcXAX=X(.{.{.L k n n H.J.J.~.H +XBXcX4XcXbX:XzXMXBXNXNXbXbXcXzXzXbXkXzX:XzXzXkXbXzXZXZXbXFXAXZX",
"bXAXJXJXzXbXbXzXNXNXZXbXzXNXzXNXMXNXbX4X,XMX5X,XH x b n b M ~.H 4XcX4XnXcXzXNX*XbXNXzXzXzXzXbXNXbX:XkXbXBXbXbXzXNXkXbXbXNXZXbXZX",
"ZXJXNXbXbXbXAXJXzXcXJXNXNXNXzXcXxXcXcXxXbXNXbXAXvXF.c c z c P.XX4X4X4XzX:XzXBXcXzXcXbX:XNXNXNXbXzXAXbXbXnX;X4XAXkXkXbXZX:XzXbXvX"
};
