/* XPM */
static char *floor[] = {
/* columns rows colors chars-per-pixel */
"64 64 130 2 ",
"   c #CF7FB3",
".  c #D67FBD",
"X  c #CD86B9",
"o  c #CE8CBC",
"O  c #D281BD",
"+  c #D38DBD",
"@  c #DA8CBF",
"#  c #CF92BD",
"$  c #D393BE",
"%  c #DA91BF",
"&  c #CD8EC1",
"*  c #D586C4",
"=  c #DC87C5",
"-  c #D38DC3",
";  c #DA8CC5",
":  c #D78DCA",
">  c #DB8ECB",
",  c #CE93C4",
"<  c #CF9AC4",
"1  c #CF9ECB",
"2  c #D394C4",
"3  c #DC94C4",
"4  c #D59BC5",
"5  c #DC9CC5",
"6  c #D594CA",
"7  c #DB94CB",
"8  c #D49CCA",
"9  c #DB9CCB",
"0  c #DA8CD1",
"q  c #D796D2",
"w  c #DD95D3",
"e  c #D79CD2",
"r  c #DC9DD2",
"t  c #E18FC6",
"y  c #E38DCB",
"u  c #E293C5",
"i  c #E29BC6",
"p  c #E394CC",
"a  c #E992CF",
"s  c #E29CCC",
"d  c #E588D2",
"f  c #E98FD2",
"g  c #E395D3",
"h  c #E895D5",
"j  c #E49CD3",
"k  c #E99CD5",
"l  c #E594D9",
"z  c #E896D9",
"x  c #E59CDB",
"c  c #E99DDB",
"v  c #D6A1C6",
"b  c #DBA1C7",
"n  c #D5A3CC",
"m  c #DBA3CC",
"M  c #D4AACD",
"N  c #DBABCD",
"B  c #DDB0CE",
"V  c #D6A5D1",
"C  c #DCA4D3",
"Z  c #D6ABD2",
"A  c #DCACD3",
"S  c #DEA4D8",
"D  c #DCACD9",
"F  c #D7B1D4",
"G  c #DDB2D4",
"H  c #DDBAD5",
"J  c #DEB4DA",
"K  c #DEBBDB",
"L  c #E2A3CD",
"P  c #E8A4CF",
"I  c #E2AACE",
"U  c #EAA8CE",
"Y  c #E1B1CF",
"T  c #E4A4D4",
"R  c #E9A4D5",
"E  c #E3ABD4",
"W  c #E8AAD5",
"Q  c #E5A4DB",
"!  c #E9A4DC",
"~  c #E5ACDB",
"^  c #E9ABDC",
"/  c #E3B3D5",
"(  c #E8B2D5",
")  c #E3BAD6",
"_  c #E9BCD6",
"`  c #E4B4DB",
"'  c #E9B3DD",
"]  c #E3BBDC",
"[  c #E9BADD",
"{  c #E79FE0",
"}  c #DFB7E0",
"|  c #DFBBE0",
" . c #E5A4E1",
".. c #E9A5E1",
"X. c #E6ABE2",
"o. c #EAACE2",
"O. c #E6B4E1",
"+. c #EAB4E2",
"@. c #E4BCE1",
"#. c #EABBE3",
"$. c #ECB5E9",
"%. c #EBBCE9",
"&. c #F0BBE8",
"*. c #DFC4DD",
"=. c #E2C3D7",
"-. c #E4C2DD",
";. c #E9C3DE",
":. c #E6CADD",
">. c #EACADF",
",. c #E5C3E2",
"<. c #EAC3E4",
"1. c #E6CAE3",
"2. c #EACBE5",
"3. c #ECC3EA",
"4. c #ECCCEA",
"5. c #F1C3EE",
"6. c #F1CCEB",
"7. c #EAD2E6",
"8. c #EBD4EA",
"9. c #EDDBEC",
"0. c #F1D5EC",
"q. c #F2DBEE",
"w. c #F1C7F0",
"e. c #F3D6F3",
"r. c #F3DDF2",
"t. c #EFE3F0",
"y. c #F2E3F3",
"u. c #F3EAF4",
"i. c #F9F4FB",
"p. c #FBF9FC",
/* pixels */
"D D J J 1.D D D | } | } D J } S S S 3.} ` #.} ` #.X.x @.@.! 6.+.<.O.Q #.5.^ 3.%.3.#.+.o.! o.c ....! X.Q c ....Q Q { X. .w x 0 0 ",
"A V J S | D Z D K J 4.J S X.3.<.#.,.<.~ @.@.O.` @.@.X.3.3.#.0.o.<.Q X.+.4.#.+.' +.#.X.c $.X.R o.+.X.X.....x x X.{ w  .X.X.w w  .",
"J S J D V S } J J A J @.O.J } ` <.@.D O.@.~ ~ O.` @.#.@.#.6.<.' O.O.+.@.%.o.$.( #.+.^ o.X.Q o.o.O.%.+. .^ +.X.c ..O.$.O.}  . .@.",
"8.D C V V S D J J S @.3.1.@.C ~ ,.,.@.` ~ ` O.@.Q X.#.X.Q 3.` O.%.%.^ O.O.$.^ ! <.$.^ +.X.^ $. .! o.o.+.X.5.o.c .. .X. .X.X.{ x ",
"K | J V } J | | J ,.~ @.D @.D ~ <.@.J O.#.@.~ ! ~ %.#.+.@.+.^ #.6.%.^ +.%.$.#.! ^ q.3.<.+.o.o.o.^ o.c ' w.5.&.$...$. .O. . . .x ",
"S J Z J D D 8.-.J 8.1.K @.] ` D S #.O.@.<.` O.` ~ ` %.@.` [ ` <.6.X...~ ` ' +.o.$.^ #.$.$.c +.o.X.....$.y.p.w... .X.+.X.{  .w l ",
"V Z S e J 1.K @.1.| -.J 1.O.O.O.~ ` 4.O.X.` ~ Q ] Q x [ #.Q Q +.^ ! #.+.+.! ' <.+.^ ..+.$.o...! +.$.o.$.&.5.&.o...%.%. ...X. .x ",
"J | ,.S D D C C K } J J ,.,.` ` ` @.` ] @.@.~ #.O.#.<.~ ~ 3.+.O.! #.( ^ ' ^ +.+.^ 3.$.<.3.+.^ $.~ +.#.^ $.+.R ' X.+.{ X. .Q  .{ ",
"| } 8.D S A | } @.@.] 1.] O.| ` ` ~ Q T ] ] #.` 1.1.3.<.' ] +.r.<.,.^ ^ ! ( X.k o.o...&.' ^ ^ ^ c o.&.$.c ..c o...+.o.^ x x ..c ",
"*.S D K D *.O.,.,.J ~ @.,.<.7.%.O.@.~ ~ ~ E ~ ' [ #.' ,.+.^ ~ ^ ^ ^ <.[ ' ^ +.+.<.#.+.' <.#.! +.! +.<.&.o.%.o.c $.o.&.o...X.O. .",
"D J | @.#.@.,.C ` S 3.,.#.r.4.8.` T ~ ` <.Q #.[ ~ ,.~ #.[ ' #.~ ~ ' ^ ^ W o.+.+.[ +.[ ' [ &.^ R +...+.+.&.+.c c  ...! X.{ Q w ..",
"D ,.@.y.y.J -.~ @.@.` ` O.9.1.K ` #.` +.` ,.` ` 2.#.#.' ` ! ' / <.^ ' <.<.<.^ R +.^ ! ! R %.#.#.$.! ^ o...o.&.^ x c Q X... .X.%.",
"D K K 8.1.O.J ,.r.9.,.S ~ 1.@.` @.<.@.` <.4.#.` #.( ` ` ` 4.~ ^ ,.#.^ R ' ' 0.<.&.[ ^ ' +.+.o.&.k ^ ..^ ! o...o.o.$.x ^ X.o.Q x ",
"D D J ,.1.,.D ` ,.4.] J ` 1.@.<.] O.,.<.2.4.8.[ ( ~ ` ] ^ T #.( [ 1.@.( ~ ^ ' 2.0.' ! R ' &.' ^ ! #.#...o...! &.+.....X.5.o.! z ",
"@.D J } ,.@.C ] @.<.] <.,.,.O.K ` ` ~ -.` 0.,.' ` #.;.` [ E ` ~ [ E ~ [ ' ^ R +.&.+.[ o.&.[ k k ! +.#.&...! ....o.c Q c { l Q ..",
"1.D 1.9.J S ` -.,.] 1.,.~ ,.,.,.] 1.] ` E ~ [ [ E [ ` ~ O.( W R ( W ^ ^ ~ ' R R ^ &.W ^ ( ! R #.' ..! o.o.....o.{ o...X.X.$.X.+.",
"8.} ,.1.1.1.J D @.] <.7.J <.,.] ` ,.@.` @.] ;.) ] #.<.( ) ,.T E ] P ^ ' ( +.^ R ' R ^ ^ R +.&.+.+...o.^ ^ ^ ..! o.o.r.o.c ! c ^ ",
"8.J D | } 1.` ` ~ ,.,.1.J J ,.] 1.` E ] ` ` E ' ;.1.2.[ W ' ^ +.<.P W ) #.>.[ ( ' ^ [ +.R +.<.^ [ +.$.#...+.$.^ ^ ^ 5...c f c ..",
"*.J <.,.@.J ` 1.] / ` 1.<.` ] ] ,.,./ / ` @.] ` ~ E E T ;.<.E ] 6.^ T W ' ~ ' ' ' #.^ ' ^ ^ ^ k &.<.c ! ^ +.! ! c ....$...c o.! ",
",.1.,.1.,.} 1.<.K S ` ,.` ` ` @./ J / T E E ' 2.E R ) ` 6.' E E [ / ~ E ( +.E W [ #.<.' ' &.' ^ ' <.&.^ ! ! ! c ! ..! ..o.+.c ..",
"8.t.,.,.,.,.J J ` ` ] ` ] 9 / -.] E ` ~ -.E ] >.] ,.<./ s ` E T W [ L E ^ W W k ! ' R ' #.6.! ! ^ ' +...k z ! ..! ..c ! o.o.o...",
"} 4.u.8.K J A -.,.] -.K ] @.] ] ,.,.] D ` E ` ) ,.-./ E E ` _ E ` -.E ^ E ^ ( <.<.^ ' #.' +.^ ^ +.^ &.! o.c o...c ^ c ^ ! z ! $.",
"@.1.9.1.] @.J ] *.A C ] -.1.` D ] / / E +.E ` E / _ / / _ #.#.E / _ P L E R R R [ #.R ^ T c ! 2.&.R ' ^ ^ ^ +.o.x h ^ %.o.x c ..",
"1.1.J ` G ] ] } ] ] ~ ,.7./ ] / S ] -./ ) ) ] -./ I L / E 2.0.` ^ E ` / E ' R u R <.' R W ! ^ 6.! ^ ! ! ..&.! [  .X.+.^ ^ +.' o.",
"t.1.1.J J D ] 9.-.:./ -.] C ] / ` ] / ] N E / H E E I ] ;.;.-.' _ / ) P W ` ( E ( ' E ' / ^ ! [ #.^ W ^ +.+.o.+...X.^ ! ! ..R ! ",
"u.3.8.J ] J J 2.1.D ] D ] E G ] 7.H N ) / B / ] N ] 7.) -.L E E L W [ <._ W i W E W ( R W ^ ( T ^ R ^ R ^ #.$.&.^ ! o.o.o.c { c ",
"1.,.} K D K K ` 1.A / ] A E / -.] E L I D / m / :.] -.) ) / 6.#.E W [ ;.[ W ' [ W W R W R R ! R ! k ^ h ^ #.^ ^ c o.#.! ! !  .X.",
"7.| D A ] J ~ ,.D :.-.A ] <.J ] 7.] ] b b / / N 7.) I / E E q.<.q.0.E E T s ( ;.-.P R <.^ W [ R ^ ! ^ k ! k o.f c c ! ..z o.%...",
"K D @.,.1.K ,.8.:.] ,.] 8.1.5 E ] 8.-._ 1./ / / L ` / Y / / s E 7.2.P _ / [ _ _ W P ( W k W ^ R W &.' ^ ! ..^ &.+.X.^ ^ ! c ! X.",
"O.` } 8.1.-.*.` @.` T 1.] / G 1.1.2.] ;.:.G N Y m m m N b I / i ( E L E I U _ / U ;.^ ` R <.' ^ [ e.e.&.' o.^ ^ ! o.Q X.z k X.o.",
",.*.A 1.1.] -.] 4.r.1.] <.G ] N / / I G ) m m ) I b I / Y ) _ / W ( _ E W I E P ( ( U ' ' [ R ! [ &.' [ +.k #.! k R $.c R o.X.^ ",
"K ,.@.J G m K 1.y.i.4.m -.G D E B N G N / B N 7.-.m B >.Y L m E L [ <.) L _ E E W U ' ' ( 6.! W ' +.^ ^ ^ &.! ! z o.~ ! z z c z ",
",.K 7.1.,.*.] ` 3.2.] N G E A F G 5 G 3 G N Y :.B B b Y B I E I Y u i W W ` / ;.W ' ( P _ [ ' R ^ k k ! x ' k k k R ~ ! o.! X.d ",
"1.K ,.| 8.9.,.2.E 9 A D ] A N N 5 I :.=.N N E N N Y $ L Y I I b _ / E E i i i E s L k ! W k ' R W ^ c R R +.Q k h ! k x ~ X.X.' ",
"K M C @.r.u.,.1.] J A K ] N m b A q.:.m B ) ) :.N Y / N i L N L I ] I E i i E E E s P ' ^ P R ( ^ <.^ h R ^ ! Q ^ k c c h z k +.",
",.*.A ] ,.1.9.1.1.K E ] 4 n A N Z :.:.=.G :.=.N H Y =.b Y b / I E L L I i I ) i s W W T T ' ( j T ' k R T R c +.! ! R +.Q R Q x ",
",.Z G K -.9.1.A H G ,.] 5 5 5 E H ] ] A N I v b b Y $ L Y =._ L G L i L i I W W L L s s p u T R P ( R R ^ ^ o.R ! c +.^ ^ ! ~ X.",
"1.Z ] ` 1.J V ] Z D 8.B v b N :.B m b G H N v B B b Y Y b :.;./ 5 I L I ( E / L L T L R W W E [ R ^ ! h R ' ' ^ W ` c Q X.~ x +.",
"] V A J M 6 *.-.-.*.G m n Z K ) v b N N M v / N B I / ) B N ) / I L E 9 i T ) E E T E ~ i R E ^ x E R i R ' ^ k k ^ x Q ~ Q x Q ",
"C J A V K ,.1.F *.N G B G B N B 8 B N 9 m m 4 N H 3 N / B Y m / b L u E 5 L j W L P W L p L k j W j s p R O.x W k R R x h k x x ",
"K J A 8 S 1.*.G A N V G N n Z J 9 A B N A b 3 b B N :./ b E E / % L m I i i E i I / W E T ~ T j R E W R ^ T j Q ' g a R R Q k x ",
"| F F G Z -.H K F m A A 4 m K E ] m / N N m v v N v m 3 B 5 Y b I Y 5 L I E i j i ( E s p s W R ^ W W h R R k c ^ g p k R c Q k ",
"9.V A A ` t.,.D F Z m N N H m A ] ] ] m v m N *.H m / G A E m G ) / T E i C T L W u j ( [ <.T ~ ^ x T y R g W T ^ p k g Q ~ x ! ",
"u.] C S J 9.,.A ` H M J V A G ) ,.p.7.N B m 4 H G ] ] 3 b 5 A ] N E I Y I I I I [ L s ` E j R R j s W W R R T k j p h ~ Q h j ~ ",
"1.K V | A ,.] ,.A b ` ] G 9 m ,.:.r.1.m m N N N 5 E E N ) ) I ; / 5 L 9 T / I T E i i E E ` W W R T R [ R T g p h ~ l g R ~ Q Q ",
"D J @.7.J ] p.9.A A F Z J G Z G J K / m m ) ) m 9 Z N m V ) / ) / E i ] ) E T s D E P t / ` T W s R W k T ~ R k ^ X.j R j x x Q ",
"J J @.,.O.1.t.<.1.n n Z N 4 N A F G v A N N A Z 8 B G N L L E ] E A b / ] p E / i P ` T R E k p p p ^ ( ] c y g j u Q ~ ~ x x Q ",
"V *.J V D 8.8.` A G -.B n m m N N m n G m B 4 u 3 / / v N 9 ; t C T ) L i i I ` s k E L L s E W ' p p Q Q R a g T ^ ~ j Q j p r ",
"V J K V K ] K / J J V m ,.,.1./ 9 n m ) n 4 N ] G A m N m m N 5 i 5 / T T E C i [ T s E E R ` ' W E x j ~ x p p g j ` x j r Q Q ",
"Z ] Z V D ] -.1.2.D 9 m K 9.p.] 2 4 $ m m b G 9 m 4 m 9 5 N / b m 9 3 u m L L i / L W E j u p ^ ' R p R c T g T p j x j ~ T j r ",
"Z D K m V J V @.8.9 v 2 m D 2.-.m v 2 4 A ` m 5 n m ` G 9 m A L i 9 ] [ i 9 5 / T L L L E p s 6.r.' R k j g p r s j j T Q Q w w ",
"V C F M K F J 1.,.A 8 5 m A E :.4 v m m A 8 2 D ] I 3 m m m b m R E E ~ P ) / / s T ` P T 3 E ' 5.6.x p C g g ~ Q T C Q g y C T ",
"N n M A F D ] 1.H J N m m V m M 2 V m ` A N B S y.,.C A m 5 A N 9 3 s L s P ] #.E R g E T ` T p k Q E ` R R ^ Q j s h r C 3 ~ ~ ",
"*.J K n V K V 4 8 ` 7.n 7 r n H n A A ;.N m m m ` ` m 9 b C T 9 9 3 5 E E 9 s +.] j s L j T T p ' ' x ~ Q T ~ p 7 j T g Q 0 x S ",
"V <.,.F M 1 1 2 8 C K n 2 n S A n 9 2.u.A 9 8 6 9 A m + 9 5 m s A ] s 5 9 s 3 j L 9 s ~ ` E E j R j k r S w u T j p w Q r = 7 r ",
"Z K F 8 8 < , n n 8 F M 4 A 2 n m 8 ` ,.,.n n 4 N m 9 2 9 2 C G m @.` T s m i L ` ` j T R T s S ` T r j ~ 9 s Q g r 7 j T T 7 w ",
"K V 8 K 1.Z 8 < C n n Z < n n n F 4 m m : 2 8 A 4 n 4 8 H v 9 C m 9 5 E E N T 9 / 7 E ~ s E 7 i C g > y j E T j ; j ` c r C r w ",
"8 8 , O.*.8 V < V 2 + , 8 Z F 2 n 4 n 8 V o 5 n 2 m 9 5 n ` N 2 G p m 5 9 E I 9 m T E E T ~ j j T p ; @ ; ~ : 7 7 r g r r x @.e ",
"1 V F Z V 1 , o , < 8 8 4 2 4 Z H + 4 , n & 2 n - 2 C A Z 3 3 8 ; b ~ S i s T E T T ( ,.r T 9 7 r A 7 7 T C > 7 7 r r 7 > ~ Q e ",
". e e 8 6 , < n 2 F V 8 n $ X 6 4 n 2 1 o 3 2 4 # # 4 2 9 8 8 3 9 A ~ y.E 7 ` 5 m r T ~ Q C 7 : s 3 7 ; p 7 7 = ; r r w 7 S r 7 ",
"J J 8 8 1 & - , n V , D :.V < < 8 - 2 2 4 L [ 2 6 2 + C ] 4 n ` 8 9 ~ <.C m T C 9 ; m 7 ; 7 ; 7 7 ; 7 T ; C 9 = r : : 9 7 w e ; ",
"J V 1 1 6 , V n 1 < 8 ,.F 8 1 1 K n 8 n r 8.9.n $ 7 m - 7 4 m C 2 2 S E j T 7 7 T 9 9 3 u 5 9 * r r ; S x 7 : 7 6 : r C : q e q ",
"3.F : 8 V n C Z 1 v n F , 2 & 2 1 8 q.F o D C 8 $ 4 S n . + n 6 V 5 9 C 9 ; 7 @ m 9 3 > 9 C 3 ; 7 7 9 r r 7 7 7 * 6 7 . : e C * ",
"r e 8 V e J , & , 8 n 2 n n , M & 2 ,.2 < 4 2 8 4 o , 4   4 n 3 8 6 - 3 4 5 ; % ; 4 3 i E 5 5 9 6 m r O 6 Q S : e : : 3 9 : 6 : "
};
