/* XPM */
static char *floor[] = {
/* columns rows colors chars-per-pixel */
"64 64 42 1 ",
"  c #ED86AE",
". c #ED8BAE",
"X c #F08CAF",
"o c #EF82B0",
"O c #ED8DB4",
"+ c #ED8FB9",
"@ c #ED94B6",
"# c #ED99B6",
"$ c #ED95BB",
"% c #ED9BBC",
"& c #F098BE",
"* c #EDA2BE",
"= c #EE96C1",
"- c #ED9DC2",
"; c #EE9EC8",
": c #F094C0",
"> c #F09CC4",
", c #EDA3C4",
"< c #EDAAC5",
"1 c #EEA5C9",
"2 c #EEACCB",
"3 c #F0A4C5",
"4 c #F0AAC6",
"5 c #F0A5CB",
"6 c #F0ABCD",
"7 c #EDB1C5",
"8 c #EEB2CC",
"9 c #EEB9CE",
"0 c #F0B4CD",
"q c #EEAED1",
"w c #F0AED1",
"e c #EEB4D2",
"r c #EEBAD4",
"t c #EFB7D8",
"y c #EFBCD9",
"u c #F0B4D3",
"i c #F0B9D6",
"p c #F1B7D8",
"a c #F1BDDA",
"s c #EFC2DA",
"d c #F1C4DD",
"f c #F1C9E2",
/* pixels */
"2q615p-1p15t,55;1q=;1211y=-q2;1;1q=;yqq11y2qqq-y1qyy2211eyqeq;,t",
"u6651e>5212&o:1,21=12-2y;=;1--q-1q221;=qq1112e1221e1;t11y;qt1e55",
"t;q155eq6;11-e,-2q1e1-r1-22;=,;==1=-1yeqqeqe1=12qq1qq-yq;=1ya016",
"q11td1eq1;2=qt2eee11=;1,2==-1-,+--,q;q111-qet1yqye1q2;18-q,y1-eu",
"e1,5yq2q1t1;=2e2er1;11;2;==1218=1q8qqq,21-2q82---;,==q1e--qww13u",
"a;,e8;te2t21O2q,e,--;212q--22$2;2--q;-qqr-1112,-,=1,,;qrp51fpe5$",
"w5t-ue1a1q,1;$2=22-==22--;1;1,e----11q2-,--=;--12q-1=y=eiuawe023",
">28;8212t,-1,=%21$=1,q-=+---,22;,28,,,-=12111111111e2ee-5-$26-3&",
"@21%-;-r2$1-%;2%<,=+--21;$--=,2--,81q,12<811=88-1$1s-182r5t2e%;2",
"668r,21s2+1e2u2--2;2,$;e=<22122,r22,,11121,e-2-;11-1e-@5d2>2u0-p",
"2,1e2$=-;2,11te2--$<--12-282q<2,;2;e1,$--,==2e-1e1$18e1=022101-5",
"1e1qa2,-%1e,1,,-2=,<12888,222-22=,,-2,=,1288-,1-,-2-;,11-e21$11,",
"2;,,12,22e-$,<=-2,2r2%<----*<8-=-q=-,<<-1-8-;22=,21,e,;1tq;12q=1",
";,t2e-11--,1<$,-+O,-11--,-,%-,,,,-=,2,12,,8-2,1-;1-,e2;-212=2211",
",5,1e2-2,$-,%<-=%<-;;,2-,22,,+$18=$2=-,,21-,2--1-11%-1,;t211121;",
"qq,q;2--2$-<$,-$%,,1,-<<=,,<2%-,81,,,-,<28=e122222-;,,<--q2q5$--",
"211e-,,8,O$,1$$,8,<<,%2<12-@@2,2%7<-,----8---,;22,,1,-,2q12,=q1e",
"2;11ey,-,22,-% 22-=,-,28,8--2<<%-+,2,1<2-1<1-,28-$e1=<=2;1,1 +,y",
"1-1,2811<2%,1,-1=-<-2$-,27-<82,-,$-,-27e-%,;=<,,112<1<<e--e1e-=1",
"-121,%,@-2-$,-%,%@,2*%22-<-,<8,%,2<21221-<2<-,2-8,$#121--2e;,121",
",22821e,<<7@%--2%-#<*<12<,8<*%<%-+*,%%7-,<,<2<---=2-,11,;22-,=-=",
"<1%12,*1<,-%<-,,%q7,87<O-7298$9<2$#*-*-*,$,<-,+@221,-1<82,11,1,=",
"%1r2--@,1,,<,8<*,,%#7<,%$#,<<8,--,*#-%$,-$<=-,<%%1--r,;2-=eq11--",
"e1,81,9#$#<%%<*,<,@<@,,,9$-978,2,--,-#%-2+<,=-,-2-,,,111=1;12,,2",
"<8%%,8e,,2,,7%,,<988<$*,,,,<7,28,$,*,$2*2,<2=7<-,%%1,q---=,,1121",
",1<1e<,,-2,,e-,8,,#,<@%2@-728<%9**<7*2,272-#%,--,$,=2y,--2-1,,,-",
"%,<,,%27,<,#-<7,,*<<#@<,<@9@%#,<+2,,,*71,7-22$-2,+--21;%8y811<12",
",,%,$<,<%#,27,#<,%,%,##%--<<,<7$#$$-,27$<--,$%2<,%$-%;,,1=1---+q",
"1,%#r8%,,7<,1#*%@***@<@##,<7#*%<$+#* #-*-7-%%%$@1%--%2-1-,q1;=<$",
"<1<*1<%2,,2<,2,,7,*,#,$<*<*77,,7,8*+,$12%*<8-,%=-+=---+,22,1+1q2",
"@1,*-<8,%1<-<7%**<#*%#<7@#O<,$,#<<,1*,$*-%<,%<%=%,,22,21q--1=-2+",
"411&%%,2<<,,,,<#%%@,77<*,**<,#$,*.#*7<+*-7<,#O%<1--$+-,;1,1$,2%-",
"98,%%#%,,%-,,*,<<*<<<*@O****#-<*<.##%29$%*<*%-,#,-*<$-$-=,-=18$=",
"-,*,%8,,2<,,<,%<*,<*<7,,%,#O#%*#<#*<**,<*#,=O,<-+=*-,%-+129,-$1-",
"2q<%*<<*1,<<288<<##9%<77*#2*##@%*,,<8#*7<2,%*,,#%%-<-%,-,-,27=--",
"r82-,$<**%*<,<<7<%*%,,,27#<% @**7<*<<<2*<-**<,*%=*,+--,$,2-,1=-1",
"9%8,,<<,@*<<%28%*7**98*7,,#7#@****-%<,8*%+#*%%%%*%,#7-#-<----21-",
"9,%@#,<,%,,8*<8*,<<8<7<2,72*72#,<%##-*%##--#-*,,%*#+$%-#-7=,<=+,",
"2,,#<%<*%8<<,,#,,#@#*798,%*<**#2**#,,<-%%OO**.=,,##*++--,-,=-=,2",
"<,1,<<,%,7%<<%,<*#*-%*2*77*,*O#***7#-,**#7<#2#%<<-=+,-+%-<=-2-;;",
"2<9<,$*,,%,<9<,*@.%<**7, 77,*,7##*<#*7,7-***-<**<2<-2,#++#$<,;1,",
"7<<-,%*r-%<%r8,<7*<$<<<9,7<,,7*7<,,2<2,2#$*,-%**-<%%2##==,,=+11=",
"<9-%27#7%2,<2*,-<<,*77*,-7<-*7*7*<%77,,**-$7*7-7,#*+$+-O<==-++-;",
"828<7s%2<<<<,,<<*7,7<<8,*<27<,<*#,,,*<-*<2,,+22,,,#$,=%$=<,<$-==",
"#*89#,<978<,<7*<<<<7978-<<*87-<<*%,%#%*%%2,%,,<--,,1,%==18,<2,,q",
",<**1%2<,,2<*<,<<*<<<<<,787<7%-%,*<7-,7*9%$2<2,97#27=%##1-<,,8,-",
"<<%9<%%#,999,7<#<9<%7,7%,7-72277<7*,*,*<,#<92,=22+-<*##<7,-%=7,+",
",98<*,,<,827,<<<*<9<r72%,%#-<<<2<***7-,<-*<%#,O#+-7-<$$,-%-$<<+=",
",<8<<*8***%,,7722<<#*277<,*7<*7%7*7,--,7,%%7,<#+,*=*%,1,=*<,=$#-",
"q9<<e<,<78r<<,,78*<<<*<9<#<*%<2%+7,,-##+-,2<%,-%---#%,7,<-122+-,",
"2<-,,*,#7<-2,r<,72#<7#,,*7777*<7,<-777-#782*%,7#-2,-2-+-2<,<--2-",
"<8-%r87,2<,<*,*##<*<7<,7,7,9<29,27-2<7#%*<%-2%-*-,=2--#=-<-272-1",
"8982-8e98,0<,<*,*%*#87*<,****2,<7-7**<7 %*+*<-2,7,27 +,=+1,8-+%,",
",-8er,28*-7,,**9<*<<,7<##*<%,9,<<,##*<%%7*#-<,,%,,-2,=1,171=-=,8",
"9<<78182%1184**99222,9**,<,##*7,897,,<,<17,%<,%--,,2,1,2=--+=,-1",
"r2ee8772%,*2,,##,8*-77*#7<<9<%**<882*,%,28<98=<97-8-,2,28+-172e2",
"i8119e8,9,#1,*<,7,<7****,,8**,72$2<,7-O*,*,,2,<<=,12222r92r2-+-,",
"y2*82r8<,<3*4<29,,<,,<<*77,%8877,2<78-##-8<,*<,-=,+,-22-21=,-,<2",
"9<2<212<,,,<*,<r$,2**28*79,e98887,82,7787<--7<<,-928822-8222=,e+",
"2r28-21<8*7s26,<2,*7<79$27779<2<27<87<-<,2229,28<,12189#=,27=-22",
"es02ee2,%226r8<%<-,,,2e2=2<<*288*#978-7*27-=7<2228--22-=,,288-1-",
"2i212<e<,2<,**7,72y2<2,82**78#*8*92*21*-<278222-,2------21e8<er9",
"<iad,2<488r2<0399q8<,8889,*,*,,7,7*,,<7=<<,2<,287--2222,2-<82q2e",
"0d9<10ia12s9<8,<8,,*22297,77<,8**%-<%<7,<,1=8222,r22,-,e--18=121"
};
