/* XPM */
static char *floraB[] = {
/* columns rows colors chars-per-pixel */
"64 64 247 2 ",
"   c #7E3C1C",
".  c #813C1E",
"X  c #BB0E39",
"o  c #BC113B",
"O  c #8F312A",
"+  c #A2283D",
"@  c #C20F3E",
"#  c #CB3539",
"$  c #84421D",
"%  c #8B471D",
"&  c #96551E",
"*  c #884726",
"=  c #8C5428",
"-  c #9B5A25",
";  c #97563C",
":  c #A35B26",
">  c #A55034",
",  c #8F6B32",
"<  c #A96728",
"1  c #B26B29",
"2  c #B5732C",
"3  c #BB752D",
"4  c #AC6A33",
"5  c #AA7A33",
"6  c #B37635",
"7  c #BA7736",
"8  c #C1762C",
"9  c #CD6F3E",
"0  c #C37C32",
"q  c #C27936",
"w  c #B81D46",
"e  c #BF1953",
"r  c #BA2650",
"t  c #C21848",
"y  c #CA1C56",
"u  c #CD2E5D",
"i  c #D82965",
"p  c #D63569",
"a  c #D1376C",
"s  c #E42C6D",
"d  c #E43775",
"f  c #9C4849",
"g  c #9C5C4D",
"h  c #BD524B",
"j  c #996B4B",
"k  c #A86B47",
"l  c #AE6B4F",
"z  c #B57649",
"x  c #AA7A53",
"c  c #B97A5A",
"v  c #B6526D",
"b  c #B97A67",
"n  c #BA7876",
"m  c #D05754",
"M  c #D2734E",
"N  c #C37D58",
"B  c #D87459",
"V  c #E76D4B",
"C  c #E9754A",
"Z  c #F47544",
"A  c #F57948",
"S  c #F67C4A",
"D  c #E66D50",
"F  c #E47855",
"G  c #C6436B",
"H  c #D75468",
"J  c #C84A74",
"K  c #D6477A",
"L  c #C85A7A",
"P  c #E25C7B",
"I  c #CA746B",
"U  c #D87963",
"Y  c #CB6678",
"T  c #CA7D77",
"R  c #D77C78",
"E  c #E27C62",
"W  c #9F9C3D",
"Q  c #BB8339",
"!  c #AE9134",
"~  c #C58438",
"^  c #CD8C3A",
"/  c #D0883A",
"(  c #CE983E",
")  c #D3933D",
"_  c #D4AA3F",
"`  c #9E9940",
"'  c #B78D4B",
"]  c #B7B14B",
"[  c #BC8372",
"{  c #C88547",
"}  c #D88748",
"|  c #CE9447",
" . c #D79745",
".. c #C68857",
"X. c #D49052",
"o. c #E38F4D",
"O. c #F7844D",
"+. c #E68458",
"@. c #F78954",
"#. c #EB9759",
"$. c #F69459",
"%. c #FC945A",
"&. c #FC9A5E",
"*. c #D9AA42",
"=. c #D8B24B",
"-. c #D0B054",
";. c #C68567",
":. c #DC856A",
">. c #D1946B",
",. c #C88779",
"<. c #DA887A",
"1. c #E68769",
"2. c #F18960",
"3. c #EC9369",
"4. c #F49667",
"5. c #F49862",
"6. c #FC9C62",
"7. c #E38978",
"8. c #E8947B",
"9. c #C7AF6F",
"0. c #C4CC5A",
"q. c #D2C053",
"w. c #E8C54D",
"e. c #D1D166",
"r. c #D2DB64",
"t. c #D9DD64",
"y. c #D9E26A",
"u. c #DDE773",
"i. c #EE3F84",
"p. c #BF6D84",
"a. c #DA4980",
"s. c #D65886",
"d. c #E74B87",
"f. c #E4528D",
"g. c #CB6A8A",
"h. c #D6678C",
"j. c #CF728E",
"k. c #D86A95",
"l. c #CC7596",
"z. c #D87699",
"x. c #E66997",
"c. c #F16A93",
"v. c #E4759C",
"b. c #DA7CA6",
"n. c #DF7CB2",
"m. c #E76FA3",
"M. c #F76AA5",
"N. c #E578A4",
"B. c #F672AA",
"V. c #FD78B3",
"C. c #BE8783",
"Z. c #C88887",
"A. c #D8898B",
"S. c #CA9489",
"D. c #D4948B",
"F. c #CE8B97",
"G. c #D78A97",
"H. c #D89498",
"J. c #E38D8C",
"K. c #E59487",
"L. c #E28C99",
"P. c #E1939A",
"I. c #E29498",
"U. c #CCA994",
"Y. c #E5A38F",
"T. c #CB8EA1",
"R. c #D584A4",
"E. c #DB83A3",
"W. c #D987A8",
"Q. c #DD8AAB",
"!. c #D798A6",
"~. c #DC92AC",
"^. c #DC8EB0",
"/. c #DB93B2",
"(. c #DA9AB4",
"). c #DD9DBA",
"_. c #E484A9",
"`. c #EA85A9",
"'. c #E28CAC",
"]. c #EC8CAE",
"[. c #E497A9",
"{. c #E78AB4",
"}. c #EC8DB4",
"|. c #ED8FB9",
" X c #F888B9",
".X c #E494B4",
"XX c #ED94B6",
"oX c #E49BB4",
"OX c #EC99B6",
"+X c #E496BA",
"@X c #ED95BB",
"#X c #E49CBA",
"$X c #ED9BBD",
"%X c #F193BE",
"&X c #DAA8B6",
"*X c #DDB7B4",
"=X c #E4A2A7",
"-X c #E4A5B7",
";X c #E4A2BB",
":X c #EDA1BE",
">X c #EBB1B1",
",X c #D6E79D",
"<X c #E1EC8E",
"1X c #E9FB9B",
"2X c #F0FE9C",
"3X c #D0C9A9",
"4X c #DCD7A5",
"5X c #E0D1AC",
"6X c #ED96C1",
"7X c #E69BC4",
"8X c #ED9DC2",
"9X c #F69AC7",
"0X c #F29CC4",
"qX c #DEA7C3",
"wX c #E5A4C3",
"eX c #EDA3C3",
"rX c #E5ABC5",
"tX c #EDAAC5",
"yX c #EEA5C9",
"uX c #EEACCB",
"iX c #F1A3C5",
"pX c #F2A5CB",
"aX c #FCA3CE",
"sX c #F6AACB",
"dX c #F1ABCD",
"fX c #EAB5C9",
"gX c #EEB2CD",
"hX c #F2B7CC",
"jX c #EEAED1",
"kX c #FDA6D2",
"lX c #F1ACD1",
"zX c #FDAAD4",
"xX c #EEB4D2",
"cX c #EEBAD4",
"vX c #ECB5D8",
"bX c #EEBBD9",
"nX c #F0B4D3",
"mX c #F0B9D6",
"MX c #F3B6D9",
"NX c #F1BDDA",
"BX c #EDC3DB",
"VX c #F1C4DD",
"CX c #F4CAE3",
"ZX c #F8CBEB",
"AX c #F8D1EC",
"SX c #FCD8F6",
"DX c #FDE2FB",
/* pixels */
"uXjXjXpXpXxX8XyXnX0XyXxXyXyXyX8XyXjX6XeXyXuXyXuXmX6X7XpXyXyX0X~.,.[ Q.eXcXjXjXjXpXxXuXxXvXyX0XbXyXjXNXbXuXpXyXyXnXmXjXnXjX0XiXnX",
"nXyXyXpXyXvX0XjXuXjXjX$XV.#XyXyXjXyX6XyXyX8XuXbX0X8XyXjX8X7XrXc C.qXdXjXyX0X6XjXxXyXyXyXjXxXuXuXyXyXvXyX8XNXyXdXNX8XdXnXpXnXpXdX",
"bX0XjXjXpXpXxXjXuX0XyXyX8XxXeX8XpXjXyXxXyX8XbXyX7XyXyX+XA.;.z 7 N D.+XeXyXvXxXyXjXxXjXvXyX8XyXyXjXjXpXuXpXeXNXnXyX%XyXNXmXgXyXuX",
"jXyXyXvXVXyXnXuXyX8XjX6XxXxXyXnXxXxXyXyX6XwX-XyXuX6XG.N 7 0 ~ )  . .,.yXyXxXjXpXyX0XdXnXxXyXmXjXvXxXpXnXyXyXyXuX6XnXyXNXdX8XmXnX",
"xXyXyXyXNXjXuXjXyXNXyX8X8XuXjXuXxXcXyX8XrXqX3XxX+XT 7 8 8 ~ )  .) ^ ' n yXjXiXyXeX8XuXdXfXfX;X8X8XeX8X8X6XdXyXnX8X8XjXjXjXyXiXmX",
"NX8XeXxXxX8XbXxXdXvXuXyX|.uXjXeXxXyX8XeX7X3X,X&X;.2 8 8 3 8 8 8 0 : * = (.7XuXxXcXiXtX*X3X3X&X8XeX$XyXeXyX8XuXxXxXyXyXCXnXnXpX@X",
"jXpXxX8XxXgXyXNXyXjXeXyX8X@XuX6XyXuX8X8X8X5X1X9.4 3 / ^ 3 1 1 < 1 %   f #XxXuXeXtX*X4X1X,X*X8XyXjXuX8XuX.X-XH.&X&XfXfXjXxXxXuXiX",
"iXuXxX8XuXjXyXuXvXeX8XyXyX6X$XuXyX$X@XyXyXU.9.Q 1 ^ $.#. .~ : % . .   g eXeX$X-X4X1X1X,X-XeXiXdXyX#XH.;.b S.!..X7X+X.X;X;X$X0X$X",
"@XuXpX$X0XeX8XnXyX6XyXeX#XeXyX8XtXeX@X|.G.X.Q 2 Q #.6.6.6.#.^ < : : & g ;XrX4X1X2X2X1X*X@XxXgX!.<...;.H.oXeXgXyXcXdXfXdXfX~.$XdX",
"nXuXuXcXeXuXyXVXgX}.pXxXpXnXgX8X$XuXyXrXZ.Q ( | ' z 6.6.#.;.j < *.*.) ~ z 9.1X2X2X1X4XxX8XP.>...>.H.-XyXnX8X@XdXVXyXiXdXjXwXF.cX",
"yXeXeXcXuX@X8X8X0XuXyXyXyXxXgXuX8X8X@XoX' 7 *.=.>.#.+.&.6.#.#.V 0 w.*.3 ! ! y.2X1X<XS.,.c ' ;.H.rXrX6XyXxXjXyX6XgXtXdX(.uX!.n tX",
"yXxXyXjXbXuX8X8X$XyXgXeXtXeXeX8XuX8XyX-Xc k *.q.e.=.X.B B #.C > $ _ w.! -.' e.y.u.] 1 1 1 b D.[.oX$XuX8XeXeXyXuX8XnX!.c T b H.0X",
"uX8XyXeXyXuXeXuXuXxX8X@XeXyX8X8XyXeXuXxX!.T ' *.-.-.' ; 4 F 9   $ *.w.-.y.r.t.t.r.! 3 8 1 2 z ~ { ..<.!.xXeX0XyXnXjXZ.z b !.#X8X",
"8XiXxXuXxX8XyXyX8X8XeXyXuX@XeX8XXX|.eXeXyX;X;. .M $.} 6 x ' , * 1 =.-.0.r.y.y.y.0.! 2 8 ) ~ ..X.| ^ (  .;.;X8X7XgXdXyX+XtXgXyXyX",
"eXyXyXyXxXuX8XdXeX@X0XeX8XyX8X6X$XtX$XeXyXH.5.&.o.C } Y.>XI.M M / +.#.X.-.r.t.y.0.( ^ ~ ~ ) | >.;.~ ) *.0 N eX0XvXuXuXyXyXdXyX8X",
"xXjX8XxXeXyXeX8XyX$X#XtX@XeX$X@X$XeXiXiXQ.j.B m 7.2.3.>XhX>X5.%.&.4.4.@.) e.r.r.] ( ) ~ ~ ~ q { F.Z.~ ) q 6 ).$X8XjXyXjXyX8X8X8X",
"yXyXyXxX8XeXeXuXeXXX@XyXeX@X$XeXjXeXuX).~.).v v W.G.<.<.<.:.R Y I 1.2.F -.r.y.0.! ~ 3 8 8 c ,.7 N #Xb 0 3 z 7XuXxXyXuXeX|.jXyXxX",
"jX0XyXyXcXmXeXeXeXuXuXeX8X$X`.tXuXeX6XW.BX).a a m.aXl.p._.}.{.n v !.tXv.c y.y.` Q ( - 2 8 7 H...6 '.D.3 2 ,.6XuX8XyXyXyX}.|.yXcX",
"yX8XyXeXuXgXyXeXtXyX$X:XyXeX7XyX@X$X;X&XAX6Xs.G f.9X|.}. Xc.K r g.BXSXn.[ r.] 5 & ~ : < 8 3 F.;.l oX;.6 b ;XuXxX8X7XnXpXxX8X@XyX",
"7XtXuXyXeX$XiXXXeXyXeXXXeX$X0XeX$X{./.CXMXk.^.b.K }.0XkX Xp y v &XDXAXb.] W 5 4 % * * : 8 7 !.n Z.,.6 T :XuXyX8X8XpXxXeXyXyXuXyX",
"eXrXwXgX7XF.(.8XtXyXgXXX$X0X+X).^.(.rX8Xb.^.uXwXh.k.6X9Xa e h 9.U.DXAXl.= 4 7 * $   = k q N R.b b c !.#XiXyXeXeX8XjXjX8XeX@X8X8X",
"tX.XT R G.G.&XqXwXwX:X$XwX).qXvXxXlX{.k.Q.yXeXb.s.a.N.K e O j j j SXZXg.1 6 -     $ n c 7 F.b l Z.;XyXeX8XeXtXuXuX8XyXyXeXyXyX@X",
"XXH.Z.:.R M (.CX(./.).wXjXrX7X'.Q._._.].tX.XR.J i p p i y + g * ; BXAXY : *     * n F.z Z.Z.x H.$XyX$X8XmX8XyXuX8X8XvXgXyXeX8X8X",
"xX8X;XuXwXR.F.AXvX7X+XQ._./.{.-XyXeXOX+XQ.6XpX}.a p i u a J I 4 4 &XvXY .   . g F.l.b !..Xc Z.:XuXeXwXoXH.,.;.F.6X8X8XpXuXyXeXeX",
"tXfX$X.XG.H.R z.XXb.Q.8XuX$XeXeXeXxX(..X{.aXzXkXh.a k.c.c.c.P > * &XSX|.f g Z.T.T.Z.oXuXG.4 ,.:XeX+XZ.C.,.,.6 I 7X6XeXeXyXuXyXiX",
"eXyXtX;XrXtX-X.X.X:XeXeXfX:XiXhXeXR.{.{.XXaXaXaX0X0XzX9X9Xv.c.H f T.SXCXm.;X!.!.-XtX8X$XF.7 ..=XeXOXwX@XrXrXC.oXeXdX$XyX8XeXyXeX",
":XeXpXeXeX$XuXuX$XtXwXXXeXtXgX:XR.l.XX9XkXkXaXaXkXaXkX7X_.K u p s.Q.qXSXsX_.yXyXtXgX8XgX=X[ ^ X.,.A.W.~.).).8X$XgXvXgXuXyXyXyXuX",
"8XeX$XeXXXtXeXtXeXOXeXgXuX+XR.'.$XyXkXzXkXkXzXzXkX9X6Xn.f.p @ X w v l.rXAX7X/.$XtX$X{.Q.W.z.p.D.Z.Z.R./.@XyXeXwXiX8XyX8X8X8X|.gX",
"yXeX$X@XfXgX$XeXeXuXyX/.'.{.9XkXzXkXzXkXzXkXaXzXkXkXm.d.s y @ X o o G Q./.CX6X+X8X+Xk.x.g.g.E.|.yX$X$X8X6XuXeXyXeX8XxXyX8X8XeX6X",
"tXtXtXiXyXtX$XgXeX$XW.'.pXzXzXzXkXzXzXkXkXkXzXsXkXaXB.d t @ @ X o o G E.:X/.jX).Q.g.h.F B R A.G..X%X@XeX8X8X@X8XdXuX8XyX|.yXuXuX",
"XXtXeX8XeXtXuXeX$XR.{.aX9X6X@X}._.].].XXXX}..X_.N.s.H m m # # w w J }.b.#XyXR.BXH.F S Z C +.R _.8XeXeXuXyXeXuXyXjX8XeXyX6X8XuX@X",
"dXeXyX$X8X$XeXtX;Xg.'.l.l.z.z.h.Y M A V D D m m D D Z Z Z Z m L Y j.z..XgXtX^.!.:.+.E J.A.:.A.!.#X8X8X@X@XeX8X8XyXeXeX@XyXuX@X8X",
"xXgXeX$X:X@X$XeX+Xv E.+XwX:X:XtX;X:.%.&.O.Z C B 6.&.O.Z Z F oX:XrX].OX@X:XuXfXE.R U oXtX@X[.oX@XeXeXeXeX@X8X@X8X%XeX8X6XyXxX@X6X",
"8XeX:XeX$XgXeXtXwXl.#XeXtXeX:XtX:XI.&.6.&.A F :.6.&.O.Z F L.:XOXeX-X:XtX:X:XiXtX$XL.#X@XXXwXtX$X}.@X$XeXeX$X$X6XyXuXcXeX8X@XyX6X",
"uXfXtX:X$XuX:X:XeX#X-XeXtXnXgXyXtX].7.6.6.S F :.6.%.Z Z R $XOX$X:XtXeXtXhX$X:XtXtXtXiX$XOXeXtXOX$X@X$XyX$X$X8XeXeXiXeXuXjX#X$XeX",
"nXnXyX:XeXXXtXeX:X$X:XtXiXtXtXtXtX:XI.4.6.O.F 1.6.O.Z U `.@X$X:XtXtX:XeXtXtXtX:XtX:X$X$XtXiXiXOX@XeXeXXX8X8XeX@XeXyX$XeXyXOX6XyX",
"hX$XfX8X:XtXtXtXXX:XgXeX$XtXfX$X:XtX-X8.6.@.B #.&.S F [.OXXX:X:XeX$X:X$XtXeXgX:X$XXX$X:X$X$X:X@XtX$XeX@XtX$X@XeXeXeX8X8X8XyXyXeX",
"cXeX:XXXOXtXyX:X$X:XiXfX:XiXhXiXeXtXtX=X4.@.C $.@.A H.:XtXgXOXiXtX:XOXXX:X8X$XOX$X$X$X$X:X@XtXiX@XeX$XXX$X$X8X$X8XjX@XeXyX$X|.eX",
"uXeX:X$XeX$XdX:X$XfXtXtXeXeX$XeX:XOXXXXX8.%.V #.A 7.:XtX:X:XOXtX:X:XOXeXeXtX8X$X$XXXXXOX:X].@XtXtXOX@X:X@X@X$X6XeX$XeX6X8X8XeXjX",
"uXeXeXeXgXtX:XOXeXdX$XtXtXOXtXtX:XOX0X:XH.$.V @.A 7.oXiX:X].$X:X:X:XgXOX$XeX:X:XOXtXtX$XtX$X$XeXtX@X@XOXeX$X|.@XeXyX8X8XyX8X8X7X",
"uXeXgXuXeX$X$XtXiX$XeXtXcXdXeX:XOX].+XP.3.+.U 1.@.A F G.oX:XuX:XXX:XtXOX:XdXeXtX$X:X:X$X$XtX:X:XeXdXtX8XyXeX@X@XXX@X@XtX8XyXyX7X",
"gXtXtX:X:X$X:XcX$X:XtX$XcXuXeXeXtX#XK.5.&.S A.!.3.%.S S E P.;XtXtXtXiXtXtXtXtXtX$X$X:XeXeX$XeXeXeXtX$X$XtX$XXX@X#XeXeX6X@XyXyX8X",
"uXfX:X:XtXgXOXgX:XyXtXtXgX:XiX:X-X<.5.&.O.F [.dXA.5.%.S Z C <.tXtX:X$XgXtXtXtX:X:XiX$XtX:XtX$XdXeX$X:XXX@X@XeX}.yX$X6X8X@X@X8XyX",
"uXuXgXtXtXBX$XtXtXtXeXtX:X:XuXtXA.&.6.%.Z :.tXeX:XA.6.%.O.Z D [.OXtX:X:XtXiX$X:XtXtX:XtXXXgXuXwX:XeXOX@XiX@X$X@X%XtXeXyX@X6X@X6X",
"$X:XgXgXOXiXdXgXgXgXtXeXtXfX:XtX<.6.%.O.D P.gXeX:X-X7.6.%.A Z I.:X$XiX$XXX:X:X:X$XuXtX@XtXeXtX$XeXeXeXtXeX$X@X$XyXxXeXtXyXeXeXjX",
":XuX:X:XtX$XtXtXeXeXtXtX:X:XeXeX<.&.%.A F ;XtXeXgXgX=X3.6.@.Z R iX:XtXtX:XeXtX:XfX@X$XtXyXuXeXcXyX@XgXgX@X:X@X@XyXeXeXeXeXuXeX8X",
"tXtX:XhXtX$X:XOX:XhXfXhXtXuXeXoX8.6.@.Z 7.eXgX$X:XgXeX[.4.&.S E -XgX$XtX:XtX$XtXiXXXtXnXtX:X$XyXtX@X$XeX0X@X$XeXtXyX8X$X$XyXeX|.",
":XcXdXtX:XtX:XtXtXdXuXgXtXtXfX-X7.6.O.F =XgXtX$XtX$XOXeXJ.5.%.C P.iX:X:XtX:XeXtXeXtXeX$XOXyXXXXX@X8XtX:XtXXXOXiX-X$X7XOXuXeX@X$X",
"eXdXtXtXdX:XgX:X:X$X:XeXeXuXuXtX8.&.O.E $XgXuXfX:X:X:XhXiXK.6.O.7.:XtXtX:X8XiXdXeX:X@XgXeXtXXXXXeX$X8XeX@XeXyXeX$X:XeXyX@X@X@XeX",
"fXmXtXuXfXtXtXtXuXhXcXtXeXtX:XrX8.&.A A.tX:XtXhXgXOXtX:X$X-X8.%.E -XtX:X$XOXOXXX$X:XtXyX$XiXeX$X8X$XeXXX$XiXtXeXeXiXyXgXuX|.8XeX",
"uXdX$X:X:X$XtX$XuXuX:XhXeXcXtX:X8.%.F oXtXOX:X:X:XtXfXtXgX:X=X8.@.J.:XgXgXtX$XOXuXhXgX:X@XeXuXOX$XjX8X8XjX$X@X8XuXtXeXeX$X8XgX8X",
"uXfX:X:XcXgXgXeXuX:X:XtX:X:X:XOX7.@.7.tXfXtXtXtXtXfX:XhXtXdXhX[.4.2.oXuXtXtX$XXX:XtX$X$XgX$X$X:X8XeX$XuX8X$X@X$XeXtX8XuXuXuX8XeX",
"uXfXgXdX:XuXfXhXtXeXhXuXtXtX:X:X8.@.L.OXfXuX$XeX:X:X:X:X:XdXeXtX[.@.J.oX$XtXuX].$X:XOX:XyXeXuXtXyXtXuXtX}.|.eX@X@XiX8XjX$X|.8XyX",
"iXiXgXcXmX:XyXgX:XeXtXeX:XeX:X-XY m j.tX:XhXtX$X:X:XtX:XiXfXtXtXiXR H J oXtX-X$XuX:X@X$XtXeXeX@XeX8X$XuXeX@XeXeXeXtXuX@XeX@X0XgX",
"fXiXtXtXhXtXgXgX:XeXtXgXtX:X:XQ.M.K j.tX:XBX>X0X:X:XtXOXOX:XgX:XfXR.x.d.s.:X:XtXtXtXeX$XtXeX$X:X$XeXeXuXeXyXyXuX$XeX8X@X8XeXeXyX",
"mXdXmXcXfXuXuXtX$XtX:XyXeX:X.XN.B.d g.OXhXtX:XOXhXiXtXhXtX:X:X$XtXtXz.M.d.k.@XeXgXgXtXcXgX$XeXcXgX8XxXeXeXyXtXuXyX@XeXyXtXuXxXyX",
"cXgXpXtXfXxXxXeXfXeX@XiX:X:XR.B.V.s i R.:X:X:X:X:XtXgX:X:X:XuXdX@XfX;Xv.B.d.K :XyX:XeX:XuXeXtXtX@XyXyXdXyXyXuXcXmXyXbXyXeX@X$XeX",
"bXgX$XuXdXxXgXtXeXdXiX:XtXoXk.V.B.d y v.:XeXuX:XuXtXtXOXfXhXtXgXeXuXtXQ.B.M.d s.OXgXtXyXeXtXeX:X@XeXXXeXyXuXgX$XgXtX@XeX$XeXuXuX",
"fXdXgXtXuXyXgXtXeXeXtXtXwXk.B.V.M.i u Q.eXtXgXOXhXfXtXgXcXhXfXgXtXtXgX#Xv.V.M.d h.wX:XeXtXtXtXiX8XxXuXfXgXyXpXeXgXuXuXuX@XeXxX@X",
"yXcXdXfXeXyXeXtXuXeXtXBX~.k.M.M.d.i i '.tXgXcX@XtXuXtXgXgXtXtXtXgXtXtXfXz.B.m.d i z.uXyXfXiXuXgXeXtXyXuXyXfXfX@X@XyXuXyX$X8XdXyX",
"cXBXgXgXxXxXgXeX8XrX/.R.v.B.M.f.s y a Q.tXgXmXtX$XdXtXtX:XtXgXgX:XOXcX(.b.V.M.f.i a '.@XgXtXtXuXuXcX$X8XpXyXeX@XeXeXyXxXxX$XiX8X",
"uXmXyXiXyXtXcXeXeX^.k.6X9XB.M.i.i J #XuXtXtXeXgXtX:X:XfXgX$XeXgX:XmX;Xk.9XV.V.M.s i k.gXuXuXyX0XyXtX8X8X8XeXeX8XyXeXxXgXtXcXcXxX",
"tXcXNXVXiXuXuXyXuX/.g.m.m.B.M.d.J #XgXtXiXgXgXgXhXtX:XtX:XeX:XgX:XtX.Xl.N.B.B.f.i i k.eXtXeXuXfXgX@XeXyXgXtXuXeXfXiXuXuXyXxXuXxX",
"gXBXhXgXtXgXmXNXeXuXfX/.R.R.N._.wXtXiX:XyXtXgXcXuX:XtXtXtX:XhX:X:X:X8X).b.z.l.g.g.E.wX$XgXuXgXtXeXBXyXdXiX8X:XxX8X0XyXxX$XyXyXyX"
};
