/* XPM */
static char *flower[] = {
/* columns rows colors chars-per-pixel */
"64 64 245 2 ",
"   c #774E21",
".  c #A23C14",
"X  c #B33E27",
"o  c #BB3938",
"O  c #C42E36",
"+  c #9E460D",
"@  c #994A0B",
"#  c #9D4A0B",
"$  c #99500F",
"%  c #9C4D16",
"&  c #9D5317",
"*  c #A0450E",
"=  c #A14B0A",
"-  c #A3530C",
";  c #AC560D",
":  c #A04410",
">  c #A64B16",
",  c #B24918",
"<  c #A25719",
"1  c #B06616",
"2  c #B96A14",
"3  c #BC7517",
"4  c #A35A29",
"5  c #B85925",
"6  c #A85A36",
"7  c #8F6A31",
"8  c #B06B28",
"9  c #AA6537",
"0  c #BB7739",
"q  c #C36E14",
"w  c #D26F1B",
"e  c #C47816",
"r  c #CC7C15",
"t  c #D37D18",
"y  c #C95B25",
"u  c #D85039",
"i  c #C57B27",
"p  c #CE7028",
"a  c #C66B36",
"s  c #D86A3A",
"d  c #C47D35",
"f  c #D57839",
"g  c #E4753B",
"h  c #E9763B",
"j  c #EC7B3D",
"k  c #F47C3D",
"l  c #BD3944",
"z  c #DA0E54",
"x  c #D81958",
"c  c #E00D5B",
"v  c #E51B5A",
"b  c #D92659",
"n  c #CA3051",
"m  c #E4255C",
"M  c #DE1862",
"N  c #F21F62",
"B  c #CF2361",
"V  c #D92A64",
"C  c #CD3863",
"Z  c #D73667",
"A  c #E82665",
"S  c #F32265",
"D  c #F6256A",
"F  c #FB236B",
"G  c #EC316C",
"H  c #E63A72",
"J  c #F53476",
"K  c #8F7656",
"L  c #AF6A47",
"P  c #B26D4B",
"I  c #B2744C",
"U  c #B97657",
"Y  c #BC7965",
"T  c #DA4B45",
"R  c #D85847",
"E  c #CB4F53",
"W  c #E3554C",
"Q  c #D87447",
"!  c #D2704F",
"~  c #DB6958",
"^  c #E86945",
"/  c #E77C45",
"(  c #E77352",
")  c #CB4364",
"_  c #D14E6A",
"`  c #D95A6B",
"'  c #CA4C72",
"]  c #D94574",
"[  c #C95A7E",
"{  c #D4597D",
"}  c #E54C74",
"|  c #E65777",
" . c #CD7068",
".. c #C67B6A",
"X. c #E76D72",
"o. c #CB8118",
"O. c #D48417",
"+. c #D88717",
"@. c #D68818",
"#. c #D7931D",
"$. c #C68726",
"%. c #D98D2E",
"&. c #D69825",
"*. c #CA813C",
"=. c #D88A39",
"-. c #E88A3C",
";. c #F5853E",
":. c #FA863E",
">. c #F68D3F",
",. c #FD893E",
"<. c #DDAB31",
"1. c #E4B138",
"2. c #BB944D",
"3. c #BC8670",
"4. c #C5844A",
"5. c #D2934C",
"6. c #C58556",
"7. c #E88847",
"8. c #F38744",
"9. c #FB8D43",
"0. c #E89749",
"q. c #FA9145",
"w. c #F8974B",
"e. c #E78856",
"r. c #EC9557",
"t. c #F39A56",
"y. c #C3A55F",
"u. c #EAAF50",
"i. c #F3A355",
"p. c #F8A559",
"a. c #FDAD5C",
"s. c #FFB25E",
"d. c #C78567",
"f. c #CE8F6D",
"g. c #C68578",
"h. c #D7887A",
"j. c #DB9579",
"k. c #E38B66",
"l. c #E79A68",
"z. c #E78E71",
"x. c #E49679",
"c. c #CEAB70",
"v. c #F8AA62",
"b. c #FFB361",
"n. c #F3A971",
"m. c #F5CB43",
"M. c #F5CC47",
"N. c #CC5E82",
"B. c #D85C84",
"V. c #F44887",
"C. c #E85987",
"Z. c #EF588A",
"A. c #CD6789",
"S. c #D6658A",
"D. c #D6778C",
"F. c #DB6B93",
"G. c #D67797",
"H. c #E8668A",
"J. c #F1648A",
"K. c #E9728A",
"L. c #E76993",
"P. c #FF6E96",
"I. c #F76798",
"U. c #E8769A",
"Y. c #F67598",
"T. c #FC749A",
"R. c #F9799D",
"E. c #DB7CA3",
"W. c #EA78A1",
"Q. c #F77CA4",
"!. c #CC8785",
"~. c #D4888A",
"^. c #D69587",
"/. c #CD8F93",
"(. c #D7899A",
"). c #D79599",
"_. c #E3978C",
"`. c #E38B90",
"'. c #E29398",
"]. c #DCA893",
"[. c #EEA890",
"{. c #CC8EA7",
"}. c #DA88A5",
"|. c #DA96A7",
" X c #DD96B3",
".X c #E688A8",
"XX c #F688A7",
"oX c #E395AC",
"OX c #E59AAB",
"+X c #F592AD",
"@X c #ED8DB4",
"#X c #EC8DB6",
"$X c #FA8AB5",
"%X c #E494B3",
"&X c #EC93B6",
"*X c #E49BB4",
"=X c #ED99B5",
"-X c #ED95BB",
";X c #E69CBB",
":X c #ED9BBD",
">X c #F894BA",
",X c #DBA4B7",
"<X c #DBB3B6",
"1X c #E5A4B7",
"2X c #EDADB1",
"3X c #E4A3BB",
"4X c #ECA2BE",
"5X c #D5CF96",
"6X c #D4CEAC",
"7X c #D7D2AF",
"8X c #D9C6B4",
"9X c #DAE6AE",
"0X c #DEE9B2",
"qX c #E2EAAF",
"wX c #E2EDB1",
"eX c #E6F1B5",
"rX c #EE97C2",
"tX c #EE9DC2",
"yX c #F799C2",
"uX c #E6A7C3",
"iX c #EDA3C4",
"pX c #EDAAC6",
"aX c #EEA5C9",
"sX c #EEABCB",
"dX c #F1A3C5",
"fX c #F6A8C9",
"gX c #F0ABCD",
"hX c #EBB6C8",
"jX c #EEB2CD",
"kX c #F6B3CE",
"lX c #EEAED1",
"zX c #F0AED1",
"xX c #EEB4D2",
"cX c #EEBAD4",
"vX c #EFB7D8",
"bX c #EFBCD9",
"nX c #F0B4D3",
"mX c #FAB7D4",
"MX c #F0B9D5",
"NX c #F1BDDA",
"BX c #F7CECD",
"VX c #EFC2DA",
"CX c #F5C7DA",
"ZX c #F8CBE2",
"AX c #FAD5E5",
/* pixels */
"sXlXgXgXaXvXrXgXlXtXsXnXaXgXaXrXgXaXtXtXaXlXaXaXvXrXrXaXsXtXtXtXaX XY f.uXlXlXsXaXvXsXlXlXlXtXbXaXgXVXNXzXgXaXaXzXvXzXnXzXtXdXvX",
"nXsXaXaXsXzXyXgXlXlXgXrXQ.rXaXaXlXaXrXaXaXtXlXxXiXtXaXlXaXrXvXrXaXvX).0 6.tXrXlXlXaXsXaXsXlXaXaXsXaXvXaXtXvXdXgXNXtXgXvXdXzXfXgX",
"vXrXlXgXgXsXxXlXsXtXaXaXrXxXiXrXaXlXaXlXaXtXbXaXtXlXaXrXrXiXtX-XrX;X(.3.U sXxXsXlXxXsXvXaXrXaXaXlXgXaXsXsXtXNXzXaXrXaXNXMXzXaXzX",
"lXgXtXvXNXsXxXsXaXrXlXrXxXxXsXvXxXxXaXuXrXtXaXaXaXtXrXtXaXiXtX(.Y 9 4 < 9 2.!.iXsXrXlXvXvXsXvXxXxXvXaXnXsXdXaXzXrXnXdXNXsXtXnXnX",
"vXsXiXaXNXlXsXlXaXvXgXtXrXsXxXsXxXxXaXaXaXaXtXsXtXrXrXaXsX|.U & - q t r 1 e e d.tXtXsXsXxXsXtXtXrXiXtXrXrXgXsXnXrXrXlXlXzXgXdXnX",
"NXrXiXvXxXtXcXvXlXxXsXaX#XsXsXiXxXiXiXtXtXaXaXlXlXtXtXaXg.4 + - r +.+.+.@.r O.o.6.;XsXaXiXsXiXrXaXrXaXiXiXdXsXvXnXsXsXZXnXxXaX-X",
"zXaXxXtXnXxXaXMXsXsXiXaXiX-XlXrXsXsXtXrXtXlXsXtXtXaXaX/.& @ + q +.+.+.+.+.+.O.O.@.f.tX-XtXiXtXiXsXsXrXaXyXvXtXcXMXMXvXgXnXnXsXdX",
"dXlXlXtXlXsXaXsXvXtXrXaXiXrX;XsXaX-XrXuXtXlXtXrX%XtXrXY @ + > t +.+.+.+.+.r r #.#.*.|.sXaXaXaXsXsXsXaXnXsXxXxX-XaXiX:XlXsXrXdX-X",
"&XsXdX:XrXiXtXMXsXrXsX:X:XiXaXtXpXtX:X#XtXtXaXsXaX-X:XI # . ; +.+.+.+.+.@.e 2 #.#.#.f.pX-XxXxXiXaX-XaXbXiXaXjXsXnXaXcXsXvX:XtXgX",
"nXaXxXcXaXsXaXVXsX#XpXcXsXnXjX:XtXsXtXsXiXrXuXxX:XaXuX9 + * ; O.+.+.+.@.r o.3 O.#.#.*.hXtXsXtXrXpXsXtXaXnXtX&XsXCXgXtXsXxXzXiXcX",
"aXaXaXxXsX-X-XtXtXsXuX8X7XVXcXsXaXtX:XpXtXtXaXsXrXaX|.< + * = q r r r r o.=.%.e O.@.d *XnXxXtXaXxXaX-XaXjXlXaXrXjXaXjXaXnXdXtXgX",
"aXjXaXgXVXsXiXiX:XsXxXuX7XqX0X7X<X;XpXuXaXsXjXsXhXOXU @ = ; 2 2 e t r @.-.s.0.e r r 6.uX,X,XuXtXiXrXsXtXiXiXaXaXrXxXsXaX-XaXaX:X",
"sXiXiXaXaXaXaXaXsXxXtX-X<XqXwXwX9X7X8XhXsX-X,Xh.g.d.8 1 e q q 3 q p <.p.b.b.p.i 3 3 3.8X8XhXsX-XiXsXaXaXxXiXaXaXxXlXrXsXaXsXrXaX",
"tXdXvXsXxXtXaXpXiXtXtXpXzX8XwXeXeXwX9X<XuX1X6.d.d.*.o.O.@.2 $   0 a.b.s.b.b.s.=.3 r 4.5XuXiXaXtXtXsXtXtXxXaXrXrXlXsXlX-XsXxXaXaX",
"iXsXiXaXxXsXtXaXtX:XiXiXyX<XqXqXeXeXwX9X6X/.0 *.o.o.@.#.$.w 0 K 3.l.s.s.b.b.v.Q i &.3 2.,XiXtXpXrXaXaX:XiXpXaXiXvXsXaXsXaXsXaXtX",
"lXsXiXlXiXaXiXiXaX-XrXsX-XaX7XwXeXeXeXwX9X5X1 o.O.&.<.$.3 >.a.b.c.5.s.s.b.i.I K & m.&.3 6.3XaXjXsXsXiXtXiXiXaXrXrXsXsXlXaXrXtXrX",
"sXaXaXlXtXiXiXjXpX#X&XtXaX;X7XwXeXeXeXeXqXy.3 o.&.M.$.# > -.s.s.b.v.s.b.a.5.I I < 1.m.3 e d.iXaXsXpXtXsXiXrXaXsXxXaXsXiX#XlXaXxX",
"gXtXsXaXxXbXiXtXiXpXsXiXtX;X6XwXeXeXeX5X2.- - o.m.<.$ + + 5 r.b.r.p.a.i.i.s.p.a - 1.m.5.d 4.uXxXtX-XjXaX:XpXrXsXtXaXaXaX#X#XpXbX",
"aXtXaXiXsXjXaXpXsXsX:X4XaXuX6X0XeX5Xy.< # @ - 3 M.3 @ @ % 9 w.t.e.R ..Q r.0.a + - 1.m.f.4.4.:XpXaXiXsXsXaXaXuXxXtXtXxXaXxXrX-XaX",
"tXaXsXaXtX:XiX&X:XsXiX-XiX:X6X5Xy.8 = - 5 s q 3 1.2 * 1 < 7 ].[.L ! u Q 0 < + 9 3.m.u.).6.^.sXiXjXpX&X-XaXsXaXtXrXsXxXiXaXaXsXaX",
"iXjXaXsXsXaXxXiXaXpXsX&X4XOX3.8 # = # 5 ;.,.:.p %.*.=.7.0.2XZXCX].r.t.v.0.8 U (.5.u.c.{./.uXiX:XrXtXsXtXiXaXaXiXrXlXaXrXiX:XtXrX",
"pXaXiXaXsXiX4XaXaXiX4XOXg.4 @ # = = # 5 ;.:.,.w.a.=.0.i.l.BXAXZXBXb.b.a.<.0.x.d.5.j.3XuX:XaX&X&XpXsXaXiXtXuXpXjXsXaXaXsXiXaXiX-X",
":XiXxXjXiX4X=XpXaX|...4 % & $ = = # = > g ,.,.p.b.s.a.i.s.[.BXBXn.b.v.s.0.i.0.I ~.:XsX;XrXiXiXtXrXiXtXtXcXtXaXsXtXtXvXsXaXiXtXtX",
"xXiXiXjXiXiXhX.XY 4 4 L P & + * = = * = 5 ,.,.w.s.i.i.a.a.s.b.b.b.b.r.Q t.a.e.'.{.E.pXuX-X:XsXiXsXiXiXiXaXiXaXaX-XaXtXsXsXiXpXaX",
"pXjX:X4XiX3Xg.4 & P !.U & + + * = * * * : R ^ ( r.r.R ` ` `.k.r.n.k.K.D.R e.U.CXAX{. XsX:XjXsX:XtX:X:XaXtXxXiXrXtXrXiXiXpXaXaXpX",
"iXaXpXaX|.9 $ 6 /. XL % + * : * = . * * . l Y.Q.Y.`.' x J W.dX:X%X%XmXkX{ n U.>XZXZX{..X:XiXtXtXiX:XpX-XaXbXiXtXtXsX:XsXtXiXiXiX",
":XiXiXg.& % Y ,X*XI @ + * * * * * * * * + . E XXyXfXCX] V V Y.fXfX=XkXfXH.B.G.G.$XCXAX{. X#XrXsXiX&XtXtXsXaXtX:XxXvXxXaXaXsXaXsX",
"4XiX..% % g.iXpXI @ + + * * * = + * * * + + . n $XyXmXuXB c H T.Y.U.>X{ B.;XsX}.A..XkXCX|.|.sXpXiX:X-XrX:XaXiXaXiXrXaXtXtXtX#XlX",
"sX!.- % !.jXrXg.$ + * * * * * # = * * * * * * , _ $XyXZXU.z Z Q..X;XD.D.E.-X:XaX%XA.U.yXhX{.|.}.tX:X-X:X:XsXiXiXiXtXjXaXrXrXpXrX",
"1X4 @ ..uXsX|.4 @ + : * * * + * + * * * . = q t O ] $XfXCXN.B.=X%X{.}.&XdXrXaXpX:X;XG.F.U.1X2X)...j.x.x.j.OX#XiXsXsXtXaX#XsXsXaX",
"g.$ 9 *XtXpXd.@ * * * * : * + # + * * * = q +.t O b } $XmXVXD..XB.A.uXaX:XiX:X:X;XoXOX..k.r.0.7.;.8.p.v.j.*XsXaXlXrXtXaX:XrXsX&X",
"g.& /.rXiXoX9 @ * * * + * * + = * * * * ; O.+.w n c x B.$XmXhXA.] B..X&X*X*X`.^.l.l.e.7.7.8.;.,.q.a.v.l.oXtXiXiXaX*X|.~.).|.oXtX",
"3.I 4X:XiX~.$ * * * * * * * * * = . = = q +.@.f x M M z C.yXmXCX%XB.) E ! k.r.w.7.g k ;.,.,.,.w.s.a.l.|.%X}.~.(...0 3 o.3 i 0 g.",
"3.g.:XiX:Xg.@ = = : * * : * * = = = . . q t y n V M M M B Z.yXkXAXCX|.! 7.q.,.h g :.,.,.,.9.p.s.s.=.*.4.d 0 g.}.|.^.4.i o.o.o.1 ",
"!.|.pX4X:X3.@ # = * : * * * * + = = * = q y n b c c x A H n H.XXyXmXAXCX_.( j g :.,.:.:.q.a.s.v.( a f 4.h.oXtXaXiX4XiX^.$.O.o.8 ",
"3.3.sXtX:XU @ = = - # * : + * * + + = . X ) Y.J.Z M z Z B.E.XX_ | Y.>XmXZXhXh./ k ,.,.w.s.b.t.`.}.}.1X&XtX;X*X%XpXaX:XiXU o.o.d.",
"g.9 <XuXiX3.@ = - = = @ * * + * . = . 6 | P.P.K.} ) S.=XfX>XY.u k ^ W X.K.:XMXhX_.e./ w.r.k.` G.,X X:X:X).2.g.(.|.iXiX).3 e 6.;X",
"].4 ..%X:X).< % ; = = # : : * : # . O | XXJ.H.H.{ @X>X+XXXXXH.R ,.,.,.k s ^ ( X.OX2X2Xh.` W..X{.{.tX:X&X}...:X=X XpX~.d i d..XtX",
"sXI $ P ^.).9 @ = - - + : : + + + n J.XXY.C.H..XT.XXXXP.T.+XH.W ,.,.,.j g ,.,.h s ` kXCXE.>XK. .!.(.OX*X#X%X}.(./.d.! d.).-XaXlX",
"sX XP & - 4 & # = = = = : : + + 5 J.XX+XY.| J.R.R.T.P.T.R.R.Y.W ,.,.;.g ;.,.:.h j R @XAXG.X./ k / Q e.k.j._.).}.OX1X;XtXsXiXtXtX",
"sXiXhX).g.U U L - @ * + * * @ X C.R.Y.T.J.J.XXXXP.T.R.XXY.T.T.` k ,.g j :.,.9.w./ T S.4X'.^ g g j j j j j 7.e.l.x.'.oXaXtXiXaXtX",
"hXuXpX4XtX:X:XhX..< @ + * * % o J.T.R.R.Y.P.Q.T.P.T.XXXXT.T.T.J.^ k h ,.:.9.w.7.R S.X.( L.E k :.,.,.,.:.:.8.9.8.8.t.v._.@XpXaXrX",
"gXhXiX:XhXjX:XgX:X).I 4 $ + + . n U.+XXXR.P.P.R.T.P.P.R.P.P.R.Y.W g :.,.q.0./ s E ~ Q r.^ E h ,.,.,.9.:.:.9.9.w.i.a.p.f..X#XtXuX",
"pXjXjXaXpXVX=XpXpXpXpXOXh.U L 6 6 ) K.Y.T.Y.R.XXP.T.T.T.T.R.+XY.~ j ,.q.w./ g s Q 5.7.7.:.u h ,.,.,.9.q.w.p.p.v.l.x.).1X-XrXrXrX",
":X4XhXkX=XdXsXhXjXjXpXpXpXhX4X1X1X|.[ H.Y.T.T.R.R.T.T.P.P.R.+XK./ :.q.7.Q h j ;.g / 8.:.:.h 8.q.w.p.v.v.l.x._.).1XjXaXuXsXiXtXxX",
"4XpX4XpXdX:XgXpX4XdXpXpX4X4XiXpXpX;X1XG.S.| } ] | P.T.XXXXP.T.( 8.q.7.g k :.:.:.k :.9.9.8.t.l.n._._.OX,X&X:X-X-XaXtXpXtXiXjXpXrX",
"pXpX:XhXpX:X:X=X4XjXjXnXdXhXaX%XS.] } ] n x m N m G K.R.| X.~ / 9.7./ 8.:.;.;.8.e.e.z._.OXOX=X4XaX&X4X4X4X&X:XpXuXaX:X:X:XsXiX#X",
"iXjXkXpX4X4X4XjXpXgXhXhXiXdXsXG.C } H Z m N F F N v m m W R h 9.7.7.e.e.z.`._.OX=X1XaX:X=XdX&X=X-XiXpX4XiX:X&X4X4X:XrX;XsXiX&X:X",
"iXpXsXpXpXdXhX4X4X:XiXiX4X;XoXA.C Z A D F F F D G J J m u m m ^  .(.4X1X4X4X4XgX4X:X:XjXiXgX&X&XaX:X:XtX-XiXaXiX:X:XaXiX:X:X-XtX",
"jXcXdXhXjXpXdXpXkXhXjXaXA.Z V D S S F F D J V.Z.F.B.B.C x D Z.S.[ *X4XiX:X:X&X&X:XiXpXpX:X4XiX:X:X4XiX&X:XiXpXaXiXdXpXsXpX#X:XaX",
"jXaX:XiX4X4X4X:XpXpX:X}.b S F F J V.V.C.L.F.G.G.}.(.B.M D I.F. X4X4X4XjXkXpX4X=XjXjXjX:X:XiXjX&XdXsXiXrXnX:X-XtXsXpXaXpX:XtXsXtX",
"pXjX4X:XMXhXjX4XjXpX;X) m F F J Z.B.(.*X3XuXiX|.{ A S D V.$XA.*XhXsX4XsXpXuX:X=X4XpX:X4XpX:X:X4X:XiX:XsX:X:X-X-X4XpX:XsXsXaXiXaX",
"sXcXjXjX:XhXjXcXsXpX(.A v S F D H [ ;X=XkXhX4X' v F F F I.$XN.;XuXiXpX4X4XiXhX@X:X4X=X4XsXiXsXiXaXpXpXpX@X#XtX:X-XiXiXsX:X&X:XdX",
"dX:XkXcXjXdXuXkXiXiXG.b S v S S V }.iXpX4XhX4XC v F F D Q.L.D.pXpXiX=X=XiXpX=X:XpX4X:X:XdX4X4X:XiXtX:XsXaX:XaXiXaXsXaX-XiX-XtXxX",
"cX4XpXgXjXpXjXjX:XiXpXG.Z V b C }.aXpXpXpXcXoXb v F F J Q.A. XiXkXjXzXiXdXpXiXpXdXhXdX:XpXpX:X4X:XiXaXsXtXpXpXsX:XiXtX-XrXiXiXaX",
"cXhXnXjXjXsXjXpX:XuXiXsX%XU.}..XiXjX4X4XpXhXS.b v F F V.Q.F.rXiXuXhXcXpX4X4X:XiXpXjXdXcXjX:XiXcXjXtXjXiXiXsXiXsXgX&XtXgXpXsXxXsX",
"cXjXdXpXjXxXjX4XjXiX:XiXiX4XpXpXhX4XpXhX4XG.V V S F F I.E.(.sXsX=XsXpX4XhX:X@X4XiX4X4XiXgX4XsXpX:XiXaXgXpXiXsXcXMXaXcXsXaX-X:XiX",
"bXsXiXsXjXMXjXpXiXsX4X4XpXpXhXzXiXpXdX4X:X_ Z b F F J Q.F.uXpXhX4XjXpXjXkX:X:X=X4XjXaXpXiXpX4X:X-XiX&XiXaXsXzX:XsXpX-XiX:XtXsXaX",
"jXsXsXpXsXaXjXpXiXiXpXpX4XdXpXcX:XiXpX4XiXF.C A F F J $XF.{.lXjXpXpXjXpX4XjXpXjXhXdX:XdXpX4XpXiXtXnXsXjXjXpXaXiXjXsXsXsX:XiXcX&X",
"sXcXsXjX4XpXaXaXjX4XpXCXsXpXdXdXaXiX4XpXpX3X' A F F V.$X$XL.A. XjXpXpXjXjXpX4XpXiXsXsXpXcXdXkXhXiXiXuXsXaXxXjX:X-XiXsXsX:XtXsXaX",
"cXVXjXzXxXxXsXiX:XjXjXgXcXhXpX:XpX4XiXpXpXzX XV F F V.yXyXyX.XN.=X=XMXhXgX4XpXdXzXjX:X-XhXpXpXaXpXcX:XtXaXaXiX:X4XiXaXxXjX:XdXtX",
"sXMXpXaXsXpXcXpXiXpXaXiX4X4XpXpXpXsXbXsXpXpXiXA.M D F V.V.C.U.' oXcXpX4XpXpX4X4XpXpXhXgXsXaXsXiXaXpXtXiXtXiXiXrXaXaXxXjXaXcXcXxX",
"jXcXcXCXiXpXaXdXjXsXcXpXpXcXdXjXjXjXkXpXdXjXsXpXN.A F S S J W.N.;XpX4X4XiXaXkX&XpXpXiXaXpXdXsXjXsX:XtXgXjXpXpXdXjXiXaXjXaXxXsXxX",
"kXVXjXsXpXjXNXNXdXhXCXjXpXjXiXpXjXpXiX4XaXpXsXxXuXA.Z V V Z A.(.4X4X4XpX:XpXpXpXpXpXaX:XjXsXjXpXiXbXpXsXdX:XiXnXtXtXsXjX:XaXaXaX"
};
