/* XPM */
static char *rocks[] = {
/* columns rows colors chars-per-pixel */
"64 64 255 2 ",
"   c #762C5C",
".  c #7D3362",
"X  c #8B1648",
"o  c #99174B",
"O  c #89165A",
"+  c #991B57",
"@  c #A41A56",
"#  c #B31F5B",
"$  c #972356",
"%  c #A82157",
"&  c #B6235E",
"*  c #881F65",
"=  c #9C1B68",
"-  c #A81D6A",
";  c #B21E70",
":  c #9A276A",
">  c #8D316D",
",  c #9C2672",
"<  c #A92668",
"1  c #B82667",
"2  c #B4336E",
"3  c #A82A78",
"4  c #BA2779",
"5  c #A8377B",
"6  c #C32C6A",
"7  c #C52879",
"8  c #D2267D",
"9  c #DD257A",
"0  c #CA3578",
"q  c #D5387D",
"w  c #974779",
"e  c #B84578",
"r  c #CA447C",
"t  c #9B3C85",
"y  c #B62A87",
"u  c #AA3783",
"i  c #B53787",
"p  c #B93691",
"a  c #C92A82",
"s  c #CF2E88",
"d  c #C93785",
"f  c #D43C83",
"g  c #D8388A",
"h  c #C93894",
"j  c #D63A95",
"k  c #E92A89",
"l  c #ED3B84",
"z  c #E43A89",
"x  c #E73C94",
"c  c #F33A98",
"v  c #D43CA2",
"b  c #E93DA4",
"n  c #9D4E81",
"m  c #A74785",
"M  c #B94C8C",
"N  c #A65788",
"B  c #B75696",
"V  c #AF6292",
"C  c #B76996",
"Z  c #BF5FAB",
"A  c #B96EA5",
"S  c #C64588",
"D  c #D64788",
"F  c #DB428A",
"G  c #CB598E",
"H  c #D9518D",
"J  c #C94996",
"K  c #D94799",
"L  c #C95798",
"P  c #D85998",
"I  c #E6468C",
"U  c #F1468C",
"Y  c #E24D93",
"T  c #EC4299",
"R  c #E54898",
"E  c #F24699",
"W  c #E85499",
"Q  c #F65899",
"!  c #C9668F",
"~  c #C9699B",
"^  c #D7659D",
"/  c #C7789C",
"(  c #F0629D",
")  c #CC45A3",
"_  c #DC4CA4",
"`  c #D947A8",
"'  c #CA58A5",
"]  c #DB57A7",
"[  c #D949B7",
"{  c #CD53B6",
"}  c #DA58B7",
"|  c #E34BA4",
" . c #E748A8",
".. c #F24CA3",
"X. c #F549A8",
"o. c #E453A4",
"O. c #EB54A3",
"+. c #E35CA3",
"@. c #EB5CA3",
"#. c #EA54AB",
"$. c #E358AC",
"%. c #EC5CAB",
"&. c #F356A5",
"*. c #F455AB",
"=. c #F35BAB",
"-. c #E84CB1",
";. c #F64EB3",
":. c #E959B6",
">. c #F354B3",
",. c #F95DB3",
"<. c #F65AB9",
"1. c #C868A7",
"2. c #D867A8",
"3. c #CA79A7",
"4. c #D778A8",
"5. c #D768B3",
"6. c #C972B6",
"7. c #DA76B8",
"8. c #E968A7",
"9. c #F667A9",
"0. c #EB72AD",
"q. c #F573AD",
"w. c #E767B7",
"e. c #EC6BBC",
"r. c #F765B5",
"t. c #F46BB2",
"y. c #FB64BC",
"u. c #F56CBB",
"i. c #FB6BBC",
"p. c #E878B6",
"a. c #F27BB5",
"s. c #F876B8",
"d. c #F37CBA",
"f. c #D64FC0",
"g. c #D459C6",
"h. c #EA54C2",
"j. c #E358C6",
"k. c #D87AC3",
"l. c #D867D2",
"z. c #E86AC7",
"x. c #F669C7",
"c. c #FD6CC4",
"v. c #E878C6",
"b. c #F474C4",
"n. c #FB74C4",
"m. c #F57BC1",
"M. c #FB7CC3",
"N. c #F377CC",
"B. c #FC74CB",
"V. c #FB7ACD",
"C. c #EB64D1",
"Z. c #EB77D5",
"A. c #F479D5",
"S. c #FC7DD3",
"D. c #BF8AB1",
"F. c #C783A9",
"G. c #D586AB",
"H. c #D887B6",
"J. c #DC8BB2",
"K. c #DB95B8",
"L. c #E788B7",
"P. c #EE8DB5",
"I. c #EC8EB5",
"U. c #F784BC",
"Y. c #E392B6",
"T. c #EE93B6",
"R. c #E395BB",
"E. c #ED95BC",
"W. c #E39CBD",
"Q. c #ED9BBD",
"!. c #DEA3BC",
"~. c #E3A2BE",
"^. c #EBA1BE",
"/. c #D492C8",
"(. c #DD99C9",
"). c #E788C7",
"_. c #FB84C3",
"`. c #F58CC3",
"'. c #FC8BC4",
"]. c #F485C9",
"[. c #FB83CB",
"{. c #FB8CCB",
"}. c #EE9DC2",
"|. c #E999C6",
" X c #F797C7",
".X c #FC94CC",
"XX c #FB9CCD",
"oX c #EB89D6",
"OX c #FC84D3",
"+X c #FC8AD4",
"@X c #F585D8",
"#X c #FC8DDB",
"$X c #EC97DA",
"%X c #FC93D4",
"&X c #FB9BD3",
"*X c #F293DC",
"=X c #FC95DA",
"-X c #F59AD9",
";X c #FC9BDC",
":X c #DEB1DA",
">X c #E5A3C3",
",X c #EDA3C5",
"<X c #E5A8C6",
"1X c #EDA9C6",
"2X c #EEA5C9",
"3X c #EEABCB",
"4X c #F0A4C5",
"5X c #F6A5CC",
"6X c #F1ABCD",
"7X c #E2B3CA",
"8X c #EEB2CE",
"9X c #F0B0CD",
"0X c #EEADD1",
"qX c #E8A5DA",
"wX c #FCA4D3",
"eX c #F4A8D7",
"rX c #FCABD4",
"tX c #FCA4DC",
"yX c #FDACDC",
"uX c #EEB4D2",
"iX c #EEBAD5",
"pX c #EFBBD9",
"aX c #F0B4D3",
"sX c #FBB3D6",
"dX c #F1B9D5",
"fX c #FDB4DB",
"gX c #F1BDDA",
"hX c #FDBADD",
"jX c #EC8DE1",
"kX c #F589E3",
"lX c #F797E4",
"zX c #FB9CE3",
"xX c #DFBAE7",
"cX c #ECA9E9",
"vX c #F6A6E6",
"bX c #FCA3E2",
"nX c #FCACE2",
"mX c #E9B2EA",
"MX c #F8B7E7",
"NX c #FCB4E4",
"BX c #FDBDE3",
"VX c #F8B5F3",
"CX c #EFC2DC",
"ZX c #F8C3DD",
"AX c #FDC4E3",
"SX c #FDCBE6",
"DX c #FBC4EA",
"FX c #FDCBEB",
"GX c #FDD4EA",
"HX c #FDD6EB",
"JX c #EBC5F2",
"KX c #FAC9F4",
"LX c #FAD6F6",
"PX c #FCE5F6",
"IX c #FDF1F8",
/* pixels */
"aXuX6X2X6XaX}.5XaX|.2XaX2X,X2X}.2X0X}.,X3X0X2X6XdX|.|.2X2X2X}.|.4X0X}.}.dX0XeX6X6XpX6XuXuX2X}.pX2X0XCXpX0X2X2X2XaXdX0XsXaX5X,XaX",
"uX2X2X6X2XaX}.6X6X0X3X}.U.E.2X,X3X2X}.,X3X}.0XaX}.}.4X6X4X}.aXR.4.3X0X0X2X|.}.0X0X2X2X2X0XuX2X0X2X2XdX2X}.dX5X6XpX}.0XdX4XaX2X6X",
"gX|.0X6X6X2XuX0X6X|.5X,X}.uX2X}.0X0X3XuX,X}.pX2X}.2X2X|.}.|.}.S x 8.R.}.2XpXaX3X0XaX0XdX,X|.4X2X0X0X5X3X2X4XgX0X,X}.6XgXdX6X4X0X",
"0X2X2XaXCX3XaX3X2X}.3X}.uXuX1XaXuXuX2X,X|.}.,X2X2X}.}.}.,X,X4.7  .>.4.2X,XuX0X2X2X}.0XaXdX6XaXuXuXuX5XuX6X4X2X0X}.aX2XpX3X}.pXaX",
"aX2X2X2XgX3X2X0X,XpX3X|.}.3X0XuXpXuX2X,X2X2X,X6X4X X}.4X3X|.a k ;.y...L.0X0X4X2X,X}.6X3X8X6XQ.}.}.}.}.}.`.3X1XdX,X}.3XuX0X1X4XaX",
"BX}.,XuXuX}.pXuX0XuX3X5XP.3X3X2XuX2X,X}.|.0X,X0X8X|.}.6X3XG 9 c ,.c.*.Q H.}.6XaXpX}.1X2X,X3X,X}.,X}.2X,X,X,X0XpXuX2X3XAXdXaX2XE.",
"0X2XuX}.uXuX2XpX6X0X,X,X}.Q.uXQ.1X3X}.}.}.3X6X}.}.,X,X|.G.a k X.y.n.c.X.R L.3X,X4X}.}.|.}.,X}.2X3X3X}.2X}.pX4XaXpXaXpX6XaXaX6X4X",
",X3XuX}.uX6X1X3XpX}.}.4X,X|.Q.3X2XE.E.,X,X6X|.E.E.Q.}.R.G k c ,.c.n.[.*.X.O.p.E.2X2X4X6X4X2X2X1X3X2X3XuX3XuXaXQ.2X,XQ.6X6X}.}.Q.",
"T.1X4XQ.}.,X}.dX1X|.2X}.}.,X2X}.1X,XQ.E.}.}.1X1X}.E.|.4.z c E i.B.c.+Xi.Q W 2.~.1X8X,X2XE.0XuX,X2XE.2XCX,X2X3X3XdX2XaX3XuXQ.,X6X",
"0X6XuXiX,X3X2XCX6XP.2XaX1XaX8X}.}.1X|.1X,XE.,XiX}.,X>Xp.r.X.X.V.B.c.&X'.( 4.8.Y.8X1X2XuX,X3X|.}.,X2XQ.2X9X}.E.6XCX6X}.3XaXaX,XuX",
"3X,X,XiX6XE.E.}.}.1X,X1X1XuXuX2X,X}.E.|.H.R.1X3X}.2XK.B.+X_.i.+X'.'.ZXdXq.( ( G.Q.,XE.Q.1XuX}.2XuX2XE.2XuX0X,X}.9X1X3X1XaX2X}.6X",
"2XuX2X6XCX3X,X}.Q.2XuX,X1X,X,X}.2XQ.,XK.).4.>X3X7X|.R.&XfX%X[.=XXXU.ZXZXP.( Y ^ K.8X8X6X}.,X2X}.2X}.3XQ.,X2X2X2X}.aX0X2XE.1X2XQ.",
"3X}.2X2X2X1X2X3X1XuX}.E.,X1X}.}.6X,X>X|.5X] ^ Y.4XJ.`.NXSXwX{.fXU.U.sXZXU.9.Y P J.,X8X,X,X1X3XQ.2X1X2X,XuX4X|.6XaX0X}.,X6X3X}.|.",
"}.4XuX1XuX}.,X3X}.,X}.1X3XE.,X}.T.T.G.5XrX0.P ~ Y.J.wXSXAXAX;XAXU.U.5XhX4X( Y D 4.}.3X|.1X,X2X2X,X2X}.,XuX1X}.}.uX2X0X}.1X0X2X2X",
",X2X,X2XuX3X,X3X,XE.}.,X}.1XQ.|.Q.~.H.hXfXa.+.W L `.BXSXAXAXAXHX'.s. XrXrX( Y D P J.^.,X3X,X,X1X}.,X2XQ.}.1X2X}.aX0X1X2X2X2X2X4X",
"uX0X,XuX,X3X,X,X2XQ.Q.3XT.,XQ.T.}.K.0XfXwXa.0.] ^ wXAXAXBXAXAXHX'.s.U.rXZXU.Y r D G.Q.8X2X3X3X3X1X3X}.,X,X2X1XE.}.0X6X0X2X}.}.}.",
"2X2X2XuX,X2X,X3X2XP.T.,X,XT.T.,X<X<XNXhXrXa.0.P p.fXSXZXBXhXAXPX'.i.U.hXrXd.W r D ! Q.}.,X,X,X6X3X,X,X2X,X|.2X3XuX2X3X,XE.3X1XuX",
"6X|.2X3XdXpX,X,X2X1X3X2X,XQ.I.<X(.-XyXyXfXL.8.P E.hXAXhXBXZXDXIX'.s.XXXXs.t.Q q 0 r G.4X,X2X3XuX,XE.uX1XQ.1XQ.1X|.2X2X2XP.P.,XpX",
"2X}.1X2X3X8X,X1X1X1X^.^.2X,X}.,X).zXtXrXrXU.2.2..XhXhXhXhXhXSXIX'.'.{.i.r.8.@.f 0 0 ! 6XQ.,X^.,X2X,X3X3X2X,X1XuX}.}.uX2XuX}.E.0X",
",X2X3X1X,XQ.,XT.,X1X,XT.,XQ.Q.|.$XvXtXwX5XP.^ 8..XhXsXsXhXhXGXIXXX.Xs.r.r.9.@.I 0 0 e K.,X2X6X^.8X1XT.T.2X3X3X}.}.3XuX}.,X3X3X2X",
"1X8X1X8X3X6X8X,X1X1X8XT.Q.Q.}.(.lXtXwX&XwXE.P W  X5XwXrXfXfXGXIXrXM.i.r.r.=.Y Y q 0 1 G.8X,X,XJ.R.}.3X}.,X3X,X<X}.0X2X}.,X}.}.}.",
"3X3X}.2X3X^.^.2X1X^.^.Q.1X}.}./.zX;XXXXXXX XG 9.T.U.U.wXwXrXGXIXwXi.r.,.9.9.I W r r 6 e E.2XJ.f 2.>X,X,X}.,X,X8X3X,X2X1X2X3X,XE.",
"4X9X8X8XQ.^.T.1X1X,X,X1X,X8X1X).zX=X.X.XXX`.H 9.U.q.s.'..XXXSXIX{.y.,.,.,.&.I I H r 6 e Y.^.J k <.p.R.^.iX,X2X3X}.}.pX8X6X9X}.,X",
"iX,X,X8X1X4XiXT.T.Q.1XQ.E.1XW.p.#X.X_._.`.a.H q.9.9.q.s._._.SXHXM.r.*.*.=.W F r Y 6 & & 3.~ 8 X.i.*.p.,X,X,X2X2XE.,X}.2X3X2X,X2X",
"1X8XQ.^.,X8XuX^.,X1X2X,X8XQ.Q.7.S.{._.d.s.8.H 9.Q 9.( q.s.s.fXAXs.*.*.=.X.W F q g 0 & # e d c ;.y.y...L.}.8X,XQ.|.}.1X,X1X2X1X2X",
"^.2X1X2X8X1X1X,X,X1X^.,X7XW.^.p.B.{.s.t.9.P Y Q Q Q Q 9.9.t.rXBXi.*.*.....&.F 0 q f 1 # ; k c y.c.n.X...L.gX,X}.,X6X}.2X}.2X,X,X",
"Q.,X4X4X,XQ.1X8X}.!.K.7.K.K.K.5.w.w.=.#.@.P z U Q Q Q 9.=.t.eXfXr.*.......W g q 7 0 1 2 x c X.n.c.[.y...+.R.,XQ.aXpX8X1X,X2X2X3X",
"^.,X^.,XT.1X1X3XQ.H.cXvXMXMXMXeX$X5.K R @.D q k l I U U R %.XXrXr.*.......T g q 4 1 2 2.V.i.y.V.i.%X X8.8.H.,X1X6XE.2X}.}.}.T.8X",
"6X,XQ.Q.8X8XQ.^.K.$XbXNXNXBXBXnXbXcXM g K d 7 7 8 g s g j K ).XXo.j j j x x g 0 1 @ m &XyX=XV.&X`.sXdXq.8.4.^.2X}.,XuX2X}.}.,X}.",
"1X,X6X^.1X1X^.<X(.;X#XNXNXBXtX=X%X%X5.y d 4 7 7 7 8 a d h g p.).K j s a a 7 d 4 - + 2.bXSXfX%XwX_.rXhXL.8.^ Y.^.3X3X}.2XP.3X3X2X",
"T.1X4XQ.^.9X1XK.vX@XOXzXbXbX+XOX+X[.b.p 4 < 4 7 ; 4 i ).qXk.k.k.' d y a 7 4 0 4 + 3 m.yXFXDXfXhXU.rXhXE.W H G.2XuX}.}.2X}.}.3XE.",
"1X4X2XQ.^.Q.Y.$XlXB.@X;XBXtXu.u.n.n.c.M 3 O @ ; 4 ' *XBXKXmXjXxXxXxX:X/.' i 4 - + J m.nXBXBXAXSXs.rXfXXX8.D P R.2X}.,XE.,X3XE.}.",
"8X8X,XQ.^.T.H.lXS.B.zXDXFX%Xr.#.#.#.#.h > > X 5 7.=XnXBXmX$Xl.oXmXJXLXVX@X*Xk.5 $ ] d.%XtXyXFXGXs.wXrXrX0.D H 4.T.^.Q.E.2X3XE.}.",
"}.,X^.,XQ.1Xv.@XA.nXKXFXDX].%.#.K J _ h u M B ).=X=X-XNXcXZ.j.j.jXmXmXC.jXVXKXD.3 _ e.d.%XtXGXHXs.XXsXrXq.D r G ,X8XiX,X,XE.,X|.",
"1XuX1X,X^.W.e.[.nXKXFXDXBXm.#.o.d %.:.h u 6.=XbXNXtX%X&X*XZ.C.z.Z.$Xl.f.l.jXcXk.u ) 8.r.[.tXGXHXU.XXXXt.9.Y r S J.Q.1X3X8XE.}.|.",
"uXuX1X^.Q.I.e.@XNXFXDXBXnXe.$.d g [.c. .] +X*XeXNXAXBXBXvXcX*XoXA.].w.[ { g.l.g.i J $.w.d.&XHXLX'.%Xs.9.W Y 0 6 ! 1X}.,X,XE.}.1X",
"iX^.8X^.Q.K.].%X=XAXBXNX&X:.J 8 :.%Xn.>.-.} v.$XeXNXAXSXMXcX*XA.z.N.b.:.f.g.g.g.i J _ 8.t.%XHXPX&X[.i.=.@.Y q 6 e R.,X}.^.3X2X|.",
"8X^.^.T.Q.Y. X*X+XyXyXwX`._ D o.{.%X[.;.r.R 5.$X*XeXhXAXNXcXoXZ.x.v.DX%X-.f.f.g.M i K w.t.{.PXIXXXM.9.=.@.F F 2 1 G.E.}.1X}.P.,X",
"9X4X^.^.2XY.eX&XB.{.{..X].2.&XAXBXZXXXU.P.H J 7.).$XeXfXeX*XoXN.z.b.MX[.-.` { g.' y j %.%.].HXPX_.i.*.*.@.f F 6 & N 2XQ.}.Q.,X0X",
"6X4X1X^.3XR.eX=Xi.s.M._.p.L.BXHXSXGX5XL.L.P q ' k.).).wX*X@X@XV.z.<.<.<.>.b [ } ] 3 h o.8.].PXGXM.,.....O.f q 6 & 2 J.}.2X,X}.|.",
"1X1XiX8X^.Y.BX%Xr.r.t.t.2.rXGXGXSXHXrXa.p.2.q G { v.v. X+XN.z.h.:.h.>.<.>. .>.e.:.i h o.%.d.SXAXr.......E f 0 0 % % 1.>X,X2X|.2X",
"1X1X1X^.^.R.nX].>.&.r.] L.AXSXSXGXHX5XP.a.8.D S M 5.7.v.v.:.-.` `  .-.<.<. .<.u.:.u h o.#.d.rXwX#.......W I 6 0 & o L $XJ.3X2X,X",
"1X8X^.^.3X>Xz.y.-.o.o.P eXAXhXAXSXGXsXa.8.8.H d M B 5.} $.-.-.` v v h ` #.-.i.:.4 3 h K o.U.wXXX&...E c T I 7 6 & o 2 =X-XH.|.2X",
"8X8X8X1X1XK.J v.p.w.L L.hXfXyXsXZXSXsXa.0.0.Y 7 d u p ) ` -.` v v { ).k.5._ _ 5 : 3 h j K u.5XXX%...X.E x H 0 1 & o $ +.lX(.E.E.",
"^.1X8X8XR.R.).*X5.) P {.rXrXrXwXrXSXgXd.0.8.W 0 1 < y p [ v v 6.(.jXlXjXoX$X6.m 5 5 d h ` %.E.`.=.*.c E x F 0 & @ % o K +X|.<XuX",
"1X1X~.>X|.=X@Xz.] h P '. XwXwXwX XhXfXa.9.+.o.d - - = , y Z /.KXlXkX*X*XC.A.kXvX|.Z i p _ $.a.a.8...c c x F D & @ o $ _ N.|.|.}.",
"9X^.7XyX;X;X+Xw.] p Q q.U.XX.X_.U.fXfXa.8.R Y f < = O t /.JXLXlXkXlXjX*XZ.C.C.C.lXNX-Xk.1.) 0.0.8...T E z g D 1 @ o $ _ x.v.K.I.",
"^.7XqXbX;XzXN.5.P S Q q.U.U.U.q.d.fXeXa.@.W Y h 4 > A JXPXJXkXkXkXjXlX$X*Xj.j.j.f.Z.lXKXLXA 2.2.#.T T c z q D 1 @ o $ $.c.V.H.}.",
"4XQ.u.OX=X].e.2.J q Q 9.q.s.s.9.d.rX5Xa.@.R g 4 u xXLXLXVXkXZ.A.A.-XvXNXnXoX` ` [ ` [ oXLX/.' 2.R E c x q 7 4 % + X X ] B.N.p.,X",
"8XR.n.;X*Xz.e.} M F U Q Q 9.Q &.d.rXwXq.O.F 4 - 1.LXPXVXC.-.;.h.@XlXMXLXLXKX/.) ] :._ j.lX:XL ] K g s 7 d P G.! V < $ #.x.B.7.2X",
"3Xp.%XtXN.e.e.] 0 q U Q Q Q Q Q t.`.`.8.K d 4 - { lXjXA.X.;.<.B.kXlXnXKXLXLXDX$Xz.} ` z.@XcXB M 7 4 7 ] b.+XQ.,X Xo.3 x T T 4.}.",
",X).zX).%.e.e.$.S l U Q E Q W R 9.U.d.O.R g 7 = ) C.A.b.X.;.C.kX#XkXbXVXLXKXnXbX-Xv.` C.@XlXA i i R u.B.%XtX Xa.n.&.0 h T P R.2X",
"<XK.=X:.| r.u.2.r U l U U I W U t.U.a.O.R g 4 = ) C.lXc.;.-.N.A.kXkXzXnXVXBXbXzX*XoXw.v.@XA.6., K c.c.N.].&XwXi.y.O.s 4 H G.Q.4X",
",XJ.a.;. ._ #.K & 9 l l U I U R a.U.a.o.F g 4 = ` *XvXh. .-.h.A.OXkXkXzXnXzX=X#XV.N.v.Z.@XA.k., g >.#.| $. X5XXXi.O.g S 1.(.|.3X",
"8X4X4...;. .x j 1 & q U q I I W q.U.a.W R s - = k.vXZ. .b -.h.N.S.kX=X=XzX=X#X+X[.b.b.A.A.Z.Z.n j >.| _ $.].5XsXXXb.u.} 1.oXvX>X",
"pX3X7X2.;.,. .K 0 X 6 l 9 l g Q 0.a.u.O.g 7 = 3 A.#XB.>. .;.x.V.OXS.+XOX=X#X+XOXV.N.x.[.@Xj.z.m  .y.$._ $.b..XrXwX].m.] 5.oXqX>X",
"gX9X1XW.$.<.,.>.o.$ o q q q q Q 9.8.t.R s ; O 3 v.x.<.c.x.<.x.S.S.S.S.V.OX#X#X[.B.c.x.M.%Xx.L , j >.-.$.w.b.{.XXXX'.M.o.} 4.|.,X",
"CX3X^.1XY.2.#.*.%.5 o q R I U Q =.%.8.R 4 - O * ) b ;.c.c.c.c.B.S.S.B.c.OX#X#XOXS.<.X.y.%Xz.> * y | _ $.u.M.m.{.'._.d.e.w.6.>X3X",
"8X1X3X1X3X~.K.J.J./ 2 U @.0.q.Q Q @.#.j y 4 = O * J :.*XbX+Xc.c.S.OXS.B.OX+X+XOXB.c.X.>.].3.F.G.M s ` | y.b.b.s._.M.n.OX*XH.uXE.",
"1XiX3X8X,X1X1X1X9X^./ I 9.s.a.d.O.| _ s y y , 5 A m ` z.nXDXnXOXc.B.S.S.OXOX+XB.<.c.<._ B J.<X1XG.i x  .:.n.u.t.n.s.i.y.w.H.0X1X",
"pXgX8X8XuX8X8X,X^.8X1XJ.^ r.t.d.w.h p y y p N ~.Q.K.A L ] N.zXnXbXOXB.B.+X=XyXS.n.w.m   . n Z v.1.w 5  .>.r.b.n.n.i.c.r.1.R.4X}.",
"3XiX1X,X8X3XiX1X,X1X1X^.W./ ] i.n.>.v h h C ^.8X8X,XW.~.G.1.w.A.zXvX#XB.OX%X[.5.w     . w w w m w N w m _ ,.c.B.].).7.3.K.aXpXuX",
"9XiXgXCX1X3X1X4X8X8XiX9X^.iXG.~ t.9.K m C 7X8X8XCX1X^.^.^.~.K.G.6.v.N.c.y.P 5 . > w w w n n N N N N V V B G ] 5.3.G.~.3X1XuX1XaX",
"9XCXiX8X1X9XdXCX1X1XCX8X8X8X4X~.F.3./ G.1X9X8X8X^.1X^.9X^.Q.1X~.3.C ~ J m w w w w n N V N V C V C C C 3.A F.F.F.R.}.2XuX}.2X1X1X"
};
