/* XPM */
static char *wall[] = {
/* columns rows colors chars-per-pixel */
"64 64 256 2 ",
"   c #7E4870",
".  c #772861",
"X  c #8E335A",
"o  c #A9295A",
"O  c #9A3965",
"+  c #923A6E",
"@  c #A73B6A",
"#  c #B8386B",
"$  c #A73B76",
"%  c #B63B74",
"&  c #A92F68",
"*  c #A21B5D",
"=  c #CC3877",
"-  c #98476A",
";  c #994876",
":  c #985978",
">  c #8D4F6B",
",  c #A9456D",
"<  c #B7476D",
"1  c #A54B73",
"2  c #AB4C7B",
"3  c #A84677",
"4  c #B24B7C",
"5  c #B74778",
"6  c #AB537C",
"7  c #A75778",
"8  c #B4537C",
"9  c #B7577A",
"0  c #BA526F",
"q  c #A6677C",
"w  c #B8657E",
"e  c #A27677",
"r  c #94526C",
"t  c #C6497A",
"y  c #C6567D",
"u  c #D04A7F",
"i  c #C2647A",
"p  c #953986",
"a  c #B73B85",
"s  c #D1398D",
"d  c #9A5386",
"f  c #AC4B84",
"g  c #A64783",
"h  c #B34C83",
"j  c #B84986",
"k  c #A95786",
"l  c #B45583",
"z  c #BD5484",
"x  c #B35C84",
"c  c #BC5B84",
"v  c #B45C8A",
"b  c #BC5B8B",
"n  c #B7548B",
"m  c #A85893",
"M  c #B85994",
"N  c #BA4B93",
"B  c #9B6E8F",
"V  c #AA6688",
"C  c #B36384",
"Z  c #BD6385",
"A  c #B4648C",
"S  c #BC648C",
"D  c #B46A8C",
"F  c #BC6B8C",
"G  c #B76B84",
"H  c #A57185",
"J  c #B9738A",
"K  c #AA6795",
"L  c #BC6494",
"P  c #BC6B93",
"I  c #B76797",
"U  c #AC7796",
"Y  c #BC7394",
"T  c #BD739B",
"R  c #BB7B9A",
"E  c #B57697",
"W  c #BA68A2",
"Q  c #BA78A4",
"!  c #B06BAB",
"~  c #BC5AA3",
"^  c #C64A86",
"/  c #D64A89",
"(  c #C25484",
")  c #C3538B",
"_  c #C45C8B",
"`  c #CB5B8B",
"'  c #C85786",
"]  c #D6598A",
"[  c #C35B93",
"{  c #C95996",
"}  c #D35C93",
"|  c #D65899",
" . c #CC4B98",
".. c #EC5292",
"X. c #C3628D",
"o. c #CB638C",
"O. c #C26B8C",
"+. c #C66687",
"@. c #D4658C",
"#. c #C7758B",
"$. c #C46494",
"%. c #CB6494",
"&. c #C36C94",
"*. c #CB6B94",
"=. c #C4649B",
"-. c #C36C9B",
";. c #CB6C9C",
":. c #CC649B",
">. c #D46495",
",. c #D36C94",
"<. c #D36B9B",
"1. c #D96699",
"2. c #C47294",
"3. c #CA7394",
"4. c #C4739B",
"5. c #CB749C",
"6. c #C47A9C",
"7. c #CB7A9D",
"8. c #C57C94",
"9. c #D4739C",
"0. c #D17C9B",
"q. c #D87598",
"w. c #D6748E",
"e. c #E46899",
"r. c #E4779D",
"t. c #F26B97",
"y. c #CF5CA3",
"u. c #C867A5",
"i. c #D36BA3",
"p. c #DA6AA5",
"a. c #C374A3",
"s. c #CB74A3",
"d. c #C47BA3",
"f. c #CC7CA3",
"g. c #C878AA",
"h. c #D373A2",
"j. c #DA74A3",
"k. c #D27CA4",
"l. c #DB7BA4",
"z. c #D47CAA",
"x. c #DB7DAB",
"c. c #D775AB",
"v. c #C879B4",
"b. c #D879B4",
"n. c #CE69B2",
"m. c #E467A5",
"M. c #E37CA4",
"N. c #E679A9",
"B. c #E57BB6",
"V. c #F573AB",
"C. c #D277C9",
"Z. c #E07DC0",
"A. c #A88798",
"S. c #B98499",
"D. c #B98D92",
"F. c #B986A7",
"G. c #B88AB2",
"H. c #B999B6",
"J. c #B794A7",
"K. c #AC95B0",
"L. c #C8849C",
"P. c #D6869D",
"I. c #CA909E",
"U. c #C383A3",
"Y. c #CC84A3",
"T. c #C384AC",
"R. c #CC82AB",
"E. c #CC8BAB",
"W. c #C88BA5",
"Q. c #D384A3",
"!. c #DC8BA4",
"~. c #D484AB",
"^. c #DB84AB",
"/. c #DA8BAB",
"(. c #D58AA7",
"). c #C895AA",
"_. c #D796AB",
"`. c #C989B5",
"'. c #D584B3",
"]. c #D48BB3",
"[. c #DC8CB3",
"{. c #DB8BBA",
"}. c #D886B7",
"|. c #C997B7",
" X c #D494B4",
".X c #DD9CBB",
"XX c #D897B7",
"oX c #E483AC",
"OX c #E488A9",
"+X c #F285AA",
"@X c #E795AB",
"#X c #E483B3",
"$X c #EB83B3",
"%X c #E38BB4",
"&X c #E38CBA",
"*X c #EB87B8",
"=X c #F888B8",
"-X c #E394BB",
";X c #EB94BC",
":X c #E49BBC",
">X c #EC9BBD",
",X c #E696B4",
"<X c #F598BA",
"1X c #F497AE",
"2X c #C9A7B6",
"3X c #D8A5B9",
"4X c #D4AAAF",
"5X c #E7A6BC",
"6X c #F6A6BD",
"7X c #EDAEB9",
"8X c #E1859E",
"9X c #B9ADC8",
"0X c #D787C4",
"qX c #C99BC7",
"wX c #D999C4",
"eX c #D295CE",
"rX c #E48AC2",
"tX c #F88AC4",
"yX c #E899C5",
"uX c #F898C7",
"iX c #F79AD6",
"pX c #ED96D4",
"aX c #DAA6C6",
"sX c #D9B6C9",
"dX c #DAA9D6",
"fX c #DAB8D6",
"gX c #C8B0CC",
"hX c #E5A4C4",
"jX c #E8A9C8",
"kX c #F4A5CB",
"lX c #F9A8C7",
"zX c #E8B6C6",
"xX c #F8B6CB",
"cX c #E8A9D4",
"vX c #FAA8D6",
"bX c #E9B6D7",
"nX c #FEB4DC",
"mX c #F9B7D6",
"MX c #FAABE7",
"NX c #FBBAE4",
"BX c #EAB1E7",
"VX c #E7A6E1",
"CX c #D3C8D4",
"ZX c #E9C7D8",
"AX c #FCC7D7",
"SX c #EFCED1",
"DX c #FFC3E4",
"FX c #FCC9E9",
"GX c #FDD6E8",
"HX c #FFCBF6",
"JX c #FFDAF8",
"KX c #E8D5EA",
"LX c #FFE6FA",
"PX c #FCEAEE",
"IX c #DED8E7",
"UX c #DDCCBA",
/* pixels */
"v.Q NXaX).I.6.2.=.{.[.2.OXN.B.rX#X-X2.*XM.,.W.KX2XtX=.`.{.F.|.] 8.5X1X6X6XY.`.0X1 @.>X3X8 O.V 9 [.j.$X%X2XZXLXgX( 3.%XN.x.bXH.J.",
"|.wXcXjXxX:Xx l.{.R.zXG 6Xx ; 0X%X-X].^.q., R sXbX Xa.I wXmX7.P.T.:XJ 9 lX-XW K <X1.Z U.OXlX).l.U -XuXS  X3XLX4XP ` q.E U 5.XXZX",
"|.jXjXmXkXuX_ <.yXW.GXzXxXL.|.H.>X[.XX~.^.*.{. X_ fXHX[.F.4.4 2XbX{.R.7 [.Q.T d [.M.E.|.>XmXaXlX).`.f.F xX8.@Xi X.4.[.A f.R..XkX",
"6.[.vXjX-.%X&XM - q H 5X3X).DXH.0.Y 6.Y.].}.yXf.G sXJ P E.d.>X).dXa.XXs.k.^.&X-XU.X.R S.~.nXsX6.cXD D 5.6Xw L.w.c  XzXk.,X3X Xq.",
"r.oXuXx.&.'.bXQ 0.6Xr W.GX:X).bXL.L.L.:XT.`.}.M J.mX9 7 : : FX<X`.].R.%XuXkXO.uXyXX.R U &.mXZXD #Xv [.f.7 _.xX7XV <X,X|.W.l.>.Y.",
"+X+X9.$.{.].aXXX6X1XP.#.nX-XV F.xX7XP.>X/.].T : SX<Xo.C 4.2X4Xy XX{.}.lX,X,XZ 7..X>.uX.X<.z.aXk.p.$.jX.Xq 6XSXI.C ,Xq.P.Y.(.7.(.",
"!.^.*.s.z.g.:X Xw.i hXQ.%XyXR.Q GX_.9 w.:X XS.V S.5.q.q.>XxXI.#.4.2.Q.hXF Q.<X@Xk.] x.-.1.<.T b B.R.aXxXI.@X7Xe +. XF e.=X).J.,X",
"E 6.f.rX3 &.yX3.#.@XL._.P I E wX4XS.0 @.lX_.7XmX9 ).~.` 7.P.8XUX2.OXF 7 w 7.hX6Xl.V.B.@ ] m.d.<.a.bXsXsX_.#.AXL._.q.@.oXlX0 L.KX",
"B FXsXU ;.1.<.~.|.J.K a.x.w w.1Xr.@.w CXUX+.lXZX' x.;X, L.4XD.7XSXAXi 0 w 8.lX] 7X!.P.#.1.aXCXtX^.|.SX8X#.U.R.y.+ -X>X!.xX3.7.>X",
"1 Q cXk #X( vXwXtXtXV./ ` 5 P.5X$Xq.L.GX7Xr.6XA.2.d.XX8 ^.)._.r.PXSXw w.S.I.9.# _.Q.#.` o.F.F.<.$XL.7X1X1XY.S ^ E 5XxX6XQ.P.hXmX",
"*Xb 4.P B.i.yX:  X0X-X=.x.0.lXL.{.>XL.AXGX8X8X@XxX2XjX&.OXW.AXe.bXzXq 5X|.dX-.} b F.A 1.f.U ~.}.!.D L.w.1XOX<.e.3XAX_.w 7 W.|.GX",
"m.n I -.z ` rXR 9XG.F.m I g.xXW.H DXI.S.4X8X8XxXzXsXhX3.s.F.hX' C jXR q   jXW % p.`.2 1.NXkX<X6.lX6X@X#.@XOX!.oXJ.7XOX, Z yXF.H.",
"z L R 6 j ^ uXyX) |  .| j k.jX3X|.bXS.#.0 G P.OX#._.5X5.f.|.U 4 #X$.A ].T.E k *Xp.vXn.b.dX].N.L.zXjX3X_.lX!.0.#._.P.lXq.,.nXFXH.",
"-.wX X'.1.m.N.f.f.~.*.rX;.x.f.Y.FXwXk =XoXG 7 M.7 _.XX<.Q.dXU 4.N.;.}..XhXyX>XXX2 &Xz.G.|.5.N.xXZXL.J 4XAXP.O.e P.0.<X_ b :XJXZX",
"k yXbXNX$.j.^.XXKXZXS.T.P X.C O.bXfXA m.r.3XU b O.3Xd.b s.aXXX,.q.X./.,X/.7.E.H A ` k K.cXtX}.7XLX:X5..XzX*.q.D.w O.&.2.6.F.3X4X",
"h.T XXd.4.$.cXH.Z 5.' } 1._ 3.%XcXU 2 t.5 `.G.3  XbXY.:.*XXXlXy C 7.lXlXQ.XXAXJ.L.@.F.9XcXi.7 ).GX[.;.L.I.' =X_.AX(.d.DX X3XSXCX",
"m._ b ~.>X^.o.,.Q rX{ >.+X@XF  X*X$ $.s.k f.b.L ).GX@Xw F.JXaX#.t.o.A.SX1X!.).q.k.5.2 ~.vX6 M *Xh.$.l 6.6.Y.0.M.t.S.).1XU.ZXOXw ",
";.L x a.>Xs.P.uXT.cX'.O.@X1X0.%X;.b L P k uXuX-.ZXzX!.6.U |.XXAX8 ,.I._.P.SX2Xo $.;.&.k.#X9.X.4 j.*.-X.XY.(.%X8 o ).hXo.jXZXX 1 ",
"].g.A f.kXk 6.DXeXwX Xd.@Xi #.uX%.l.3.%Xx 5.k.k.JXE.2.Y eXNXNXhXV 0.5XP.w 4XA.0 1 L <Xi.3 c X._ ^.l.B.^.XXU C 9 6 B XXj.:XjX7.F ",
"Q hXa.1 z.C 4.d.vXb.W 4.@Xi i M.;X;XS [.>X,X^.3.].Y.Q.C v.wX`.7 _ J xX6Xw.I.e W.^.s.^.x S $.%X%X X1.= ` FXsX: <  X2XD j.hXR.vX.X",
"d.{.L 2 *X*.F 4.V.m.j b P.6Xq.1 A k.Z +.lX6X6X0.-.f.(.Y }.g.a..X<.E 5Xr.w.xX(.<XjXjXd.; /.F hX5Xf.j.( ;.P xXjX[.bXFX-X*XhX&.uXW.",
"T 4.x C ^.5.9 ,.' ) N N.q.1X7.l d P 8.G 1XO.k.;X[ &.G q {.}.a.jXR.E N.t.I.IX(.V.bXLXmXf.mXL.xXxX} yXF.Y.@ N.:XZXS.3XkX4.B x ( V ",
"C kXmX3X_.AXOXoXP.9 ;.tXq.' 3.'.vXW &.0.lX0.F %X1.$X5XW.5.c.4.XXY B +XuXSXIXJ / wXhXa.S OXQ.(.J k.-XA k.$XkXF H D mXlX).sX,Xy jX",
"7 V 3XPXsX5X7 <XKX).R.h.q.*.#Xz.cXv.5.#.OX!.F [.' 0 D.I.9 X.&.XXoXA.U (.sXPX!.9.].f.9.oX9 q.0.@XgX-Xt.| q sXjX9 _.(./.PXCX@X=XE.",
"i.M kXwXd.f.b N.IX|.MX0XyXd -.i.vXN.) -.E ZXhXf., @.y H   4 3 2X_.XXQ B pXtX>.9 1 w.sX#.< ,X9 ZXJX].{.uXb.L ;X4.hX: : E yXnXOX,.",
"b h.z.T DXvX&., sXH.! v.}.^.&.=.8.- O 2.: _.7.q.:.` c R {.$ 3 S.@X,XD I m b 3.Q.8 ;.KX0.` OX@.zXXXk a.m h l x x %.=.>X6.Y.E.XX3X",
"}.P 4.g.kXs.N.o.E.T.B ! [ $X-.{.SX)._.AXe 8Xi t -.` 9 V wX=.mXJ.i O.C #Xs.s.E.2XDXA 2X6.( kX=X: U.T L 6 I L ^.;X+.@XQ./. X: mXxX",
"%X6 P yX%Xv h.[ o.v.H.B >.1.X.qXAXzX7XxX- w.@.] k $X*.Q 0X*Xz.e O.#.2.9.o.x.hXGXhXF.H T 8 $X( v kXnX6.-XyXP lX%XzXsXzX6.7.X.%.<.",
"[.4.6 $.^.<X$.S 1.~.bX`.<Xe.b T.L.8.].kX- Y S l X <.1 E {.c.1 SXzXI.Y., ` B.0.hXE : V yXl o.$.X.2.7.1 kX5X6 }.6 ).GX5XY 7 0.j.$ ",
"(.*.X.oX_ #Xx.kXo.4.wXR.q.q.l wXx.I wXHXa.s.A K z.4 +.6.k $ J SX3X).jXY j.M.c 7 U.S.1 Y lXj.P l.c 1 7 xXlXOX%XM.,.l.<Xx 6 DXE E.",
"8 1 M.NX_ l yXnX0.k C Y 7 #.1 *X$XP XXjXs.5.^.hXm o q./.6 ( mXUXL Y.mXkX6 , c.}.XX Xe.,XY.9 XX@X@.' 9 _.P.2._ 1.N.p.[ ) 5.:XK ).",
"1 +.0 } ( x jXjXJX4.;.,X7XAXF p.6 V 3X3Xk.q.l.f.v N.y J P 5 OX4X%.6 E DXk v nXg.+.jXr.lXq 8 J.OX' =X7 P.!.w 9 ` I M =.$ z j.l ^.",
"X.n m M k : fXKXiX| B.Q fXjXs.XXSXi #.AXr.&.U 1.r.H.> ^ *X[.E ZXs.M.|.H.d yXW.+.L.P.7XL.XX5X+.w M., 8 f.jXK W b.^ Q K.qXT.'.yXA ",
"Z n M b.FXjXT.F.M K E &Xb.V d.uX7Xy i L.q.&XF.>.6 7 1 f.mX` # ZXcXU bXgXW }.F OXxX,X@Xw /.3.O +.y 9 ( yXjXcX X{.3 I T.wX{.uXk.0.",
"Q.5.*Xg.E E $X=XXXG.K tXB.;Xh.^ @Xy & 2 p.vXv.g 9 OXnX4.E.5 # ~.3XB fX0XI ;.1.OX:XX b <.` 1.OX,.c 2 < B.~.E.d.yX4.z.*.*.P OX, +.",
"GX4.b.g.S.S.q./ aXA #XyXz ] % D 3.y ` X.2 d.].yXt |.JX$ D I ` ' Y.H.Q N.I % ] J  Xa.b.[ j.9.^.5X[.*.' ' Z k Y.mX3X^.t ^ *.XXO.r.",
"GXE k T.LXZXX./ wXO b z.3 5 5 |.P.1 9 ,.7 _.xXAXe.U jXL cXE.` ] } T & V.b.` t XXE  X'.g =.P _.JX'.$X| $ , 5.,X(.4X0.] ] j.6.<XM.",
"GXbXbXqXXX2.&.i.s 1 K N.' X.3XXXG L.<X1XH ).3X4XY.- >.Q H.; o l / [ y.p.c.MX*.xXU.~.yXg.A : F.bXu.c.% { l %XG 1 .X(.$Xo.8 O oX,.",
"*.Q dXwX;.,.nXdX= k : 6.<.vX5X; R.aX%X1.).5Xy > S n | p.K 8 / 9.1.1.vX`.l vX7.c @ l.k.I pXXXqXbXc.y.$ rX-.f., 5 !.,XjX2.l 5 j.^.",
">.K U 0XtXt a.fX4 8 `.sX- e.5 3Xv.dX{ % Q ~.& b ` =.^ ..j s.1.= P 8 dXH.; h.(.@ t ' $.: k `.yX:  .N a W A k 8 1.0.5XbXF.s.1.4 P ",
"eX`.d.3., =.p C.C v K Q . 0X}.rXFXyXg B.iXm HXqXl bXt / : 9 .. XM.% h ) $.8.xX5XUX4X#. XKXfXG.a I :.# M.GXXXv { / @ uX&XhX:X7 1 ",
"! I k &.*XiXu.iXl h.c.z.d yX`.V A.2XCXB qX`.L h K CXU m.> E uXE.4 4 B.b.2 k AXAXPX!.9.kXHXqX0X$ B.<X*.5.FXDXaX{.` 3 >X(.&.&.9 7 ",
"1 ;.P R.vX'.M MX^ ) _ b.m V R  X$X, 1._ 4 O L T pXCXwX| hXGX@ #.+.4 *.<.1 V 3X: _.@Xe.) g.HX=.^ t ;.(.C 8.D  XLXx Q.f.x F x *.N.",
"+.o.v W VXW L rXO b n b 3 1 7.7.n =.>.^ &X XqX9XQ m ) tXyXV.= i @.9 z c ; 6 Q ; 4XNX% m.i.-.v N.^ O.:Xq 9 O C mX,.q.F 7.A k ].; ",
"o.5 v a.`.m z.&XK W S $.1.9 ( @ y.g T.`.NXyXg y.K b.B.tXL # t.6X< ' 4 9 4 n b.tXD., ( ) i.A f.,X@ 3.mX&.` = ` &.y =Xc %XFXmXjXU ",
"9.b '.'.u.k n.rXbXG.I 0.>.3 t ^  .N { *.;.c.p.N T.FXeXf 2 V : L.5 ` 4 *.,.$.[ p.J %Xn x.rXT 7.- 1 x [.b t # ` ( ` 5 , OX~.bXGXF.",
"vXg.;.X.;.u.M y.aX`.~.x O { b.c.+ m X q.FX3XH.KX-XaXK v.u.A.ZX: f a.k.-Xx 2 h $ }.c.-.nXnXHX6 <XkXL 5 j M m -.2 yX%X'.[.A U.XX.X",
"dXv.-., (  .p C.`.k &.#X$.B.n.~ n 3 w q I.mXq.1.P / { a.C.{ A 3XQ Q R ].7 5.*X[ } , h.f.k lX_ ' d.i.| y.K G.bX XhX].FXDX7 O.%XlX",
"s.| j d fXa.% ,.z ' o.L yX{.` < k | a rXjXY.$X$.x 5 :Xa./ } Q R wXA v O ) :.iXg :.p.+X< # m.C.p 3 1.1.< 8 #.GXCX5XAX_.lX+X' zXCX",
"h L K gXT.N uXzXuX4 o.$.g k @ < d.h p.0X`.X.| y.,.` XXHX[ $Xf.c.nX{.l B.uXu.L pXb.<.y < ,.} n.n.bXaX2.%.+X5 <Xx.9 >X7 ,XnXO.kXDX",
"[ ; B eXL ^ n ZXNXf.h.*Xg 3 l =XGXk M T U.z / ^ } % V KX; c.-.e.{.pXf g g g.g.v.kX#XO , *.f b.MXH.ZXE 9.j.t V.j B.j.B.}.D Q Q.5 ",
"W f { a $ *XN { H.d.@ %.B.u.M 9.q 3 b `.jX, { j ;.5 K qXn k F ] s.v f L ~ I `.g.X.<.+.( $.b u.0X1 uX8 +.@ $Xb.f kXj.' tXnXU.&.V.",
"g.I c.{ f b.MXM B U 0.( i.=.p [ O ( :.I wX3 N m > h f h p.3 U L b.{ M rXb.m g.0X5 y +X>.2 i.N j ..V.u @., &X-.s.ZX9 =X] /.GXS.6X",
"b.K.fXeXh.m qXVX|.V NXo.$ u.g c.>. .c.  K { m eXU *X) j V.{ |.{.B.iXM M g.'.v a.V.y +X>.$ N.^ j ` y lX,X3.<.y 1.GX> 0 ] 0 0.4XSX",
"{ qXCXU :.M d 0XcX- w.0 6 b.3 ) j N MXQ d u.n.eX X=X' h b.d ! m p.tXM v.vX'.- @ t.@.l.c.L #Xz >.9 G GXzX_.L.r.@.A D f.1 ' lX6XGX",
"| g.+ | 1.d N s ].7.9 P.^.:.N B.pXpXBXBXm ^  .p 1 t ( T MX! eX .$ { rX'.-X2 ) < w.OXO.k k u.=.tXuX3.5XzXsXSXAXI.^ rXNXHXOX1.@XX ",
"_ 2 M n b.M m ! 1.oXZXgXB.) Q aX[ s.K VXC.! ! `.I g ; M *XB.:.j O + BX'.;Xc lXd.a }.g.) h `.sX&X7X6XC -XQ.vX(.x v FX>XnXh.h :.b ",
"v 4.a.3 { v.C.0X%.>.yXaX*X3 m u., g.m v.MXN v.a.yXc.[ + g 3 i.c.*.g.g L ;.@ *.>X$.'.k %.%.k.(.*.O.@X&.<X2 X.o.q.1 k.Z ^.X.^.c.l ",
"V P T M { y.f N x = :.f.tXI A % S X cXv.m f u.4 2 <.c.j f g N M <.uXg n.,.y , 9 E #Xb ;.X.t y _ S _ 2 i.@ 5 ' @., 9 ,XOXX 3.OX%X",
"2.A 1 b | m.a W L / { a.:.L k * {.T.g.{.y.{ ` @ & 1.) [ $ u.u.0X1.M u.p @ u < O K V.} k 2 / ^ s.uXc.i.{ j ^ ` t < 9 8XoXO.OXO./.",
"l $.6 h ) m.m V 3 { Q wX$ h ; f P v.`.cXM ^ 5 ( } m.% n M Z.n.pXtXy.pX{ ^ t t 8 N / s $ p B.y.`.{.{.iXu.[ n $XM.y r.< 7 lX6Xx lX",
"3 b &.L M M ; d f a B cX{ { A i.k ; yXyXl j 5 N h 4 3 b uXb.M M ^ B.Z.y.{ # 5 3 { a j g g u.M Q -.P g.; -.z.&Xk.w.q.i w.,.Z 3.>X",
"Q F.g.d n M W VX0X .M '.i.&XR.^ f pXd m MXy.u.~ u.L f $ b.[ n $.8 h.rXu.{ } B.B.<.0.c :.h L g.k Q.5.2 - P yXA 7 w., w.$Xc ' *.- ",
"H.BXfX; n b.b.a.qX|  .g W cXvX= 3 b.I m L ~ W C.MXvXW g =.{ >.tXuX, MXpX:.j y.u.,XsXq ,.` -XFX% i oXb s.&.yXI yXq.w.l.9 c 0.0.$X"
};
